G75*
%MOIN*%
%OFA0B0*%
%FSLAX25Y25*%
%IPPOS*%
%LPD*%
%AMOC8*
5,1,8,0,0,1.08239X$1,22.5*
%
%ADD10C,0.00800*%
%ADD11R,0.06693X0.16142*%
%ADD12R,0.04724X0.04724*%
%ADD13C,0.01181*%
%ADD14R,0.01575X0.01181*%
%ADD15R,0.01181X0.01575*%
%ADD16R,0.01969X0.02362*%
%ADD17R,0.02362X0.01969*%
%ADD18C,0.01083*%
%ADD19R,0.02362X0.00886*%
%ADD20R,0.02362X0.01181*%
%ADD21R,0.01181X0.02362*%
%ADD22C,0.01772*%
%ADD23R,0.03346X0.01772*%
%ADD24R,0.06299X0.09843*%
%ADD25R,0.05118X0.08661*%
%ADD26R,0.02756X0.03543*%
%ADD27R,0.03543X0.02756*%
%ADD28C,0.02362*%
%ADD29R,0.02362X0.03150*%
%ADD30R,0.04331X0.03937*%
%ADD31R,0.01575X0.00787*%
%ADD32R,0.00787X0.01575*%
%ADD33R,0.11417X0.11417*%
%ADD34R,0.05512X0.13386*%
%ADD35R,0.03543X0.13386*%
%ADD36C,0.02200*%
%ADD37C,0.02400*%
%ADD38C,0.02400*%
%ADD39C,0.01600*%
%ADD40C,0.01200*%
%ADD41C,0.01000*%
%ADD42C,0.03000*%
%ADD43OC8,0.06000*%
%ADD44C,0.00500*%
%ADD45C,0.03400*%
%ADD46C,0.02000*%
D10*
X0045638Y0078678D02*
X0046439Y0079479D01*
X0045638Y0080280D01*
X0048040Y0080280D01*
X0048040Y0078678D02*
X0045638Y0078678D01*
X0046039Y0081625D02*
X0046439Y0082025D01*
X0046439Y0083226D01*
X0046839Y0083226D02*
X0045638Y0083226D01*
X0045638Y0082025D01*
X0046039Y0081625D01*
X0047240Y0082025D02*
X0047240Y0082826D01*
X0046839Y0083226D01*
X0046439Y0084571D02*
X0047240Y0085372D01*
X0047240Y0085772D01*
X0047240Y0084571D02*
X0045638Y0084571D01*
X0045638Y0087027D02*
X0045638Y0088228D01*
X0046039Y0088628D01*
X0046839Y0088628D01*
X0047240Y0088228D01*
X0047240Y0087027D01*
X0044838Y0087027D01*
X0045638Y0092920D02*
X0047240Y0092920D01*
X0047240Y0093721D02*
X0047240Y0094121D01*
X0047240Y0093721D02*
X0046439Y0092920D01*
X0046439Y0095375D02*
X0046439Y0096977D01*
X0046839Y0096977D01*
X0047240Y0096576D01*
X0047240Y0095776D01*
X0046839Y0095375D01*
X0046039Y0095375D01*
X0045638Y0095776D01*
X0045638Y0096576D01*
X0047240Y0098322D02*
X0045638Y0099122D01*
X0047240Y0099923D01*
X0047240Y0104215D02*
X0045638Y0104215D01*
X0046839Y0104215D02*
X0046839Y0105816D01*
X0047240Y0105816D02*
X0045638Y0105816D01*
X0044838Y0107161D02*
X0045638Y0107962D01*
X0045638Y0107562D01*
X0046039Y0107562D01*
X0046039Y0107962D01*
X0045638Y0107962D01*
X0047240Y0105816D02*
X0048040Y0105016D01*
X0047240Y0104215D01*
X0046839Y0112072D02*
X0046839Y0113273D01*
X0046439Y0113674D01*
X0046039Y0113674D01*
X0045638Y0113273D01*
X0045638Y0112072D01*
X0048040Y0112072D01*
X0048040Y0113273D01*
X0047640Y0113674D01*
X0047240Y0113674D01*
X0046839Y0113273D01*
X0046839Y0115019D02*
X0046039Y0115019D01*
X0045638Y0115419D01*
X0045638Y0116220D01*
X0046039Y0116620D01*
X0046839Y0116620D01*
X0047240Y0116220D01*
X0047240Y0115419D01*
X0046839Y0115019D01*
X0047240Y0117965D02*
X0047240Y0118766D01*
X0047640Y0118366D02*
X0046039Y0118366D01*
X0045638Y0118766D01*
X0046039Y0120330D02*
X0045638Y0120730D01*
X0046039Y0120330D02*
X0047640Y0120330D01*
X0047240Y0119930D02*
X0047240Y0120730D01*
X0046839Y0121894D02*
X0046039Y0121894D01*
X0045638Y0122294D01*
X0045638Y0123095D01*
X0046039Y0123495D01*
X0046839Y0123495D01*
X0047240Y0123095D01*
X0047240Y0122294D01*
X0046839Y0121894D01*
X0047240Y0124840D02*
X0045638Y0124840D01*
X0045638Y0125641D02*
X0046839Y0125641D01*
X0047240Y0126041D01*
X0046839Y0126442D01*
X0045638Y0126442D01*
X0046839Y0125641D02*
X0047240Y0125241D01*
X0047240Y0124840D01*
X0105278Y0106034D02*
X0115314Y0106034D01*
X0115314Y0107889D01*
D11*
X0119907Y0062024D03*
X0127907Y0042024D03*
X0127907Y0022024D03*
X0150407Y0022024D03*
X0150407Y0042024D03*
X0142407Y0062024D03*
X0105407Y0042024D03*
X0105407Y0022024D03*
X0097407Y0062024D03*
D12*
X0104552Y0056315D03*
X0112552Y0036315D03*
X0112552Y0016315D03*
X0090052Y0016315D03*
X0090052Y0036315D03*
X0082052Y0056315D03*
X0127052Y0056315D03*
X0135052Y0036315D03*
X0135052Y0016315D03*
D13*
X0149534Y0067444D03*
X0151502Y0067444D03*
X0153471Y0067444D03*
X0153471Y0069412D03*
X0153471Y0071381D03*
X0151502Y0071381D03*
X0149534Y0071381D03*
X0149534Y0069412D03*
D14*
X0126541Y0078641D03*
X0126541Y0080609D03*
X0126541Y0082578D03*
X0126541Y0084546D03*
X0126541Y0086515D03*
X0116305Y0086515D03*
X0116305Y0084546D03*
X0116305Y0082578D03*
X0116305Y0080609D03*
X0116305Y0078641D03*
X0065199Y0071408D03*
X0065199Y0068259D03*
X0057325Y0068259D03*
X0057325Y0071408D03*
D15*
X0058900Y0073770D03*
X0061262Y0073770D03*
X0063624Y0073770D03*
X0063624Y0065896D03*
X0061262Y0065896D03*
X0058900Y0065896D03*
X0119455Y0077459D03*
X0121423Y0077459D03*
X0123392Y0077459D03*
X0123392Y0087696D03*
X0121423Y0087696D03*
X0119455Y0087696D03*
D16*
X0163301Y0082940D03*
D17*
X0163498Y0077231D03*
X0169404Y0077231D03*
X0175309Y0077231D03*
X0175309Y0088648D03*
X0169404Y0088648D03*
X0163498Y0088648D03*
D18*
X0153388Y0061074D03*
X0153388Y0059105D03*
X0153388Y0057137D03*
X0153388Y0055168D03*
X0149451Y0055168D03*
X0149451Y0057137D03*
X0149451Y0059105D03*
X0149451Y0061074D03*
D19*
X0067187Y0058259D03*
X0067187Y0056684D03*
X0067187Y0055109D03*
X0067187Y0053534D03*
X0067187Y0051959D03*
X0060100Y0051959D03*
X0060100Y0053534D03*
X0060100Y0055109D03*
X0060100Y0056684D03*
X0060100Y0058259D03*
D20*
X0067459Y0089019D03*
X0067459Y0090987D03*
X0067459Y0092956D03*
X0077301Y0092956D03*
X0077301Y0090987D03*
X0077301Y0089019D03*
D21*
X0076317Y0086066D03*
X0074349Y0086066D03*
X0072380Y0086066D03*
X0070412Y0086066D03*
X0068443Y0086066D03*
X0068443Y0095908D03*
X0070412Y0095908D03*
X0072380Y0095908D03*
X0074349Y0095908D03*
X0076317Y0095908D03*
D22*
X0138987Y0096404D02*
X0140561Y0096404D01*
X0140561Y0100341D02*
X0138987Y0100341D01*
X0138987Y0104278D02*
X0140561Y0104278D01*
X0150404Y0100341D02*
X0151978Y0100341D01*
X0151978Y0096404D02*
X0150404Y0096404D01*
D23*
X0151191Y0104278D03*
D24*
X0145482Y0100341D03*
D25*
X0131849Y0107889D03*
X0115314Y0107889D03*
D26*
X0114262Y0093578D03*
X0119380Y0093578D03*
X0159427Y0058656D03*
X0159396Y0053924D03*
X0164514Y0053924D03*
X0164545Y0058656D03*
X0075427Y0101932D03*
X0070309Y0101932D03*
X0060435Y0084727D03*
X0060404Y0080270D03*
X0055286Y0080270D03*
X0055317Y0084727D03*
X0068396Y0043318D03*
X0073514Y0043318D03*
X0072514Y0023349D03*
X0072514Y0018349D03*
X0067396Y0018349D03*
X0067396Y0023349D03*
D27*
X0061834Y0023357D03*
X0061834Y0018239D03*
X0079742Y0039853D03*
X0084136Y0039853D03*
X0084136Y0044971D03*
X0079742Y0044971D03*
X0082955Y0031483D03*
X0082955Y0026365D03*
X0082955Y0021483D03*
X0082955Y0016365D03*
X0053978Y0055625D03*
X0049317Y0055625D03*
X0049317Y0060743D03*
X0053978Y0060743D03*
X0051270Y0088554D03*
X0051270Y0093672D03*
X0057270Y0095672D03*
X0057270Y0090554D03*
X0075955Y0116365D03*
X0075955Y0121483D03*
X0083455Y0121483D03*
X0083455Y0116365D03*
X0124070Y0097872D03*
X0124070Y0092754D03*
X0129670Y0092754D03*
X0129670Y0097872D03*
X0147585Y0110294D03*
X0147585Y0115412D03*
X0155341Y0115373D03*
X0155341Y0110255D03*
X0171317Y0099806D03*
X0176128Y0099806D03*
X0176128Y0094688D03*
X0171317Y0094688D03*
X0160923Y0070483D03*
X0160923Y0065365D03*
D28*
X0168470Y0034313D03*
X0164670Y0030913D03*
X0164470Y0023713D03*
X0161270Y0013113D03*
X0150670Y0008313D03*
X0111923Y0077300D03*
X0117481Y0121913D03*
X0133270Y0123113D03*
X0100153Y0123113D03*
X0055270Y0033113D03*
X0055270Y0027113D03*
X0055270Y0009113D03*
D29*
X0066215Y0029003D03*
X0069955Y0029003D03*
X0073695Y0029003D03*
X0073695Y0038845D03*
X0069955Y0038845D03*
X0066215Y0038845D03*
D30*
X0066821Y0047924D03*
X0073514Y0047924D03*
D31*
X0090711Y0104066D03*
X0090711Y0106034D03*
X0090711Y0108003D03*
X0090711Y0109971D03*
X0090711Y0111940D03*
X0090711Y0113908D03*
X0105278Y0113908D03*
X0105278Y0111940D03*
X0105278Y0109971D03*
X0105278Y0108003D03*
X0105278Y0106034D03*
X0105278Y0104066D03*
D32*
X0102915Y0101704D03*
X0100947Y0101704D03*
X0098978Y0101704D03*
X0097010Y0101704D03*
X0095041Y0101704D03*
X0093073Y0101704D03*
X0093073Y0116270D03*
X0095041Y0116270D03*
X0097010Y0116270D03*
X0098978Y0116270D03*
X0100947Y0116270D03*
X0102915Y0116270D03*
D33*
X0097994Y0108987D03*
D34*
X0129679Y0196466D03*
X0119837Y0205521D03*
X0109994Y0205521D03*
X0100152Y0205521D03*
X0090309Y0205521D03*
X0080467Y0205521D03*
X0070624Y0205521D03*
X0060782Y0205521D03*
D35*
X0054089Y0205521D03*
D36*
X0050570Y0206713D03*
X0047870Y0200313D03*
X0053270Y0188113D03*
X0053270Y0182113D03*
X0056970Y0213613D03*
X0070570Y0214013D03*
X0074670Y0214813D03*
X0085470Y0212813D03*
X0091670Y0189513D03*
X0086370Y0182313D03*
X0115370Y0209613D03*
X0119270Y0175113D03*
X0121870Y0167913D03*
X0088270Y0125513D03*
X0091270Y0123113D03*
X0093970Y0118813D03*
X0096770Y0118813D03*
X0097570Y0121613D03*
X0102470Y0121313D03*
X0111870Y0119313D03*
X0112582Y0114351D03*
X0114270Y0097913D03*
X0119670Y0097913D03*
X0111770Y0088613D03*
X0102144Y0084952D03*
X0094470Y0082413D03*
X0092370Y0077513D03*
X0094057Y0073554D03*
X0091070Y0073013D03*
X0086770Y0068613D03*
X0083271Y0072360D03*
X0077915Y0071979D03*
X0077915Y0077491D03*
X0076728Y0081822D03*
X0068270Y0075913D03*
X0065370Y0075813D03*
X0065317Y0078672D03*
X0059170Y0076413D03*
X0055081Y0073948D03*
X0054770Y0071113D03*
X0054370Y0066913D03*
X0051537Y0065286D03*
X0050170Y0069913D03*
X0048170Y0072713D03*
X0051144Y0080247D03*
X0051270Y0084913D03*
X0059970Y0098913D03*
X0062167Y0100719D03*
X0064530Y0097570D03*
X0064530Y0088908D03*
X0063770Y0085213D03*
X0074370Y0093013D03*
X0081852Y0092852D03*
X0083821Y0090677D03*
X0091270Y0091213D03*
X0094396Y0091357D03*
X0092070Y0087513D03*
X0096970Y0096413D03*
X0097070Y0099213D03*
X0100870Y0099213D03*
X0088070Y0106413D03*
X0088070Y0109213D03*
X0085270Y0109213D03*
X0090270Y0116013D03*
X0088470Y0118213D03*
X0064923Y0121349D03*
X0060593Y0122373D03*
X0051537Y0111349D03*
X0058570Y0063313D03*
X0060199Y0060956D03*
X0057170Y0058013D03*
X0057170Y0052813D03*
X0053900Y0051900D03*
X0049870Y0048413D03*
X0048388Y0045601D03*
X0048388Y0042452D03*
X0048388Y0039302D03*
X0049670Y0036613D03*
X0049963Y0033396D03*
X0047600Y0033396D03*
X0050970Y0029313D03*
X0048670Y0023613D03*
X0048388Y0020798D03*
X0048388Y0016861D03*
X0052770Y0022713D03*
X0060986Y0029459D03*
X0059805Y0035759D03*
X0055270Y0038713D03*
X0054270Y0044213D03*
X0057070Y0044213D03*
X0065317Y0043239D03*
X0070170Y0051713D03*
X0070041Y0056625D03*
X0067770Y0060413D03*
X0064530Y0062924D03*
X0075770Y0035713D03*
X0075170Y0032313D03*
X0078770Y0031613D03*
X0079370Y0035913D03*
X0082215Y0036152D03*
X0087270Y0024113D03*
X0092770Y0007513D03*
X0104470Y0007413D03*
X0080970Y0007213D03*
X0070370Y0014913D03*
X0064570Y0015413D03*
X0064270Y0005213D03*
X0053070Y0007213D03*
X0088952Y0052688D03*
X0088152Y0058600D03*
X0132640Y0078672D03*
X0134970Y0084613D03*
X0132640Y0086546D03*
X0135370Y0087813D03*
X0137570Y0086013D03*
X0140570Y0088613D03*
X0143070Y0090913D03*
X0151144Y0092845D03*
X0159170Y0089613D03*
X0156270Y0084213D03*
X0158270Y0082113D03*
X0158970Y0078613D03*
X0156081Y0078672D03*
X0153670Y0076313D03*
X0147600Y0065286D03*
X0151070Y0062713D03*
X0147600Y0052688D03*
X0137770Y0041613D03*
X0141270Y0034113D03*
X0145632Y0031428D03*
X0144970Y0024713D03*
X0141695Y0021979D03*
X0150070Y0012213D03*
X0147770Y0008213D03*
X0155470Y0025313D03*
X0155770Y0030613D03*
X0161570Y0023713D03*
X0165470Y0027313D03*
X0167570Y0030913D03*
X0171370Y0034313D03*
X0164923Y0043633D03*
X0164530Y0049932D03*
X0159412Y0049932D03*
X0165070Y0065313D03*
X0168870Y0066913D03*
X0165070Y0070513D03*
X0176734Y0065286D03*
X0180470Y0065113D03*
X0181065Y0061743D03*
X0176734Y0054656D03*
X0181459Y0083003D03*
X0167286Y0094814D03*
X0165530Y0092345D03*
X0165317Y0102294D03*
X0159018Y0102688D03*
X0154570Y0105013D03*
X0159412Y0110168D03*
X0151537Y0112924D03*
X0134370Y0115113D03*
X0170370Y0115313D03*
X0179170Y0117313D03*
X0181459Y0099932D03*
X0167670Y0010213D03*
X0166593Y0005050D03*
X0129070Y0005213D03*
D37*
X0067470Y0014113D03*
X0061755Y0014124D03*
D38*
X0062270Y0009713D02*
X0060670Y0009713D01*
X0061841Y0023349D02*
X0061834Y0023357D01*
X0061841Y0023349D02*
X0067396Y0023349D01*
X0082955Y0016365D02*
X0090052Y0016365D01*
X0090052Y0016315D01*
X0090052Y0010904D01*
X0086120Y0010904D01*
X0099770Y0021613D02*
X0105370Y0021613D01*
X0105407Y0021613D01*
X0105407Y0021653D01*
X0106262Y0020798D01*
X0112552Y0016315D02*
X0112561Y0016315D01*
X0112561Y0030641D01*
X0112552Y0036315D02*
X0112552Y0043641D01*
X0112167Y0044026D01*
X0105407Y0042024D02*
X0105407Y0035113D01*
X0099770Y0035113D01*
X0090052Y0036315D02*
X0090052Y0041203D01*
X0091620Y0042770D01*
X0091270Y0049113D02*
X0097407Y0049113D01*
X0097407Y0062024D01*
X0104552Y0061349D02*
X0104552Y0056315D01*
X0104552Y0061349D02*
X0108687Y0061349D01*
X0112770Y0058113D02*
X0119907Y0058113D01*
X0119907Y0062024D01*
X0126128Y0061956D02*
X0127052Y0061956D01*
X0127052Y0056315D01*
X0134270Y0056113D02*
X0142407Y0056113D01*
X0142407Y0062024D01*
X0141270Y0047613D02*
X0150407Y0047613D01*
X0150407Y0042024D01*
X0135052Y0036315D02*
X0135052Y0016315D01*
X0135002Y0016315D01*
X0135002Y0008200D01*
X0140770Y0016113D02*
X0150407Y0016113D01*
X0150407Y0022024D01*
X0127907Y0022024D02*
X0127907Y0022113D01*
X0122270Y0022113D01*
X0127907Y0038523D02*
X0126443Y0039987D01*
X0125947Y0040483D01*
X0127907Y0041113D02*
X0127907Y0042024D01*
X0127907Y0041113D02*
X0122270Y0041113D01*
X0160923Y0065365D02*
X0165018Y0065365D01*
X0165070Y0065313D01*
X0164961Y0070404D02*
X0165070Y0070513D01*
X0164961Y0070404D02*
X0160923Y0070404D01*
X0129670Y0092754D02*
X0124070Y0092754D01*
X0124070Y0097872D02*
X0119711Y0097872D01*
X0119670Y0097913D01*
X0124070Y0097872D02*
X0129670Y0097872D01*
X0114270Y0097913D02*
X0114262Y0097905D01*
X0114262Y0093578D01*
X0091270Y0121483D02*
X0083455Y0121483D01*
X0075955Y0121483D01*
X0091270Y0121483D02*
X0091270Y0123113D01*
X0055317Y0084727D02*
X0055286Y0084727D01*
X0055286Y0080270D01*
X0075128Y0049538D02*
X0081852Y0049538D01*
X0075128Y0049538D02*
X0073514Y0047924D01*
X0073270Y0175113D02*
X0094670Y0175113D01*
X0095270Y0174513D01*
X0095270Y0175113D02*
X0095770Y0175613D01*
X0100152Y0179995D01*
X0100152Y0205521D01*
X0090309Y0205521D02*
X0090309Y0194074D01*
X0091270Y0193113D01*
X0093270Y0193113D01*
X0095270Y0191113D01*
X0095270Y0187192D01*
X0073270Y0175113D02*
X0070624Y0177759D01*
X0070624Y0205521D01*
D39*
X0075955Y0116365D02*
X0083455Y0116365D01*
X0083455Y0111349D01*
X0081852Y0111349D01*
X0081852Y0101113D01*
X0081852Y0095601D01*
X0082070Y0095601D01*
X0082246Y0095601D01*
X0082070Y0095452D02*
X0081955Y0095452D01*
X0082070Y0095452D02*
X0087770Y0095452D01*
X0087770Y0084952D01*
X0102144Y0084952D01*
X0086652Y0055444D02*
X0082052Y0055444D01*
X0082052Y0056315D01*
X0073514Y0047924D02*
X0073514Y0043318D01*
X0073695Y0043318D01*
X0073695Y0038845D01*
X0073270Y0038420D01*
X0073270Y0035113D01*
X0071270Y0033113D01*
X0067270Y0033113D01*
X0066215Y0032058D01*
X0066215Y0029003D01*
X0069955Y0029003D02*
X0069955Y0025908D01*
X0067396Y0023349D01*
X0067396Y0018349D02*
X0067396Y0014187D01*
X0067470Y0014113D01*
X0061834Y0014203D02*
X0061755Y0014124D01*
X0061834Y0014203D02*
X0061834Y0018239D01*
X0072514Y0018349D02*
X0072514Y0023349D01*
X0073695Y0024530D01*
X0073695Y0029003D01*
X0078770Y0031483D02*
X0078770Y0031613D01*
X0078770Y0031483D02*
X0082955Y0031483D01*
X0082215Y0036152D02*
X0084136Y0036152D01*
X0084136Y0039853D01*
X0079742Y0039853D01*
X0069955Y0038845D02*
X0069955Y0043318D01*
X0068396Y0043318D01*
X0065317Y0043318D01*
X0065317Y0043239D01*
X0066215Y0038908D02*
X0062561Y0038908D01*
X0062561Y0047924D01*
X0066821Y0047924D01*
X0066215Y0038908D02*
X0066215Y0038845D01*
X0053900Y0051900D02*
X0053900Y0055109D01*
X0053978Y0055109D01*
X0053978Y0055625D02*
X0049317Y0055625D01*
X0049317Y0060743D02*
X0049317Y0065286D01*
X0051537Y0065286D01*
X0049317Y0060743D02*
X0053978Y0060743D01*
X0055081Y0073770D02*
X0055081Y0073948D01*
X0055081Y0073770D02*
X0058900Y0073770D01*
X0060404Y0080270D02*
X0065317Y0080270D01*
X0065317Y0078672D01*
X0060404Y0080270D02*
X0060404Y0084727D01*
X0060435Y0084727D01*
X0057270Y0088554D02*
X0057270Y0090554D01*
X0057270Y0088554D02*
X0051270Y0088554D01*
X0051270Y0084913D01*
X0051167Y0080270D02*
X0051144Y0080247D01*
X0051167Y0080270D02*
X0055286Y0080270D01*
X0051270Y0093672D02*
X0051270Y0095672D01*
X0057270Y0095672D01*
X0064530Y0095672D01*
X0064530Y0097570D01*
X0082955Y0026365D02*
X0082955Y0024113D01*
X0087270Y0024113D01*
X0082955Y0024113D02*
X0082955Y0021483D01*
X0136208Y0100341D02*
X0136208Y0113318D01*
X0141301Y0113318D01*
X0141301Y0115286D01*
X0146870Y0115286D01*
X0147600Y0115286D01*
X0147585Y0115412D02*
X0151537Y0115412D01*
X0155341Y0115412D01*
X0155341Y0115373D01*
X0151537Y0115412D02*
X0151537Y0112924D01*
X0155341Y0110294D02*
X0147585Y0110294D01*
X0155341Y0110294D02*
X0155341Y0110255D01*
X0159412Y0110255D01*
X0159412Y0110168D01*
X0165317Y0102294D02*
X0165317Y0100341D01*
X0151191Y0100341D01*
X0139774Y0100341D02*
X0136208Y0100341D01*
X0163301Y0083003D02*
X0163301Y0082940D01*
X0181459Y0082940D01*
X0181459Y0083003D01*
X0176128Y0088648D02*
X0176128Y0094688D01*
X0171317Y0094688D01*
X0167286Y0094688D01*
X0167286Y0094814D01*
X0171317Y0099806D02*
X0176128Y0099806D01*
X0181459Y0099806D01*
X0181459Y0099932D01*
X0176128Y0088648D02*
X0169404Y0088648D01*
X0175309Y0088648D01*
X0164545Y0058656D02*
X0164514Y0058656D01*
X0164514Y0053924D01*
X0164530Y0053924D01*
X0164530Y0049932D01*
X0159412Y0049932D02*
X0159412Y0053924D01*
X0159396Y0053924D01*
D40*
X0159396Y0058656D01*
X0159427Y0058656D01*
X0157443Y0067444D02*
X0153471Y0067444D01*
X0151502Y0067444D02*
X0149534Y0067444D01*
X0149534Y0065286D01*
X0147600Y0065286D01*
X0149534Y0069412D02*
X0149534Y0071381D01*
X0157443Y0070404D02*
X0157443Y0067444D01*
X0157443Y0070404D02*
X0160923Y0070404D01*
X0160923Y0070483D01*
X0149451Y0059105D02*
X0147600Y0059105D01*
X0147600Y0052688D01*
X0126541Y0080609D02*
X0116305Y0080609D01*
X0116305Y0078641D01*
X0116305Y0080609D02*
X0116305Y0082578D01*
X0116305Y0084546D01*
X0116305Y0086515D01*
X0119455Y0087696D02*
X0119455Y0093578D01*
X0119380Y0093578D01*
X0121423Y0090107D02*
X0124070Y0092754D01*
X0121423Y0090107D02*
X0121423Y0087696D01*
X0080278Y0090987D02*
X0080278Y0081822D01*
X0076728Y0081822D01*
X0076728Y0081881D01*
X0074349Y0081881D01*
X0074349Y0086066D01*
X0070412Y0086066D02*
X0070412Y0081881D01*
X0074349Y0081881D01*
X0073191Y0079066D02*
X0065317Y0079066D01*
X0065317Y0078672D01*
X0065199Y0071408D02*
X0059805Y0071408D01*
X0059805Y0069617D01*
X0058900Y0069617D01*
X0058900Y0068830D01*
X0058900Y0068259D02*
X0058900Y0066913D01*
X0058900Y0065896D01*
X0061262Y0065896D02*
X0062167Y0065896D01*
X0063624Y0065896D01*
X0058900Y0068259D02*
X0057325Y0068259D01*
X0058900Y0073770D02*
X0058900Y0073948D01*
X0065199Y0071408D02*
X0073191Y0071408D01*
X0073191Y0079066D01*
X0067459Y0089019D02*
X0064530Y0089019D01*
X0064530Y0088908D01*
X0068443Y0095908D02*
X0068443Y0097570D01*
X0064530Y0097570D01*
X0070412Y0095908D02*
X0070412Y0101932D01*
X0070309Y0101932D01*
X0075427Y0101932D02*
X0076317Y0101932D01*
X0076317Y0095908D01*
X0077301Y0090987D02*
X0079270Y0090987D01*
X0080278Y0090987D01*
D41*
X0081852Y0101113D02*
X0087270Y0101113D01*
X0087270Y0104066D01*
X0090711Y0104066D01*
X0097010Y0108987D02*
X0097994Y0108987D01*
X0097994Y0108003D01*
X0105278Y0108003D01*
X0111270Y0108003D01*
X0111270Y0114351D01*
X0112582Y0114351D01*
X0114670Y0116313D02*
X0123470Y0116313D01*
X0133270Y0116313D01*
X0133270Y0123113D01*
X0131849Y0107889D02*
X0131849Y0101913D01*
X0111270Y0101913D01*
X0111270Y0104066D01*
X0105278Y0104066D01*
X0105278Y0109971D02*
X0109270Y0109971D01*
X0109270Y0116913D01*
X0111870Y0116913D01*
X0111870Y0119313D01*
X0114670Y0121913D02*
X0114670Y0116313D01*
X0114670Y0121913D02*
X0105070Y0121913D01*
X0105070Y0116270D01*
X0102915Y0116270D01*
X0100947Y0116270D02*
X0100947Y0118436D01*
X0102870Y0118436D01*
X0102870Y0121313D01*
X0102870Y0123713D01*
X0117481Y0123713D01*
X0117481Y0121913D01*
X0101270Y0113908D02*
X0101270Y0113113D01*
X0101270Y0111940D02*
X0101270Y0111713D01*
X0101270Y0111113D01*
X0098978Y0111349D02*
X0098388Y0111349D01*
X0098388Y0113908D01*
X0098978Y0116270D02*
X0098978Y0120404D01*
X0100153Y0120404D01*
X0100153Y0123113D01*
X0111770Y0088613D02*
X0111770Y0086515D01*
X0116305Y0086515D01*
X0121423Y0087696D02*
X0123392Y0087696D01*
X0126541Y0087696D01*
X0126541Y0086515D01*
X0132640Y0086515D01*
X0132640Y0086546D01*
X0132640Y0078672D02*
X0132640Y0078641D01*
X0126541Y0078641D01*
X0153388Y0059105D02*
X0153388Y0057137D01*
X0153388Y0055168D01*
X0159396Y0055168D01*
X0159396Y0053924D01*
X0070041Y0056625D02*
X0070041Y0056684D01*
X0067187Y0056684D01*
X0063742Y0058259D02*
X0063742Y0051959D01*
X0067187Y0051959D01*
X0063742Y0058259D02*
X0060199Y0058259D01*
X0060199Y0060956D01*
X0062167Y0062924D02*
X0064530Y0062924D01*
X0062167Y0062924D02*
X0062167Y0065896D01*
X0060100Y0055109D02*
X0053978Y0055109D01*
X0053978Y0055625D01*
X0095309Y0187152D02*
X0095270Y0187192D01*
D42*
X0095309Y0187152D03*
X0095270Y0174513D03*
X0121029Y0120404D03*
X0126128Y0061956D03*
X0134270Y0056113D03*
X0141270Y0047613D03*
X0122270Y0041113D03*
X0112561Y0030641D03*
X0122270Y0022113D03*
X0135002Y0008200D03*
X0140770Y0016113D03*
X0112167Y0044026D03*
X0099770Y0035113D03*
X0091620Y0042770D03*
X0091270Y0049113D03*
X0086652Y0055444D03*
X0081852Y0049538D03*
X0062380Y0033003D03*
X0086120Y0010904D03*
X0099770Y0021613D03*
X0112770Y0058113D03*
X0108687Y0061349D03*
D43*
X0052270Y0100113D03*
X0048270Y0006113D03*
X0180270Y0046113D03*
X0180270Y0112113D03*
D44*
X0050270Y0050413D02*
X0046770Y0053913D01*
X0046770Y0065013D01*
X0048670Y0066913D01*
X0049970Y0066913D01*
X0054370Y0071313D01*
X0054770Y0071313D01*
X0054770Y0071113D01*
X0054770Y0071313D02*
X0057270Y0071313D01*
X0057325Y0071408D01*
X0061170Y0073813D02*
X0061262Y0073770D01*
X0061170Y0073813D02*
X0061170Y0074413D01*
X0059170Y0076413D01*
X0063670Y0074113D02*
X0065370Y0075813D01*
X0063670Y0074113D02*
X0063670Y0073813D01*
X0063624Y0073770D01*
X0058900Y0066913D02*
X0054370Y0066913D01*
X0060170Y0058313D02*
X0060199Y0058259D01*
X0060170Y0058313D02*
X0060100Y0058259D01*
X0060100Y0053534D02*
X0060170Y0053513D01*
X0061270Y0053513D01*
X0062070Y0052713D01*
X0062070Y0051213D01*
X0060770Y0049913D01*
X0053070Y0049913D01*
X0052570Y0050413D01*
X0050270Y0050413D01*
X0057170Y0052813D02*
X0057970Y0052013D01*
X0060070Y0052013D01*
X0060100Y0051959D01*
X0067187Y0053534D02*
X0067270Y0053513D01*
X0068370Y0053513D01*
X0070170Y0051713D01*
X0068970Y0058313D02*
X0067270Y0058313D01*
X0067187Y0058259D01*
X0068970Y0058313D02*
X0069270Y0058613D01*
X0073870Y0058613D01*
X0080570Y0051913D01*
X0082870Y0051913D01*
X0084270Y0050513D01*
X0084270Y0045113D01*
X0084170Y0045013D01*
X0084136Y0044971D01*
X0079742Y0044971D02*
X0079670Y0044913D01*
X0077170Y0042413D01*
X0077170Y0038113D01*
X0079370Y0035913D01*
X0089270Y0028013D02*
X0089270Y0023313D01*
X0084470Y0018513D01*
X0076970Y0018513D01*
X0070470Y0012013D01*
X0064570Y0012013D01*
X0064570Y0015413D01*
X0064570Y0012013D02*
X0064570Y0011113D01*
X0064870Y0010813D01*
X0064870Y0008613D01*
X0063370Y0007113D01*
X0057270Y0007113D01*
X0055270Y0009113D01*
X0055270Y0027113D02*
X0055270Y0030313D01*
X0053270Y0032313D01*
X0053270Y0040413D01*
X0057070Y0044213D01*
X0055270Y0038713D02*
X0055270Y0033113D01*
X0089270Y0028013D02*
X0099370Y0038113D01*
X0099370Y0048513D01*
X0101770Y0050913D01*
X0104970Y0050913D01*
X0107670Y0053613D01*
X0107670Y0056413D01*
X0111070Y0059813D01*
X0111070Y0062313D01*
X0109970Y0063413D01*
X0109970Y0079913D01*
X0102970Y0086913D01*
X0102970Y0101613D01*
X0102915Y0101704D01*
X0100947Y0101704D02*
X0100870Y0101613D01*
X0100870Y0099213D01*
X0097070Y0099213D02*
X0097070Y0101613D01*
X0097010Y0101704D01*
X0095070Y0101613D02*
X0095041Y0101704D01*
X0095070Y0101613D02*
X0095070Y0098313D01*
X0096970Y0096413D01*
X0093070Y0093013D02*
X0091270Y0091213D01*
X0093070Y0093013D02*
X0093070Y0101613D01*
X0093073Y0101704D01*
X0090711Y0106034D02*
X0090670Y0106113D01*
X0088370Y0106113D01*
X0088070Y0106413D01*
X0089270Y0108013D02*
X0088070Y0109213D01*
X0089270Y0108013D02*
X0090670Y0108013D01*
X0090711Y0108003D01*
X0090711Y0109971D02*
X0090670Y0110013D01*
X0090070Y0110013D01*
X0088870Y0111213D01*
X0087270Y0111213D01*
X0085270Y0109213D01*
X0090270Y0112013D02*
X0086070Y0116213D01*
X0086070Y0118013D01*
X0085570Y0118513D01*
X0073870Y0118513D01*
X0073770Y0118713D01*
X0073770Y0119413D01*
X0073370Y0119813D01*
X0073370Y0123113D01*
X0077770Y0127513D01*
X0147470Y0127513D01*
X0161370Y0113613D01*
X0161370Y0107013D01*
X0163370Y0107013D01*
X0167270Y0103113D01*
X0167270Y0100013D01*
X0158070Y0090813D01*
X0158170Y0090613D01*
X0159170Y0089613D01*
X0158070Y0090813D02*
X0150370Y0090813D01*
X0148270Y0092913D01*
X0142070Y0092913D01*
X0138570Y0089413D01*
X0138570Y0087813D01*
X0139570Y0086813D01*
X0139570Y0085213D01*
X0136970Y0082613D01*
X0134170Y0082613D01*
X0132270Y0084513D01*
X0126570Y0084513D01*
X0126541Y0084546D01*
X0126541Y0082578D02*
X0126570Y0082513D01*
X0132770Y0082513D01*
X0138070Y0077213D01*
X0151470Y0077213D01*
X0151670Y0077113D01*
X0156570Y0082013D01*
X0158070Y0082013D01*
X0158270Y0082113D01*
X0158670Y0082113D01*
X0163470Y0077313D01*
X0163498Y0077231D01*
X0163970Y0079013D02*
X0170870Y0079013D01*
X0173370Y0076513D01*
X0173370Y0025213D01*
X0161270Y0013113D01*
X0161070Y0013013D01*
X0160270Y0012213D01*
X0150070Y0012213D01*
X0150670Y0008313D02*
X0150570Y0008213D01*
X0147770Y0008213D01*
X0161570Y0023713D02*
X0164470Y0023713D01*
X0164670Y0030913D02*
X0167570Y0030913D01*
X0168470Y0034313D02*
X0171370Y0034313D01*
X0155770Y0030613D02*
X0155770Y0050913D01*
X0152070Y0054613D01*
X0152070Y0059713D01*
X0153270Y0060913D01*
X0153388Y0061074D01*
X0153470Y0061113D01*
X0157670Y0061113D01*
X0159770Y0063213D01*
X0165770Y0063213D01*
X0169170Y0066613D01*
X0168870Y0066913D01*
X0169170Y0066613D02*
X0169370Y0066813D01*
X0169370Y0072613D01*
X0158970Y0072613D01*
X0158970Y0078613D01*
X0161470Y0081513D02*
X0163970Y0079013D01*
X0161470Y0081513D02*
X0161470Y0081813D01*
X0154670Y0088613D01*
X0140570Y0088613D01*
X0151670Y0077113D02*
X0151670Y0075513D01*
X0153470Y0073713D01*
X0153470Y0071413D01*
X0153471Y0071381D01*
X0153471Y0069412D02*
X0153570Y0069413D01*
X0154470Y0069413D01*
X0157670Y0072613D01*
X0158970Y0072613D01*
X0153471Y0067444D02*
X0153070Y0067813D01*
X0151770Y0069113D01*
X0150070Y0069113D01*
X0149534Y0069412D01*
X0151070Y0062713D02*
X0149470Y0061113D01*
X0149451Y0061074D01*
X0169370Y0072613D02*
X0169370Y0077213D01*
X0169404Y0077231D01*
X0153870Y0104313D02*
X0151270Y0104313D01*
X0151191Y0104278D01*
X0153870Y0104313D02*
X0154570Y0105013D01*
X0161370Y0107013D02*
X0142570Y0107013D01*
X0139870Y0104313D01*
X0139774Y0104278D01*
X0134370Y0115113D02*
X0133570Y0115913D01*
X0133270Y0116313D01*
X0123470Y0116313D02*
X0123470Y0121313D01*
X0119270Y0125513D01*
X0088270Y0125513D01*
X0088470Y0118213D02*
X0090870Y0118213D01*
X0092770Y0116313D01*
X0093070Y0116313D01*
X0093073Y0116270D01*
X0094970Y0116313D02*
X0094970Y0117813D01*
X0093970Y0118813D01*
X0094970Y0116313D02*
X0095041Y0116270D01*
X0096970Y0116313D02*
X0096970Y0118613D01*
X0096770Y0118813D01*
X0096970Y0116313D02*
X0097010Y0116270D01*
X0098978Y0120404D02*
X0098570Y0120613D01*
X0097570Y0121613D01*
X0102470Y0121313D02*
X0102870Y0121313D01*
X0101270Y0113113D02*
X0101270Y0112413D01*
X0097994Y0108987D01*
X0099670Y0111013D01*
X0099470Y0111213D01*
X0098978Y0111349D01*
X0100870Y0111713D02*
X0097994Y0108987D01*
X0100870Y0111713D02*
X0101270Y0111713D01*
X0090711Y0111940D02*
X0090670Y0112013D01*
X0090270Y0112013D01*
X0090670Y0113913D02*
X0090711Y0113908D01*
X0090670Y0113913D02*
X0090670Y0115613D01*
X0090270Y0116013D01*
X0073870Y0118513D02*
X0073270Y0117913D01*
X0073270Y0104513D01*
X0063170Y0104513D01*
X0059970Y0101313D01*
X0059970Y0098913D01*
X0063770Y0085213D02*
X0065170Y0085213D01*
X0069870Y0080513D01*
X0075270Y0080513D01*
X0075970Y0079813D01*
X0082270Y0079813D01*
X0087070Y0084613D01*
X0087770Y0084952D01*
X0079270Y0090987D02*
X0079270Y0093913D01*
X0077570Y0095613D01*
X0076870Y0095613D01*
X0076317Y0095908D01*
X0074349Y0095908D02*
X0074270Y0095913D01*
X0074270Y0096913D01*
X0073270Y0097913D01*
X0073270Y0104513D01*
X0082070Y0095613D02*
X0082070Y0095601D01*
X0082070Y0095452D01*
X0077301Y0092956D02*
X0077270Y0093013D01*
X0074370Y0093013D01*
X0111923Y0077300D02*
X0111970Y0077213D01*
X0117370Y0077213D01*
X0117570Y0077413D01*
X0119370Y0077413D01*
X0119455Y0077459D01*
X0127907Y0042024D02*
X0126470Y0040013D01*
X0126443Y0039987D01*
X0105407Y0022024D02*
X0105370Y0022013D01*
X0105370Y0021613D01*
X0146870Y0115286D02*
X0146870Y0115313D01*
X0147585Y0115412D01*
X0104370Y0171113D02*
X0129670Y0196413D01*
X0129679Y0196466D01*
X0119837Y0205521D02*
X0119770Y0205613D01*
X0115770Y0209613D01*
X0115370Y0209613D01*
X0109994Y0205521D02*
X0109970Y0205513D01*
X0109970Y0185813D01*
X0096270Y0172113D01*
X0073470Y0172113D01*
X0057470Y0188113D01*
X0053270Y0188113D01*
X0047870Y0190713D02*
X0067470Y0171113D01*
X0104370Y0171113D01*
X0095770Y0175613D02*
X0095170Y0176213D01*
X0094670Y0175113D01*
X0080467Y0205521D02*
X0080370Y0205613D01*
X0080370Y0206313D01*
X0072670Y0214013D01*
X0070570Y0214013D01*
X0069770Y0216013D02*
X0060870Y0207113D01*
X0060870Y0205613D01*
X0060782Y0205521D01*
X0056970Y0208413D02*
X0054170Y0205613D01*
X0054089Y0205521D01*
X0056970Y0208413D02*
X0056970Y0213613D01*
X0069770Y0216013D02*
X0072170Y0216013D01*
X0073370Y0214813D01*
X0074670Y0214813D01*
X0047870Y0200313D02*
X0047870Y0190713D01*
D45*
X0062270Y0009713D03*
D46*
X0060670Y0009713D02*
X0056070Y0014313D01*
X0056070Y0021313D01*
X0058106Y0023349D01*
X0061841Y0023349D01*
M02*
