%
M48
M72
T01C0.00800
T02C0.01000
T03C0.01600
T04C0.02000
T05C0.04000
%
T01
X48388Y16861
X48388Y20798
X48670Y23613
X52770Y22713
X50970Y29313
X49963Y33396
X47600Y33396
X49670Y36613
X48388Y39302
X48388Y42452
X48388Y45601
X49870Y48413
X53900Y51900
X57170Y52813
X57170Y58013
X60199Y60956
X58570Y63313
X54370Y66913
X51537Y65286
X50170Y69913
X48170Y72713
X51144Y80247
X51270Y84913
X59170Y76413
X55081Y73948
X54770Y71113
X65370Y75813
X65317Y78672
X68270Y75913
X76728Y81822
X77915Y77491
X77915Y71979
X83271Y72360
X86770Y68613
X91070Y73013
X94057Y73554
X92370Y77513
X94470Y82413
X92070Y87513
X91270Y91213
X94396Y91357
X96970Y96413
X97070Y99213
X100870Y99213
X111770Y88613
X114270Y97913
X119670Y97913
X132640Y86546
X134970Y84613
X135370Y87813
X137570Y86013
X140570Y88613
X143070Y90913
X151144Y92845
X159170Y89613
X156270Y84213
X158270Y82113
X158970Y78613
X156081Y78672
X153670Y76313
X147600Y65286
X151070Y62713
X147600Y52688
X137770Y41613
X141270Y34113
X145632Y31428
X144970Y24713
X141695Y21979
X150070Y12213
X147770Y8213
X155470Y25313
X155770Y30613
X161570Y23713
X165470Y27313
X167570Y30913
X171370Y34313
X164923Y43633
X164530Y49932
X159412Y49932
X165070Y65313
X168870Y66913
X165070Y70513
X176734Y65286
X180470Y65113
X181065Y61743
X176734Y54656
X181459Y83003
X167286Y94814
X165530Y92345
X165317Y102294
X159018Y102688
X154570Y105013
X159412Y110168
X151537Y112924
X134370Y115113
X112582Y114351
X111870Y119313
X102470Y121313
X97570Y121613
X96770Y118813
X93970Y118813
X90270Y116013
X88470Y118213
X91270Y123113
X88270Y125513
X88070Y109213
X88070Y106413
X85270Y109213
X81852Y92852
X83821Y90677
X74370Y93013
X64530Y88908
X63770Y85213
X64530Y97570
X62167Y100719
X59970Y98913
X51537Y111349
X60593Y122373
X64923Y121349
X102144Y84952
X88152Y58600
X88952Y52688
X82215Y36152
X79370Y35913
X75770Y35713
X75170Y32313
X78770Y31613
X87270Y24113
X92770Y7513
X104470Y7413
X80970Y7213
X70370Y14913
X64570Y15413
X64270Y5213
X53070Y7213
X60986Y29459
X59805Y35759
X55270Y38713
X54270Y44213
X57070Y44213
X65317Y43239
X70170Y51713
X70041Y56625
X67770Y60413
X64530Y62924
X129070Y5213
X166593Y5050
X167670Y10213
X132640Y78672
X170370Y115313
X179170Y117313
X181459Y99932
X121870Y167913
X119270Y175113
X91670Y189513
X86370Y182313
X85470Y212813
X74670Y214813
X70570Y214013
X56970Y213613
X50570Y206713
X47870Y200313
X53270Y188113
X53270Y182113
X115370Y209613
T02
X67470Y14113
X61755Y14124
T03
X62380Y33003
X81852Y49538
X86652Y55444
X91270Y49113
X91620Y42770
X99770Y35113
X99770Y21613
X112561Y30641
X122270Y22113
X135002Y8200
X140770Y16113
X122270Y41113
X112167Y44026
X112770Y58113
X108687Y61349
X126128Y61956
X134270Y56113
X141270Y47613
X86120Y10904
X121029Y120404
X95270Y174513
X95309Y187152
T04
X62270Y9713
T05
X48270Y6113
X52270Y100113
X180270Y112113
X180270Y46113
M30
