G75*
%MOIN*%
%OFA0B0*%
%FSLAX25Y25*%
%IPPOS*%
%LPD*%
%AMOC8*
5,1,8,0,0,1.08239X$1,22.5*
%
%ADD10C,0.02200*%
%ADD11C,0.02400*%
%ADD12C,0.03000*%
%ADD13C,0.06000*%
%ADD14C,0.01200*%
%ADD15C,0.02400*%
%ADD16C,0.03400*%
%ADD17C,0.00500*%
D10*
X0048388Y0016861D03*
X0048388Y0020798D03*
X0048670Y0023613D03*
X0052770Y0022713D03*
X0050970Y0029313D03*
X0049963Y0033396D03*
X0047600Y0033396D03*
X0049670Y0036613D03*
X0048388Y0039302D03*
X0048388Y0042452D03*
X0048388Y0045601D03*
X0049870Y0048413D03*
X0053900Y0051900D03*
X0057170Y0052813D03*
X0057170Y0058013D03*
X0060199Y0060956D03*
X0058570Y0063313D03*
X0054370Y0066913D03*
X0051537Y0065286D03*
X0050170Y0069913D03*
X0048170Y0072713D03*
X0051144Y0080247D03*
X0051270Y0084913D03*
X0059170Y0076413D03*
X0055081Y0073948D03*
X0054770Y0071113D03*
X0065370Y0075813D03*
X0065317Y0078672D03*
X0068270Y0075913D03*
X0076728Y0081822D03*
X0077915Y0077491D03*
X0077915Y0071979D03*
X0083271Y0072360D03*
X0086770Y0068613D03*
X0091070Y0073013D03*
X0094057Y0073554D03*
X0092370Y0077513D03*
X0094470Y0082413D03*
X0092070Y0087513D03*
X0091270Y0091213D03*
X0094396Y0091357D03*
X0096970Y0096413D03*
X0097070Y0099213D03*
X0100870Y0099213D03*
X0111770Y0088613D03*
X0114270Y0097913D03*
X0119670Y0097913D03*
X0132640Y0086546D03*
X0134970Y0084613D03*
X0135370Y0087813D03*
X0137570Y0086013D03*
X0140570Y0088613D03*
X0143070Y0090913D03*
X0151144Y0092845D03*
X0159170Y0089613D03*
X0156270Y0084213D03*
X0158270Y0082113D03*
X0158970Y0078613D03*
X0156081Y0078672D03*
X0153670Y0076313D03*
X0147600Y0065286D03*
X0151070Y0062713D03*
X0147600Y0052688D03*
X0137770Y0041613D03*
X0141270Y0034113D03*
X0145632Y0031428D03*
X0144970Y0024713D03*
X0141695Y0021979D03*
X0150070Y0012213D03*
X0147770Y0008213D03*
X0155470Y0025313D03*
X0155770Y0030613D03*
X0161570Y0023713D03*
X0165470Y0027313D03*
X0167570Y0030913D03*
X0171370Y0034313D03*
X0164923Y0043633D03*
X0164530Y0049932D03*
X0159412Y0049932D03*
X0165070Y0065313D03*
X0168870Y0066913D03*
X0165070Y0070513D03*
X0176734Y0065286D03*
X0180470Y0065113D03*
X0181065Y0061743D03*
X0176734Y0054656D03*
X0181459Y0083003D03*
X0167286Y0094814D03*
X0165530Y0092345D03*
X0165317Y0102294D03*
X0159018Y0102688D03*
X0154570Y0105013D03*
X0159412Y0110168D03*
X0151537Y0112924D03*
X0134370Y0115113D03*
X0112582Y0114351D03*
X0111870Y0119313D03*
X0102470Y0121313D03*
X0097570Y0121613D03*
X0096770Y0118813D03*
X0093970Y0118813D03*
X0090270Y0116013D03*
X0088470Y0118213D03*
X0091270Y0123113D03*
X0088270Y0125513D03*
X0088070Y0109213D03*
X0088070Y0106413D03*
X0085270Y0109213D03*
X0081852Y0092852D03*
X0083821Y0090677D03*
X0074370Y0093013D03*
X0064530Y0088908D03*
X0063770Y0085213D03*
X0064530Y0097570D03*
X0062167Y0100719D03*
X0059970Y0098913D03*
X0051537Y0111349D03*
X0060593Y0122373D03*
X0064923Y0121349D03*
X0102144Y0084952D03*
X0088152Y0058600D03*
X0088952Y0052688D03*
X0082215Y0036152D03*
X0079370Y0035913D03*
X0075770Y0035713D03*
X0075170Y0032313D03*
X0078770Y0031613D03*
X0087270Y0024113D03*
X0092770Y0007513D03*
X0104470Y0007413D03*
X0080970Y0007213D03*
X0070370Y0014913D03*
X0064570Y0015413D03*
X0064270Y0005213D03*
X0053070Y0007213D03*
X0060986Y0029459D03*
X0059805Y0035759D03*
X0055270Y0038713D03*
X0054270Y0044213D03*
X0057070Y0044213D03*
X0065317Y0043239D03*
X0070170Y0051713D03*
X0070041Y0056625D03*
X0067770Y0060413D03*
X0064530Y0062924D03*
X0129070Y0005213D03*
X0166593Y0005050D03*
X0167670Y0010213D03*
X0132640Y0078672D03*
X0170370Y0115313D03*
X0179170Y0117313D03*
X0181459Y0099932D03*
X0121870Y0167913D03*
X0119270Y0175113D03*
X0091670Y0189513D03*
X0086370Y0182313D03*
X0085470Y0212813D03*
X0074670Y0214813D03*
X0070570Y0214013D03*
X0056970Y0213613D03*
X0050570Y0206713D03*
X0047870Y0200313D03*
X0053270Y0188113D03*
X0053270Y0182113D03*
X0115370Y0209613D03*
D11*
X0067470Y0014113D03*
X0061755Y0014124D03*
D12*
X0062380Y0033003D03*
X0081852Y0049538D03*
X0086652Y0055444D03*
X0091270Y0049113D03*
X0091620Y0042770D03*
X0099770Y0035113D03*
X0099770Y0021613D03*
X0112561Y0030641D03*
X0122270Y0022113D03*
X0135002Y0008200D03*
X0140770Y0016113D03*
X0122270Y0041113D03*
X0112167Y0044026D03*
X0112770Y0058113D03*
X0108687Y0061349D03*
X0126128Y0061956D03*
X0134270Y0056113D03*
X0141270Y0047613D03*
X0086120Y0010904D03*
X0121029Y0120404D03*
X0095270Y0174513D03*
X0095309Y0187152D03*
D13*
X0052270Y0100113D03*
X0048270Y0006113D03*
X0180270Y0046113D03*
X0180270Y0112113D03*
D14*
X0047207Y0018726D02*
X0047207Y0010219D01*
X0047434Y0010313D01*
X0049105Y0010313D01*
X0050649Y0009674D01*
X0051463Y0008859D01*
X0052117Y0009513D01*
X0054022Y0009513D01*
X0055370Y0008166D01*
X0055370Y0006260D01*
X0054159Y0005050D01*
X0061970Y0005050D01*
X0061970Y0006166D01*
X0063317Y0007513D01*
X0065222Y0007513D01*
X0066570Y0006166D01*
X0066570Y0005050D01*
X0079880Y0005050D01*
X0078670Y0006260D01*
X0078670Y0008166D01*
X0080017Y0009513D01*
X0081922Y0009513D01*
X0083270Y0008166D01*
X0083270Y0006260D01*
X0082059Y0005050D01*
X0126770Y0005050D01*
X0126770Y0006166D01*
X0128117Y0007513D01*
X0130022Y0007513D01*
X0131370Y0006166D01*
X0131370Y0005050D01*
X0164293Y0005050D01*
X0164293Y0006003D01*
X0165640Y0007350D01*
X0167545Y0007350D01*
X0168893Y0006003D01*
X0168893Y0005050D01*
X0169254Y0005050D01*
X0169254Y0008545D01*
X0168622Y0007913D01*
X0166717Y0007913D01*
X0165370Y0009260D01*
X0165370Y0011166D01*
X0166717Y0012513D01*
X0168622Y0012513D01*
X0169254Y0011881D01*
X0169254Y0029345D01*
X0168522Y0028613D01*
X0167422Y0028613D01*
X0167770Y0028266D01*
X0167770Y0026360D01*
X0166422Y0025013D01*
X0164517Y0025013D01*
X0163170Y0026360D01*
X0163170Y0028266D01*
X0164517Y0029613D01*
X0165617Y0029613D01*
X0165270Y0029960D01*
X0165270Y0031866D01*
X0166617Y0033213D01*
X0168522Y0033213D01*
X0169254Y0032481D01*
X0169254Y0033176D01*
X0169070Y0033360D01*
X0169070Y0035266D01*
X0169254Y0035450D01*
X0169254Y0044420D01*
X0176425Y0044420D01*
X0176070Y0045278D01*
X0176070Y0046948D01*
X0176709Y0048492D01*
X0177891Y0049674D01*
X0179434Y0050313D01*
X0181065Y0050313D01*
X0181065Y0059443D01*
X0180112Y0059443D01*
X0178765Y0060790D01*
X0178765Y0062696D01*
X0179200Y0063130D01*
X0178515Y0063815D01*
X0177687Y0062986D01*
X0175782Y0062986D01*
X0174434Y0064334D01*
X0174434Y0066239D01*
X0175782Y0067586D01*
X0177687Y0067586D01*
X0178689Y0066585D01*
X0179517Y0067413D01*
X0181065Y0067413D01*
X0181065Y0080703D01*
X0180506Y0080703D01*
X0179159Y0082050D01*
X0179159Y0083955D01*
X0180506Y0085303D01*
X0181065Y0085303D01*
X0181065Y0097632D01*
X0180506Y0097632D01*
X0179159Y0098979D01*
X0179159Y0100885D01*
X0180506Y0102232D01*
X0181065Y0102232D01*
X0181065Y0115956D01*
X0180122Y0115013D01*
X0178217Y0115013D01*
X0176870Y0116360D01*
X0176870Y0118266D01*
X0178217Y0119613D01*
X0180122Y0119613D01*
X0181065Y0118670D01*
X0181065Y0127160D01*
X0089875Y0127160D01*
X0090570Y0126466D01*
X0090570Y0125413D01*
X0092222Y0125413D01*
X0093570Y0124066D01*
X0093570Y0122160D01*
X0092222Y0120813D01*
X0090317Y0120813D01*
X0088970Y0122160D01*
X0088970Y0123213D01*
X0087317Y0123213D01*
X0085970Y0124560D01*
X0085970Y0126466D01*
X0086664Y0127160D01*
X0047207Y0127160D01*
X0047207Y0075003D01*
X0047217Y0075013D01*
X0049122Y0075013D01*
X0050470Y0073666D01*
X0050470Y0071760D01*
X0049122Y0070413D01*
X0047217Y0070413D01*
X0047207Y0070423D01*
X0047207Y0047673D01*
X0047435Y0047901D01*
X0047570Y0047901D01*
X0047570Y0049366D01*
X0048917Y0050713D01*
X0050822Y0050713D01*
X0052170Y0049366D01*
X0052170Y0047460D01*
X0050822Y0046113D01*
X0050688Y0046113D01*
X0050688Y0044648D01*
X0050066Y0044026D01*
X0050688Y0043404D01*
X0050688Y0041499D01*
X0050066Y0040877D01*
X0050688Y0040255D01*
X0050688Y0038848D01*
X0051970Y0037566D01*
X0051970Y0035660D01*
X0051461Y0035151D01*
X0052263Y0034349D01*
X0052263Y0032444D01*
X0051432Y0031613D01*
X0051922Y0031613D01*
X0053270Y0030266D01*
X0053270Y0028360D01*
X0051922Y0027013D01*
X0050017Y0027013D01*
X0048670Y0028360D01*
X0048670Y0030266D01*
X0049501Y0031096D01*
X0049010Y0031096D01*
X0048782Y0031325D01*
X0048553Y0031096D01*
X0047207Y0031096D01*
X0047207Y0025403D01*
X0047717Y0025913D01*
X0049622Y0025913D01*
X0050970Y0024566D01*
X0050970Y0024166D01*
X0051817Y0025013D01*
X0053722Y0025013D01*
X0055070Y0023666D01*
X0055070Y0021760D01*
X0053722Y0020413D01*
X0051817Y0020413D01*
X0050688Y0021542D01*
X0050688Y0019845D01*
X0049341Y0018498D01*
X0047435Y0018498D01*
X0047207Y0018726D01*
X0047207Y0017892D02*
X0138731Y0017892D01*
X0138481Y0017642D02*
X0138070Y0016650D01*
X0138070Y0015576D01*
X0138481Y0014584D01*
X0139240Y0013824D01*
X0140233Y0013413D01*
X0141307Y0013413D01*
X0142299Y0013824D01*
X0143059Y0014584D01*
X0143470Y0015576D01*
X0143470Y0016650D01*
X0143059Y0017642D01*
X0142299Y0018402D01*
X0141307Y0018813D01*
X0140233Y0018813D01*
X0139240Y0018402D01*
X0138481Y0017642D01*
X0138088Y0016694D02*
X0071842Y0016694D01*
X0071322Y0017213D02*
X0069417Y0017213D01*
X0068492Y0016287D01*
X0067947Y0016513D01*
X0066992Y0016513D01*
X0066802Y0016434D01*
X0065522Y0017713D01*
X0063617Y0017713D01*
X0062371Y0016467D01*
X0062232Y0016524D01*
X0061277Y0016524D01*
X0060395Y0016159D01*
X0059720Y0015484D01*
X0059355Y0014601D01*
X0059355Y0013647D01*
X0059720Y0012765D01*
X0060395Y0012089D01*
X0061277Y0011724D01*
X0062232Y0011724D01*
X0063114Y0012089D01*
X0063789Y0012765D01*
X0063934Y0013113D01*
X0065286Y0013113D01*
X0065435Y0012753D01*
X0066110Y0012078D01*
X0066992Y0011713D01*
X0067947Y0011713D01*
X0068829Y0012078D01*
X0069390Y0012640D01*
X0069417Y0012613D01*
X0071322Y0012613D01*
X0072670Y0013960D01*
X0072670Y0015866D01*
X0071322Y0017213D01*
X0072670Y0015495D02*
X0138103Y0015495D01*
X0138768Y0014297D02*
X0072670Y0014297D01*
X0071808Y0013098D02*
X0147770Y0013098D01*
X0147770Y0013166D02*
X0147770Y0011260D01*
X0148517Y0010513D01*
X0146817Y0010513D01*
X0145470Y0009166D01*
X0145470Y0007260D01*
X0146817Y0005913D01*
X0148722Y0005913D01*
X0150070Y0007260D01*
X0150070Y0009166D01*
X0149322Y0009913D01*
X0151022Y0009913D01*
X0152370Y0011260D01*
X0152370Y0013166D01*
X0151022Y0014513D01*
X0149117Y0014513D01*
X0147770Y0013166D01*
X0147770Y0011900D02*
X0068398Y0011900D01*
X0066542Y0011900D02*
X0062656Y0011900D01*
X0063928Y0013098D02*
X0065292Y0013098D01*
X0066542Y0016694D02*
X0068898Y0016694D01*
X0062598Y0016694D02*
X0047207Y0016694D01*
X0047207Y0015495D02*
X0059732Y0015495D01*
X0059355Y0014297D02*
X0047207Y0014297D01*
X0047207Y0013098D02*
X0059582Y0013098D01*
X0060854Y0011900D02*
X0047207Y0011900D01*
X0047207Y0010701D02*
X0148329Y0010701D01*
X0149733Y0009503D02*
X0165370Y0009503D01*
X0165370Y0010701D02*
X0151811Y0010701D01*
X0152370Y0011900D02*
X0166104Y0011900D01*
X0169236Y0011900D02*
X0169254Y0011900D01*
X0169254Y0013098D02*
X0152370Y0013098D01*
X0151239Y0014297D02*
X0169254Y0014297D01*
X0169254Y0015495D02*
X0143436Y0015495D01*
X0143452Y0016694D02*
X0169254Y0016694D01*
X0169254Y0017892D02*
X0142809Y0017892D01*
X0142648Y0019679D02*
X0143995Y0021026D01*
X0143995Y0022435D01*
X0144017Y0022413D01*
X0145922Y0022413D01*
X0147270Y0023760D01*
X0147270Y0025666D01*
X0145922Y0027013D01*
X0144017Y0027013D01*
X0142670Y0025666D01*
X0142670Y0024257D01*
X0142648Y0024279D01*
X0140742Y0024279D01*
X0139395Y0022932D01*
X0139395Y0021026D01*
X0140742Y0019679D01*
X0142648Y0019679D01*
X0143258Y0020289D02*
X0169254Y0020289D01*
X0169254Y0019091D02*
X0100736Y0019091D01*
X0100307Y0018913D02*
X0101299Y0019324D01*
X0102059Y0020084D01*
X0102470Y0021076D01*
X0102470Y0022150D01*
X0102059Y0023142D01*
X0101299Y0023902D01*
X0100307Y0024313D01*
X0099233Y0024313D01*
X0098240Y0023902D01*
X0097481Y0023142D01*
X0097070Y0022150D01*
X0097070Y0021076D01*
X0097481Y0020084D01*
X0098240Y0019324D01*
X0099233Y0018913D01*
X0100307Y0018913D01*
X0098804Y0019091D02*
X0049933Y0019091D01*
X0050688Y0020289D02*
X0097396Y0020289D01*
X0097070Y0021488D02*
X0054797Y0021488D01*
X0055070Y0022686D02*
X0085444Y0022686D01*
X0084970Y0023160D02*
X0086317Y0021813D01*
X0088222Y0021813D01*
X0089570Y0023160D01*
X0089570Y0025066D01*
X0088222Y0026413D01*
X0086317Y0026413D01*
X0084970Y0025066D01*
X0084970Y0023160D01*
X0084970Y0023885D02*
X0054851Y0023885D01*
X0052390Y0027480D02*
X0154384Y0027480D01*
X0154517Y0027613D02*
X0153170Y0026266D01*
X0153170Y0024360D01*
X0154517Y0023013D01*
X0156422Y0023013D01*
X0157770Y0024360D01*
X0157770Y0026266D01*
X0156422Y0027613D01*
X0154517Y0027613D01*
X0154817Y0028313D02*
X0156722Y0028313D01*
X0158070Y0029660D01*
X0158070Y0031566D01*
X0156722Y0032913D01*
X0154817Y0032913D01*
X0153470Y0031566D01*
X0153470Y0029660D01*
X0154817Y0028313D01*
X0154451Y0028679D02*
X0053270Y0028679D01*
X0053270Y0029877D02*
X0077253Y0029877D01*
X0077817Y0029313D02*
X0079722Y0029313D01*
X0081070Y0030660D01*
X0081070Y0032566D01*
X0080022Y0033613D01*
X0080322Y0033613D01*
X0080912Y0034202D01*
X0081262Y0033852D01*
X0083167Y0033852D01*
X0084515Y0035200D01*
X0084515Y0037105D01*
X0083167Y0038452D01*
X0081262Y0038452D01*
X0080673Y0037863D01*
X0080322Y0038213D01*
X0078417Y0038213D01*
X0077470Y0037266D01*
X0076722Y0038013D01*
X0074817Y0038013D01*
X0073470Y0036666D01*
X0073470Y0034760D01*
X0073917Y0034313D01*
X0072870Y0033266D01*
X0072870Y0031360D01*
X0074217Y0030013D01*
X0076122Y0030013D01*
X0076620Y0030510D01*
X0077817Y0029313D01*
X0080287Y0029877D02*
X0143930Y0029877D01*
X0143332Y0030475D02*
X0144679Y0029128D01*
X0146585Y0029128D01*
X0147932Y0030475D01*
X0147932Y0032381D01*
X0146585Y0033728D01*
X0144679Y0033728D01*
X0143332Y0032381D01*
X0143332Y0030475D01*
X0143332Y0031076D02*
X0081070Y0031076D01*
X0081070Y0032274D02*
X0139856Y0032274D01*
X0140317Y0031813D02*
X0142222Y0031813D01*
X0143570Y0033160D01*
X0143570Y0035066D01*
X0142222Y0036413D01*
X0140317Y0036413D01*
X0138970Y0035066D01*
X0138970Y0033160D01*
X0140317Y0031813D01*
X0138970Y0033473D02*
X0101948Y0033473D01*
X0102059Y0033584D02*
X0102470Y0034576D01*
X0102470Y0035650D01*
X0102059Y0036642D01*
X0101299Y0037402D01*
X0100307Y0037813D01*
X0099233Y0037813D01*
X0098240Y0037402D01*
X0097481Y0036642D01*
X0097070Y0035650D01*
X0097070Y0034576D01*
X0097481Y0033584D01*
X0098240Y0032824D01*
X0099233Y0032413D01*
X0100307Y0032413D01*
X0101299Y0032824D01*
X0102059Y0033584D01*
X0102470Y0034671D02*
X0138970Y0034671D01*
X0139774Y0035870D02*
X0102379Y0035870D01*
X0101633Y0037068D02*
X0169254Y0037068D01*
X0169254Y0035870D02*
X0142766Y0035870D01*
X0143570Y0034671D02*
X0169070Y0034671D01*
X0169070Y0033473D02*
X0146840Y0033473D01*
X0147932Y0032274D02*
X0154178Y0032274D01*
X0153470Y0031076D02*
X0147932Y0031076D01*
X0147334Y0029877D02*
X0153470Y0029877D01*
X0153186Y0026282D02*
X0146654Y0026282D01*
X0147270Y0025083D02*
X0153170Y0025083D01*
X0153645Y0023885D02*
X0147270Y0023885D01*
X0146196Y0022686D02*
X0159344Y0022686D01*
X0159270Y0022760D02*
X0160617Y0021413D01*
X0162522Y0021413D01*
X0163870Y0022760D01*
X0163870Y0024666D01*
X0162522Y0026013D01*
X0160617Y0026013D01*
X0159270Y0024666D01*
X0159270Y0022760D01*
X0159270Y0023885D02*
X0157294Y0023885D01*
X0157770Y0025083D02*
X0159687Y0025083D01*
X0157754Y0026282D02*
X0163248Y0026282D01*
X0163170Y0027480D02*
X0156555Y0027480D01*
X0157088Y0028679D02*
X0163583Y0028679D01*
X0165353Y0029877D02*
X0158070Y0029877D01*
X0158070Y0031076D02*
X0165270Y0031076D01*
X0165678Y0032274D02*
X0157361Y0032274D01*
X0163452Y0025083D02*
X0164447Y0025083D01*
X0163870Y0023885D02*
X0169254Y0023885D01*
X0169254Y0025083D02*
X0166493Y0025083D01*
X0167691Y0026282D02*
X0169254Y0026282D01*
X0169254Y0027480D02*
X0167770Y0027480D01*
X0168588Y0028679D02*
X0169254Y0028679D01*
X0169254Y0022686D02*
X0163796Y0022686D01*
X0162597Y0021488D02*
X0169254Y0021488D01*
X0160542Y0021488D02*
X0143995Y0021488D01*
X0142670Y0025083D02*
X0089552Y0025083D01*
X0089570Y0023885D02*
X0098223Y0023885D01*
X0097292Y0022686D02*
X0089096Y0022686D01*
X0088354Y0026282D02*
X0143286Y0026282D01*
X0140348Y0023885D02*
X0124316Y0023885D01*
X0124559Y0023642D02*
X0123799Y0024402D01*
X0122807Y0024813D01*
X0121733Y0024813D01*
X0120740Y0024402D01*
X0119981Y0023642D01*
X0119570Y0022650D01*
X0119570Y0021576D01*
X0119981Y0020584D01*
X0120740Y0019824D01*
X0121733Y0019413D01*
X0122807Y0019413D01*
X0123799Y0019824D01*
X0124559Y0020584D01*
X0124970Y0021576D01*
X0124970Y0022650D01*
X0124559Y0023642D01*
X0124955Y0022686D02*
X0139395Y0022686D01*
X0139395Y0021488D02*
X0124933Y0021488D01*
X0124264Y0020289D02*
X0140132Y0020289D01*
X0142772Y0014297D02*
X0148901Y0014297D01*
X0145807Y0009503D02*
X0105633Y0009503D01*
X0105422Y0009713D02*
X0103517Y0009713D01*
X0102170Y0008366D01*
X0102170Y0006460D01*
X0103517Y0005113D01*
X0105422Y0005113D01*
X0106770Y0006460D01*
X0106770Y0008366D01*
X0105422Y0009713D01*
X0106770Y0008304D02*
X0145470Y0008304D01*
X0145625Y0007106D02*
X0130430Y0007106D01*
X0131370Y0005907D02*
X0164293Y0005907D01*
X0165395Y0007106D02*
X0149915Y0007106D01*
X0150070Y0008304D02*
X0166326Y0008304D01*
X0167790Y0007106D02*
X0169254Y0007106D01*
X0169254Y0008304D02*
X0169014Y0008304D01*
X0168893Y0005907D02*
X0169254Y0005907D01*
X0144424Y0033473D02*
X0143570Y0033473D01*
X0143332Y0032274D02*
X0142684Y0032274D01*
X0138722Y0039313D02*
X0140070Y0040660D01*
X0140070Y0042566D01*
X0138722Y0043913D01*
X0136817Y0043913D01*
X0135470Y0042566D01*
X0135470Y0040660D01*
X0136817Y0039313D01*
X0138722Y0039313D01*
X0138875Y0039465D02*
X0169254Y0039465D01*
X0169254Y0038267D02*
X0083353Y0038267D01*
X0084515Y0037068D02*
X0097907Y0037068D01*
X0097161Y0035870D02*
X0084515Y0035870D01*
X0083986Y0034671D02*
X0097070Y0034671D01*
X0097592Y0033473D02*
X0080163Y0033473D01*
X0081076Y0038267D02*
X0057570Y0038267D01*
X0057570Y0037760D02*
X0056222Y0036413D01*
X0054317Y0036413D01*
X0052970Y0037760D01*
X0052970Y0039666D01*
X0054317Y0041013D01*
X0056222Y0041013D01*
X0057570Y0039666D01*
X0057570Y0037760D01*
X0056878Y0037068D02*
X0073872Y0037068D01*
X0073470Y0035870D02*
X0051970Y0035870D01*
X0051970Y0037068D02*
X0053662Y0037068D01*
X0052970Y0038267D02*
X0051269Y0038267D01*
X0050688Y0039465D02*
X0052970Y0039465D01*
X0053968Y0040664D02*
X0050279Y0040664D01*
X0050688Y0041862D02*
X0063441Y0041862D01*
X0063017Y0042286D02*
X0064364Y0040939D01*
X0066270Y0040939D01*
X0067617Y0042286D01*
X0067617Y0044192D01*
X0066270Y0045539D01*
X0064364Y0045539D01*
X0063017Y0044192D01*
X0063017Y0042286D01*
X0063017Y0043061D02*
X0059170Y0043061D01*
X0059370Y0043260D02*
X0059370Y0045166D01*
X0058022Y0046513D01*
X0056117Y0046513D01*
X0055670Y0046066D01*
X0055222Y0046513D01*
X0053317Y0046513D01*
X0051970Y0045166D01*
X0051970Y0043260D01*
X0053317Y0041913D01*
X0055222Y0041913D01*
X0055670Y0042360D01*
X0056117Y0041913D01*
X0058022Y0041913D01*
X0059370Y0043260D01*
X0059370Y0044259D02*
X0063085Y0044259D01*
X0064283Y0045458D02*
X0059078Y0045458D01*
X0058122Y0050513D02*
X0056217Y0050513D01*
X0055991Y0050739D01*
X0054852Y0049600D01*
X0052947Y0049600D01*
X0051600Y0050948D01*
X0051600Y0052853D01*
X0052947Y0054200D01*
X0054852Y0054200D01*
X0055078Y0053974D01*
X0056217Y0055113D01*
X0058122Y0055113D01*
X0059470Y0053766D01*
X0059470Y0051860D01*
X0058122Y0050513D01*
X0059060Y0051450D02*
X0067870Y0051450D01*
X0067870Y0050760D02*
X0069217Y0049413D01*
X0071122Y0049413D01*
X0072470Y0050760D01*
X0072470Y0052666D01*
X0071122Y0054013D01*
X0069217Y0054013D01*
X0067870Y0052666D01*
X0067870Y0050760D01*
X0068378Y0050252D02*
X0055504Y0050252D01*
X0052295Y0050252D02*
X0051283Y0050252D01*
X0051600Y0051450D02*
X0047207Y0051450D01*
X0047207Y0050252D02*
X0048456Y0050252D01*
X0047570Y0049053D02*
X0047207Y0049053D01*
X0047207Y0047855D02*
X0047389Y0047855D01*
X0050299Y0044259D02*
X0051970Y0044259D01*
X0052169Y0043061D02*
X0050688Y0043061D01*
X0050688Y0045458D02*
X0052262Y0045458D01*
X0051366Y0046656D02*
X0090145Y0046656D01*
X0089740Y0046824D02*
X0090733Y0046413D01*
X0091807Y0046413D01*
X0092799Y0046824D01*
X0093559Y0047584D01*
X0093970Y0048576D01*
X0093970Y0049650D01*
X0093559Y0050642D01*
X0092799Y0051402D01*
X0091807Y0051813D01*
X0091252Y0051813D01*
X0091252Y0053640D01*
X0089904Y0054988D01*
X0087999Y0054988D01*
X0086652Y0053640D01*
X0086652Y0051735D01*
X0087999Y0050388D01*
X0088875Y0050388D01*
X0088570Y0049650D01*
X0088570Y0048576D01*
X0088981Y0047584D01*
X0089740Y0046824D01*
X0088868Y0047855D02*
X0083988Y0047855D01*
X0084141Y0048009D02*
X0084552Y0049001D01*
X0084552Y0050075D01*
X0084141Y0051068D01*
X0083382Y0051827D01*
X0082390Y0052238D01*
X0081315Y0052238D01*
X0080323Y0051827D01*
X0079563Y0051068D01*
X0079152Y0050075D01*
X0079152Y0049001D01*
X0079563Y0048009D01*
X0080323Y0047249D01*
X0081315Y0046838D01*
X0082390Y0046838D01*
X0083382Y0047249D01*
X0084141Y0048009D01*
X0084552Y0049053D02*
X0088570Y0049053D01*
X0088819Y0050252D02*
X0084479Y0050252D01*
X0083759Y0051450D02*
X0086936Y0051450D01*
X0086652Y0052649D02*
X0072470Y0052649D01*
X0072470Y0051450D02*
X0079946Y0051450D01*
X0079226Y0050252D02*
X0071961Y0050252D01*
X0071288Y0053847D02*
X0086859Y0053847D01*
X0087199Y0056300D02*
X0089104Y0056300D01*
X0090452Y0057647D01*
X0090452Y0059552D01*
X0089104Y0060900D01*
X0087199Y0060900D01*
X0085852Y0059552D01*
X0085852Y0057647D01*
X0087199Y0056300D01*
X0086056Y0057443D02*
X0072341Y0057443D01*
X0072341Y0057577D02*
X0070994Y0058925D01*
X0069534Y0058925D01*
X0070070Y0059460D01*
X0070070Y0061366D01*
X0068722Y0062713D01*
X0066830Y0062713D01*
X0066830Y0063877D01*
X0065482Y0065224D01*
X0063577Y0065224D01*
X0062230Y0063877D01*
X0062230Y0062177D01*
X0061152Y0063255D01*
X0060870Y0063255D01*
X0060870Y0064266D01*
X0059522Y0065613D01*
X0057617Y0065613D01*
X0056270Y0064266D01*
X0056270Y0062360D01*
X0057617Y0061013D01*
X0057899Y0061013D01*
X0057899Y0060313D01*
X0056217Y0060313D01*
X0054870Y0058966D01*
X0054870Y0057060D01*
X0056217Y0055713D01*
X0058122Y0055713D01*
X0059470Y0057060D01*
X0059470Y0058656D01*
X0061152Y0058656D01*
X0062499Y0060003D01*
X0062499Y0061702D01*
X0063577Y0060624D01*
X0065470Y0060624D01*
X0065470Y0059460D01*
X0066817Y0058113D01*
X0068277Y0058113D01*
X0067741Y0057577D01*
X0067741Y0055672D01*
X0069089Y0054325D01*
X0070994Y0054325D01*
X0072341Y0055672D01*
X0072341Y0057577D01*
X0072341Y0056245D02*
X0110820Y0056245D01*
X0110481Y0056584D02*
X0111240Y0055824D01*
X0112233Y0055413D01*
X0113307Y0055413D01*
X0114299Y0055824D01*
X0115059Y0056584D01*
X0115470Y0057576D01*
X0115470Y0058650D01*
X0115059Y0059642D01*
X0114299Y0060402D01*
X0113307Y0060813D01*
X0112233Y0060813D01*
X0111240Y0060402D01*
X0110481Y0059642D01*
X0110070Y0058650D01*
X0110070Y0057576D01*
X0110481Y0056584D01*
X0110125Y0057443D02*
X0090248Y0057443D01*
X0090452Y0058642D02*
X0110070Y0058642D01*
X0110678Y0059840D02*
X0090164Y0059840D01*
X0086139Y0059840D02*
X0070070Y0059840D01*
X0070070Y0061039D02*
X0149492Y0061039D01*
X0150117Y0060413D02*
X0148770Y0061760D01*
X0148770Y0063203D01*
X0148553Y0062986D01*
X0146648Y0062986D01*
X0145300Y0064334D01*
X0145300Y0066239D01*
X0146648Y0067586D01*
X0148553Y0067586D01*
X0149900Y0066239D01*
X0149900Y0064796D01*
X0150117Y0065013D01*
X0152022Y0065013D01*
X0153370Y0063666D01*
X0153370Y0061760D01*
X0152022Y0060413D01*
X0150117Y0060413D01*
X0148770Y0062237D02*
X0069198Y0062237D01*
X0066830Y0063436D02*
X0146198Y0063436D01*
X0145300Y0064634D02*
X0066072Y0064634D01*
X0062987Y0064634D02*
X0060501Y0064634D01*
X0060870Y0063436D02*
X0062230Y0063436D01*
X0062230Y0062237D02*
X0062170Y0062237D01*
X0062499Y0061039D02*
X0063162Y0061039D01*
X0062336Y0059840D02*
X0065470Y0059840D01*
X0066289Y0058642D02*
X0059470Y0058642D01*
X0059470Y0057443D02*
X0067741Y0057443D01*
X0067741Y0056245D02*
X0058654Y0056245D01*
X0058189Y0055046D02*
X0068368Y0055046D01*
X0069052Y0053847D02*
X0059388Y0053847D01*
X0059470Y0052649D02*
X0067870Y0052649D01*
X0071715Y0055046D02*
X0131789Y0055046D01*
X0131981Y0054584D02*
X0131570Y0055576D01*
X0131570Y0056650D01*
X0131981Y0057642D01*
X0132740Y0058402D01*
X0133733Y0058813D01*
X0134807Y0058813D01*
X0135799Y0058402D01*
X0136559Y0057642D01*
X0136970Y0056650D01*
X0136970Y0055576D01*
X0136559Y0054584D01*
X0135799Y0053824D01*
X0134807Y0053413D01*
X0133733Y0053413D01*
X0132740Y0053824D01*
X0131981Y0054584D01*
X0132717Y0053847D02*
X0091045Y0053847D01*
X0091252Y0052649D02*
X0145300Y0052649D01*
X0145300Y0051735D02*
X0146648Y0050388D01*
X0148553Y0050388D01*
X0149900Y0051735D01*
X0149900Y0053640D01*
X0148553Y0054988D01*
X0146648Y0054988D01*
X0145300Y0053640D01*
X0145300Y0051735D01*
X0145585Y0051450D02*
X0092682Y0051450D01*
X0093720Y0050252D02*
X0140585Y0050252D01*
X0140733Y0050313D02*
X0139740Y0049902D01*
X0138981Y0049142D01*
X0138570Y0048150D01*
X0138570Y0047076D01*
X0138981Y0046084D01*
X0139740Y0045324D01*
X0140733Y0044913D01*
X0141807Y0044913D01*
X0142799Y0045324D01*
X0143559Y0046084D01*
X0143970Y0047076D01*
X0143970Y0048150D01*
X0143559Y0049142D01*
X0142799Y0049902D01*
X0141807Y0050313D01*
X0140733Y0050313D01*
X0141954Y0050252D02*
X0157112Y0050252D01*
X0157112Y0050885D02*
X0157112Y0048979D01*
X0158459Y0047632D01*
X0160364Y0047632D01*
X0161711Y0048979D01*
X0161711Y0050885D01*
X0160364Y0052232D01*
X0158459Y0052232D01*
X0157112Y0050885D01*
X0157677Y0051450D02*
X0149616Y0051450D01*
X0149900Y0052649D02*
X0175489Y0052649D01*
X0175782Y0052356D02*
X0177687Y0052356D01*
X0179034Y0053704D01*
X0179034Y0055609D01*
X0177687Y0056956D01*
X0175782Y0056956D01*
X0174434Y0055609D01*
X0174434Y0053704D01*
X0175782Y0052356D01*
X0174434Y0053847D02*
X0149693Y0053847D01*
X0145507Y0053847D02*
X0135823Y0053847D01*
X0136750Y0055046D02*
X0174434Y0055046D01*
X0175070Y0056245D02*
X0136970Y0056245D01*
X0136641Y0057443D02*
X0181065Y0057443D01*
X0181065Y0056245D02*
X0178399Y0056245D01*
X0179034Y0055046D02*
X0181065Y0055046D01*
X0181065Y0053847D02*
X0179034Y0053847D01*
X0177980Y0052649D02*
X0181065Y0052649D01*
X0181065Y0051450D02*
X0166264Y0051450D01*
X0166830Y0050885D02*
X0165482Y0052232D01*
X0163577Y0052232D01*
X0162230Y0050885D01*
X0162230Y0048979D01*
X0163577Y0047632D01*
X0165482Y0047632D01*
X0166830Y0048979D01*
X0166830Y0050885D01*
X0166830Y0050252D02*
X0179287Y0050252D01*
X0177271Y0049053D02*
X0166830Y0049053D01*
X0165705Y0047855D02*
X0176445Y0047855D01*
X0176070Y0046656D02*
X0143796Y0046656D01*
X0143970Y0047855D02*
X0158236Y0047855D01*
X0157112Y0049053D02*
X0143596Y0049053D01*
X0142933Y0045458D02*
X0163496Y0045458D01*
X0163971Y0045933D02*
X0162623Y0044585D01*
X0162623Y0042680D01*
X0163971Y0041333D01*
X0165876Y0041333D01*
X0167223Y0042680D01*
X0167223Y0044585D01*
X0165876Y0045933D01*
X0163971Y0045933D01*
X0163354Y0047855D02*
X0160587Y0047855D01*
X0161711Y0049053D02*
X0162230Y0049053D01*
X0162230Y0050252D02*
X0161711Y0050252D01*
X0161146Y0051450D02*
X0162796Y0051450D01*
X0166351Y0045458D02*
X0176070Y0045458D01*
X0169254Y0044259D02*
X0167223Y0044259D01*
X0167223Y0043061D02*
X0169254Y0043061D01*
X0169254Y0041862D02*
X0166406Y0041862D01*
X0163441Y0041862D02*
X0140070Y0041862D01*
X0140070Y0040664D02*
X0169254Y0040664D01*
X0162623Y0043061D02*
X0139575Y0043061D01*
X0139606Y0045458D02*
X0066351Y0045458D01*
X0067549Y0044259D02*
X0162623Y0044259D01*
X0152648Y0061039D02*
X0178765Y0061039D01*
X0178765Y0062237D02*
X0153370Y0062237D01*
X0153370Y0063436D02*
X0163694Y0063436D01*
X0164117Y0063013D02*
X0166022Y0063013D01*
X0167370Y0064360D01*
X0167370Y0065160D01*
X0167917Y0064613D01*
X0169822Y0064613D01*
X0171170Y0065960D01*
X0171170Y0067866D01*
X0169822Y0069213D01*
X0167917Y0069213D01*
X0166570Y0067866D01*
X0166570Y0067066D01*
X0166022Y0067613D01*
X0164117Y0067613D01*
X0162770Y0066266D01*
X0162770Y0064360D01*
X0164117Y0063013D01*
X0162770Y0064634D02*
X0152401Y0064634D01*
X0149900Y0065833D02*
X0162770Y0065833D01*
X0163535Y0067031D02*
X0149108Y0067031D01*
X0146093Y0067031D02*
X0088441Y0067031D01*
X0089070Y0067660D02*
X0087722Y0066313D01*
X0085817Y0066313D01*
X0084470Y0067660D01*
X0084470Y0069566D01*
X0085817Y0070913D01*
X0087722Y0070913D01*
X0089070Y0069566D01*
X0089070Y0067660D01*
X0089070Y0068230D02*
X0164100Y0068230D01*
X0164117Y0068213D02*
X0166022Y0068213D01*
X0167370Y0069560D01*
X0167370Y0071466D01*
X0166022Y0072813D01*
X0164117Y0072813D01*
X0162770Y0071466D01*
X0162770Y0069560D01*
X0164117Y0068213D01*
X0162902Y0069428D02*
X0089070Y0069428D01*
X0088009Y0070627D02*
X0162770Y0070627D01*
X0163129Y0071825D02*
X0095581Y0071825D01*
X0095010Y0071254D02*
X0096357Y0072601D01*
X0096357Y0074507D01*
X0095010Y0075854D01*
X0093963Y0075854D01*
X0094670Y0076560D01*
X0094670Y0078466D01*
X0093322Y0079813D01*
X0091417Y0079813D01*
X0090070Y0078466D01*
X0090070Y0076560D01*
X0091317Y0075313D01*
X0090117Y0075313D01*
X0088770Y0073966D01*
X0088770Y0072060D01*
X0090117Y0070713D01*
X0092022Y0070713D01*
X0092834Y0071524D01*
X0093104Y0071254D01*
X0095010Y0071254D01*
X0096357Y0073024D02*
X0181065Y0073024D01*
X0181065Y0074222D02*
X0154832Y0074222D01*
X0154622Y0074013D02*
X0155970Y0075360D01*
X0155970Y0076372D01*
X0157033Y0076372D01*
X0157496Y0076834D01*
X0158017Y0076313D01*
X0159922Y0076313D01*
X0161270Y0077660D01*
X0161270Y0079566D01*
X0160122Y0080713D01*
X0160570Y0081160D01*
X0160570Y0083066D01*
X0159222Y0084413D01*
X0158570Y0084413D01*
X0158570Y0085166D01*
X0157222Y0086513D01*
X0155317Y0086513D01*
X0153970Y0085166D01*
X0153970Y0083260D01*
X0155317Y0081913D01*
X0155970Y0081913D01*
X0155970Y0081160D01*
X0156158Y0080972D01*
X0155128Y0080972D01*
X0153781Y0079625D01*
X0153781Y0078613D01*
X0152717Y0078613D01*
X0151370Y0077266D01*
X0151370Y0075360D01*
X0152717Y0074013D01*
X0154622Y0074013D01*
X0155970Y0075421D02*
X0181065Y0075421D01*
X0181065Y0076619D02*
X0160229Y0076619D01*
X0161270Y0077818D02*
X0181065Y0077818D01*
X0181065Y0079016D02*
X0161270Y0079016D01*
X0160621Y0080215D02*
X0181065Y0080215D01*
X0179796Y0081413D02*
X0160570Y0081413D01*
X0160570Y0082612D02*
X0179159Y0082612D01*
X0179159Y0083810D02*
X0159825Y0083810D01*
X0158570Y0085009D02*
X0180212Y0085009D01*
X0181065Y0086207D02*
X0157528Y0086207D01*
X0158217Y0087313D02*
X0160122Y0087313D01*
X0161470Y0088660D01*
X0161470Y0090566D01*
X0160122Y0091913D01*
X0158217Y0091913D01*
X0156870Y0090566D01*
X0156870Y0088660D01*
X0158217Y0087313D01*
X0158124Y0087406D02*
X0142615Y0087406D01*
X0142870Y0087660D02*
X0141522Y0086313D01*
X0139870Y0086313D01*
X0139870Y0085060D01*
X0138522Y0083713D01*
X0137270Y0083713D01*
X0137270Y0083660D01*
X0135922Y0082313D01*
X0134017Y0082313D01*
X0132670Y0083660D01*
X0132670Y0084246D01*
X0131687Y0084246D01*
X0130340Y0085593D01*
X0130340Y0087499D01*
X0131687Y0088846D01*
X0133150Y0088846D01*
X0134417Y0090113D01*
X0136322Y0090113D01*
X0137670Y0088766D01*
X0137670Y0088313D01*
X0138270Y0088313D01*
X0138270Y0089566D01*
X0139617Y0090913D01*
X0140770Y0090913D01*
X0140770Y0091866D01*
X0142117Y0093213D01*
X0144022Y0093213D01*
X0145370Y0091866D01*
X0145370Y0089960D01*
X0144022Y0088613D01*
X0142870Y0088613D01*
X0142870Y0087660D01*
X0142870Y0088604D02*
X0156926Y0088604D01*
X0156870Y0089803D02*
X0145212Y0089803D01*
X0145370Y0091001D02*
X0149735Y0091001D01*
X0150191Y0090545D02*
X0148844Y0091893D01*
X0148844Y0093798D01*
X0150191Y0095145D01*
X0152096Y0095145D01*
X0153444Y0093798D01*
X0153444Y0091893D01*
X0152096Y0090545D01*
X0150191Y0090545D01*
X0148844Y0092200D02*
X0145036Y0092200D01*
X0141104Y0092200D02*
X0096696Y0092200D01*
X0096696Y0092310D02*
X0095348Y0093657D01*
X0093443Y0093657D01*
X0092761Y0092975D01*
X0092222Y0093513D01*
X0090317Y0093513D01*
X0088970Y0092166D01*
X0088970Y0090260D01*
X0090267Y0088963D01*
X0089770Y0088466D01*
X0089770Y0086560D01*
X0091117Y0085213D01*
X0093022Y0085213D01*
X0094370Y0086560D01*
X0094370Y0088466D01*
X0093778Y0089057D01*
X0095348Y0089057D01*
X0096696Y0090404D01*
X0096696Y0092310D01*
X0096696Y0091001D02*
X0140770Y0091001D01*
X0138507Y0089803D02*
X0136633Y0089803D01*
X0137670Y0088604D02*
X0138270Y0088604D01*
X0139870Y0086207D02*
X0155011Y0086207D01*
X0153970Y0085009D02*
X0139818Y0085009D01*
X0138620Y0083810D02*
X0153970Y0083810D01*
X0154618Y0082612D02*
X0136221Y0082612D01*
X0133718Y0082612D02*
X0096770Y0082612D01*
X0096770Y0083366D02*
X0095422Y0084713D01*
X0093517Y0084713D01*
X0092170Y0083366D01*
X0092170Y0081460D01*
X0093517Y0080113D01*
X0095422Y0080113D01*
X0096770Y0081460D01*
X0096770Y0083366D01*
X0096325Y0083810D02*
X0100032Y0083810D01*
X0099844Y0083999D02*
X0101191Y0082652D01*
X0103096Y0082652D01*
X0104444Y0083999D01*
X0104444Y0085904D01*
X0103096Y0087252D01*
X0101191Y0087252D01*
X0099844Y0085904D01*
X0099844Y0083999D01*
X0099844Y0085009D02*
X0066070Y0085009D01*
X0066070Y0084260D02*
X0066070Y0086166D01*
X0065555Y0086681D01*
X0066830Y0087956D01*
X0066830Y0089861D01*
X0065482Y0091208D01*
X0063577Y0091208D01*
X0062230Y0089861D01*
X0062230Y0087956D01*
X0062745Y0087441D01*
X0061470Y0086166D01*
X0061470Y0084260D01*
X0062817Y0082913D01*
X0064722Y0082913D01*
X0066070Y0084260D01*
X0065620Y0083810D02*
X0075464Y0083810D01*
X0075775Y0084122D02*
X0074428Y0082774D01*
X0074428Y0080869D01*
X0075775Y0079522D01*
X0076693Y0079522D01*
X0075615Y0078444D01*
X0075615Y0076538D01*
X0076963Y0075191D01*
X0078868Y0075191D01*
X0080215Y0076538D01*
X0080215Y0078444D01*
X0078868Y0079791D01*
X0077950Y0079791D01*
X0079028Y0080869D01*
X0079028Y0082774D01*
X0077681Y0084122D01*
X0075775Y0084122D01*
X0074428Y0082612D02*
X0047207Y0082612D01*
X0047207Y0083810D02*
X0049120Y0083810D01*
X0048970Y0083960D02*
X0050317Y0082613D01*
X0052222Y0082613D01*
X0053570Y0083960D01*
X0053570Y0085866D01*
X0052222Y0087213D01*
X0050317Y0087213D01*
X0048970Y0085866D01*
X0048970Y0083960D01*
X0048970Y0085009D02*
X0047207Y0085009D01*
X0047207Y0086207D02*
X0049311Y0086207D01*
X0047207Y0087406D02*
X0062710Y0087406D01*
X0062230Y0088604D02*
X0047207Y0088604D01*
X0047207Y0089803D02*
X0062230Y0089803D01*
X0063370Y0091001D02*
X0047207Y0091001D01*
X0047207Y0092200D02*
X0072070Y0092200D01*
X0072070Y0092060D02*
X0073417Y0090713D01*
X0075322Y0090713D01*
X0076670Y0092060D01*
X0076670Y0093966D01*
X0075322Y0095313D01*
X0073417Y0095313D01*
X0072070Y0093966D01*
X0072070Y0092060D01*
X0072070Y0093398D02*
X0047207Y0093398D01*
X0047207Y0094597D02*
X0072701Y0094597D01*
X0073129Y0091001D02*
X0065689Y0091001D01*
X0066830Y0089803D02*
X0081521Y0089803D01*
X0081521Y0089724D02*
X0082868Y0088377D01*
X0084774Y0088377D01*
X0086121Y0089724D01*
X0086121Y0091629D01*
X0084774Y0092977D01*
X0084152Y0092977D01*
X0084152Y0093804D01*
X0082805Y0095152D01*
X0080900Y0095152D01*
X0079552Y0093804D01*
X0079552Y0091899D01*
X0080900Y0090552D01*
X0081521Y0090552D01*
X0081521Y0089724D01*
X0082641Y0088604D02*
X0066830Y0088604D01*
X0066280Y0087406D02*
X0089770Y0087406D01*
X0089908Y0088604D02*
X0085001Y0088604D01*
X0086121Y0089803D02*
X0089427Y0089803D01*
X0088970Y0091001D02*
X0086121Y0091001D01*
X0085551Y0092200D02*
X0089004Y0092200D01*
X0090202Y0093398D02*
X0084152Y0093398D01*
X0083360Y0094597D02*
X0095533Y0094597D01*
X0096017Y0094113D02*
X0094670Y0095460D01*
X0094670Y0097366D01*
X0095167Y0097863D01*
X0094770Y0098260D01*
X0094770Y0100166D01*
X0096117Y0101513D01*
X0098022Y0101513D01*
X0098970Y0100566D01*
X0099917Y0101513D01*
X0101822Y0101513D01*
X0103170Y0100166D01*
X0103170Y0098260D01*
X0101822Y0096913D01*
X0099917Y0096913D01*
X0098970Y0097860D01*
X0098872Y0097763D01*
X0099270Y0097366D01*
X0099270Y0095460D01*
X0097922Y0094113D01*
X0096017Y0094113D01*
X0095607Y0093398D02*
X0148844Y0093398D01*
X0149643Y0094597D02*
X0098406Y0094597D01*
X0099270Y0095795D02*
X0113135Y0095795D01*
X0113317Y0095613D02*
X0115222Y0095613D01*
X0116570Y0096960D01*
X0116570Y0098866D01*
X0115222Y0100213D01*
X0113317Y0100213D01*
X0111970Y0098866D01*
X0111970Y0096960D01*
X0113317Y0095613D01*
X0111970Y0096994D02*
X0101903Y0096994D01*
X0103102Y0098192D02*
X0111970Y0098192D01*
X0112495Y0099391D02*
X0103170Y0099391D01*
X0102746Y0100589D02*
X0157863Y0100589D01*
X0158065Y0100388D02*
X0159970Y0100388D01*
X0161318Y0101735D01*
X0161318Y0103640D01*
X0159970Y0104988D01*
X0158065Y0104988D01*
X0156718Y0103640D01*
X0156718Y0101735D01*
X0158065Y0100388D01*
X0156718Y0101788D02*
X0064351Y0101788D01*
X0064467Y0101672D02*
X0064467Y0099870D01*
X0065482Y0099870D01*
X0066830Y0098522D01*
X0066830Y0096617D01*
X0065482Y0095270D01*
X0063577Y0095270D01*
X0062230Y0096617D01*
X0062230Y0097920D01*
X0060922Y0096613D01*
X0059017Y0096613D01*
X0057670Y0097960D01*
X0057670Y0099866D01*
X0059017Y0101213D01*
X0059867Y0101213D01*
X0059867Y0101672D01*
X0061215Y0103019D01*
X0063120Y0103019D01*
X0064467Y0101672D01*
X0064467Y0100589D02*
X0095194Y0100589D01*
X0094770Y0099391D02*
X0065961Y0099391D01*
X0066830Y0098192D02*
X0094838Y0098192D01*
X0094670Y0096994D02*
X0066830Y0096994D01*
X0066008Y0095795D02*
X0094670Y0095795D01*
X0093184Y0093398D02*
X0092337Y0093398D01*
X0094231Y0088604D02*
X0109470Y0088604D01*
X0109470Y0087660D02*
X0109470Y0089566D01*
X0110817Y0090913D01*
X0112722Y0090913D01*
X0114070Y0089566D01*
X0114070Y0087660D01*
X0112722Y0086313D01*
X0110817Y0086313D01*
X0109470Y0087660D01*
X0109724Y0087406D02*
X0094370Y0087406D01*
X0094017Y0086207D02*
X0100147Y0086207D01*
X0104141Y0086207D02*
X0130340Y0086207D01*
X0130340Y0087406D02*
X0113815Y0087406D01*
X0114070Y0088604D02*
X0131445Y0088604D01*
X0134107Y0089803D02*
X0113833Y0089803D01*
X0109707Y0089803D02*
X0096094Y0089803D01*
X0092614Y0083810D02*
X0077992Y0083810D01*
X0079028Y0082612D02*
X0092170Y0082612D01*
X0092217Y0081413D02*
X0079028Y0081413D01*
X0078374Y0080215D02*
X0093415Y0080215D01*
X0094119Y0079016D02*
X0130340Y0079016D01*
X0130340Y0079625D02*
X0130340Y0077719D01*
X0131687Y0076372D01*
X0133593Y0076372D01*
X0134940Y0077719D01*
X0134940Y0079625D01*
X0133593Y0080972D01*
X0131687Y0080972D01*
X0130340Y0079625D01*
X0130930Y0080215D02*
X0095524Y0080215D01*
X0096723Y0081413D02*
X0155970Y0081413D01*
X0154371Y0080215D02*
X0134350Y0080215D01*
X0134940Y0079016D02*
X0153781Y0079016D01*
X0151922Y0077818D02*
X0134940Y0077818D01*
X0133840Y0076619D02*
X0151370Y0076619D01*
X0151370Y0075421D02*
X0095443Y0075421D01*
X0094670Y0076619D02*
X0131440Y0076619D01*
X0130340Y0077818D02*
X0094670Y0077818D01*
X0096357Y0074222D02*
X0152508Y0074222D01*
X0157281Y0076619D02*
X0157711Y0076619D01*
X0166039Y0068230D02*
X0166934Y0068230D01*
X0167238Y0069428D02*
X0181065Y0069428D01*
X0181065Y0068230D02*
X0170806Y0068230D01*
X0171170Y0067031D02*
X0175227Y0067031D01*
X0174434Y0065833D02*
X0171042Y0065833D01*
X0169844Y0064634D02*
X0174434Y0064634D01*
X0175332Y0063436D02*
X0166445Y0063436D01*
X0167370Y0064634D02*
X0167896Y0064634D01*
X0167370Y0070627D02*
X0181065Y0070627D01*
X0181065Y0071825D02*
X0167010Y0071825D01*
X0178136Y0063436D02*
X0178894Y0063436D01*
X0179715Y0059840D02*
X0114861Y0059840D01*
X0115470Y0058642D02*
X0133319Y0058642D01*
X0131898Y0057443D02*
X0115415Y0057443D01*
X0114720Y0056245D02*
X0131570Y0056245D01*
X0135221Y0058642D02*
X0181065Y0058642D01*
X0179135Y0067031D02*
X0178242Y0067031D01*
X0181065Y0087406D02*
X0160215Y0087406D01*
X0161414Y0088604D02*
X0181065Y0088604D01*
X0181065Y0089803D02*
X0161470Y0089803D01*
X0161034Y0091001D02*
X0163621Y0091001D01*
X0163230Y0091393D02*
X0164577Y0090045D01*
X0166482Y0090045D01*
X0167830Y0091393D01*
X0167830Y0092514D01*
X0168238Y0092514D01*
X0169586Y0093861D01*
X0169586Y0095766D01*
X0168238Y0097114D01*
X0166333Y0097114D01*
X0164986Y0095766D01*
X0164986Y0094645D01*
X0164577Y0094645D01*
X0163230Y0093298D01*
X0163230Y0091393D01*
X0163230Y0092200D02*
X0153444Y0092200D01*
X0153444Y0093398D02*
X0163330Y0093398D01*
X0164529Y0094597D02*
X0152645Y0094597D01*
X0152553Y0091001D02*
X0157305Y0091001D01*
X0165014Y0095795D02*
X0120805Y0095795D01*
X0120622Y0095613D02*
X0121970Y0096960D01*
X0121970Y0098866D01*
X0120622Y0100213D01*
X0118717Y0100213D01*
X0117370Y0098866D01*
X0117370Y0096960D01*
X0118717Y0095613D01*
X0120622Y0095613D01*
X0121970Y0096994D02*
X0166213Y0096994D01*
X0168358Y0096994D02*
X0181065Y0096994D01*
X0181065Y0095795D02*
X0169557Y0095795D01*
X0169586Y0094597D02*
X0181065Y0094597D01*
X0181065Y0093398D02*
X0169123Y0093398D01*
X0167830Y0092200D02*
X0181065Y0092200D01*
X0181065Y0091001D02*
X0167438Y0091001D01*
X0166270Y0099994D02*
X0164364Y0099994D01*
X0163017Y0101341D01*
X0163017Y0103247D01*
X0164364Y0104594D01*
X0166270Y0104594D01*
X0167617Y0103247D01*
X0167617Y0101341D01*
X0166270Y0099994D01*
X0166865Y0100589D02*
X0179159Y0100589D01*
X0179159Y0099391D02*
X0121445Y0099391D01*
X0121970Y0098192D02*
X0179946Y0098192D01*
X0180062Y0101788D02*
X0167617Y0101788D01*
X0167617Y0102986D02*
X0181065Y0102986D01*
X0181065Y0104185D02*
X0166679Y0104185D01*
X0163955Y0104185D02*
X0160773Y0104185D01*
X0161318Y0102986D02*
X0163017Y0102986D01*
X0163017Y0101788D02*
X0161318Y0101788D01*
X0160172Y0100589D02*
X0163769Y0100589D01*
X0160364Y0107868D02*
X0158459Y0107868D01*
X0157112Y0109215D01*
X0157112Y0111121D01*
X0158459Y0112468D01*
X0160364Y0112468D01*
X0161711Y0111121D01*
X0161711Y0109215D01*
X0160364Y0107868D01*
X0161475Y0108979D02*
X0181065Y0108979D01*
X0181065Y0107780D02*
X0089955Y0107780D01*
X0089922Y0107813D02*
X0090370Y0108260D01*
X0090370Y0110166D01*
X0089022Y0111513D01*
X0087117Y0111513D01*
X0086670Y0111066D01*
X0086222Y0111513D01*
X0084317Y0111513D01*
X0082970Y0110166D01*
X0082970Y0108260D01*
X0084317Y0106913D01*
X0085770Y0106913D01*
X0085770Y0105460D01*
X0087117Y0104113D01*
X0089022Y0104113D01*
X0090370Y0105460D01*
X0090370Y0107366D01*
X0089922Y0107813D01*
X0090370Y0108979D02*
X0157348Y0108979D01*
X0157112Y0110178D02*
X0090358Y0110178D01*
X0089159Y0111376D02*
X0149833Y0111376D01*
X0149237Y0111971D02*
X0150585Y0110624D01*
X0152490Y0110624D01*
X0153837Y0111971D01*
X0153837Y0113877D01*
X0152490Y0115224D01*
X0150585Y0115224D01*
X0149237Y0113877D01*
X0149237Y0111971D01*
X0149237Y0112575D02*
X0114058Y0112575D01*
X0113534Y0112051D02*
X0111629Y0112051D01*
X0110282Y0113398D01*
X0110282Y0115303D01*
X0111629Y0116651D01*
X0113534Y0116651D01*
X0114882Y0115303D01*
X0114882Y0113398D01*
X0113534Y0112051D01*
X0114882Y0113773D02*
X0132457Y0113773D01*
X0132070Y0114160D02*
X0133417Y0112813D01*
X0135322Y0112813D01*
X0136670Y0114160D01*
X0136670Y0116066D01*
X0135322Y0117413D01*
X0133417Y0117413D01*
X0132070Y0116066D01*
X0132070Y0114160D01*
X0132070Y0114972D02*
X0114882Y0114972D01*
X0114015Y0116170D02*
X0132174Y0116170D01*
X0133373Y0117369D02*
X0113178Y0117369D01*
X0112822Y0117013D02*
X0114170Y0118360D01*
X0114170Y0120266D01*
X0112822Y0121613D01*
X0110917Y0121613D01*
X0109570Y0120266D01*
X0109570Y0118360D01*
X0110917Y0117013D01*
X0112822Y0117013D01*
X0111148Y0116170D02*
X0092570Y0116170D01*
X0093017Y0116513D02*
X0094922Y0116513D01*
X0095370Y0116960D01*
X0095817Y0116513D01*
X0097722Y0116513D01*
X0099070Y0117860D01*
X0099070Y0119766D01*
X0099022Y0119813D01*
X0099870Y0120660D01*
X0099870Y0122566D01*
X0098522Y0123913D01*
X0096617Y0123913D01*
X0095270Y0122566D01*
X0095270Y0120766D01*
X0094922Y0121113D01*
X0093017Y0121113D01*
X0091670Y0119766D01*
X0091670Y0117866D01*
X0091222Y0118313D01*
X0090770Y0118313D01*
X0090770Y0119166D01*
X0089422Y0120513D01*
X0087517Y0120513D01*
X0086170Y0119166D01*
X0086170Y0117260D01*
X0087517Y0115913D01*
X0087970Y0115913D01*
X0087970Y0115060D01*
X0089317Y0113713D01*
X0091222Y0113713D01*
X0092570Y0115060D01*
X0092570Y0116960D01*
X0093017Y0116513D01*
X0092481Y0114972D02*
X0110282Y0114972D01*
X0110282Y0113773D02*
X0091283Y0113773D01*
X0089257Y0113773D02*
X0047207Y0113773D01*
X0047207Y0112575D02*
X0049510Y0112575D01*
X0049237Y0112302D02*
X0049237Y0110397D01*
X0050585Y0109049D01*
X0052490Y0109049D01*
X0053837Y0110397D01*
X0053837Y0112302D01*
X0052490Y0113649D01*
X0050585Y0113649D01*
X0049237Y0112302D01*
X0049237Y0111376D02*
X0047207Y0111376D01*
X0047207Y0110178D02*
X0049456Y0110178D01*
X0047207Y0108979D02*
X0082970Y0108979D01*
X0082982Y0110178D02*
X0053618Y0110178D01*
X0053837Y0111376D02*
X0084180Y0111376D01*
X0086359Y0111376D02*
X0086980Y0111376D01*
X0088059Y0114972D02*
X0047207Y0114972D01*
X0047207Y0116170D02*
X0087260Y0116170D01*
X0086170Y0117369D02*
X0047207Y0117369D01*
X0047207Y0118567D02*
X0086170Y0118567D01*
X0086770Y0119766D02*
X0066592Y0119766D01*
X0067223Y0120397D02*
X0065876Y0119049D01*
X0063971Y0119049D01*
X0062623Y0120397D01*
X0062623Y0121151D01*
X0061545Y0120073D01*
X0059640Y0120073D01*
X0058293Y0121420D01*
X0058293Y0123326D01*
X0059640Y0124673D01*
X0061545Y0124673D01*
X0062893Y0123326D01*
X0062893Y0122571D01*
X0063971Y0123649D01*
X0065876Y0123649D01*
X0067223Y0122302D01*
X0067223Y0120397D01*
X0067223Y0120964D02*
X0090166Y0120964D01*
X0090170Y0119766D02*
X0091670Y0119766D01*
X0091670Y0118567D02*
X0090770Y0118567D01*
X0092374Y0120964D02*
X0092868Y0120964D01*
X0093570Y0122163D02*
X0095270Y0122163D01*
X0095270Y0120964D02*
X0095071Y0120964D01*
X0096065Y0123361D02*
X0093570Y0123361D01*
X0093076Y0124560D02*
X0181065Y0124560D01*
X0181065Y0125758D02*
X0090570Y0125758D01*
X0090079Y0126957D02*
X0181065Y0126957D01*
X0181065Y0123361D02*
X0103674Y0123361D01*
X0103422Y0123613D02*
X0101517Y0123613D01*
X0100170Y0122266D01*
X0100170Y0120360D01*
X0101517Y0119013D01*
X0103422Y0119013D01*
X0104770Y0120360D01*
X0104770Y0122266D01*
X0103422Y0123613D01*
X0104770Y0122163D02*
X0118969Y0122163D01*
X0118740Y0121934D02*
X0118329Y0120941D01*
X0118329Y0119867D01*
X0118740Y0118875D01*
X0119499Y0118115D01*
X0120492Y0117704D01*
X0121566Y0117704D01*
X0122558Y0118115D01*
X0123318Y0118875D01*
X0123729Y0119867D01*
X0123729Y0120941D01*
X0123318Y0121934D01*
X0122558Y0122693D01*
X0121566Y0123104D01*
X0120492Y0123104D01*
X0119499Y0122693D01*
X0118740Y0121934D01*
X0118338Y0120964D02*
X0113471Y0120964D01*
X0114170Y0119766D02*
X0118371Y0119766D01*
X0119048Y0118567D02*
X0114170Y0118567D01*
X0110561Y0117369D02*
X0098578Y0117369D01*
X0099070Y0118567D02*
X0109570Y0118567D01*
X0109570Y0119766D02*
X0104175Y0119766D01*
X0104770Y0120964D02*
X0110268Y0120964D01*
X0111105Y0112575D02*
X0053565Y0112575D01*
X0047207Y0107780D02*
X0083450Y0107780D01*
X0085770Y0106582D02*
X0047207Y0106582D01*
X0047207Y0105383D02*
X0085847Y0105383D01*
X0087045Y0104185D02*
X0053414Y0104185D01*
X0053105Y0104313D02*
X0051434Y0104313D01*
X0049891Y0103674D01*
X0048709Y0102492D01*
X0048070Y0100948D01*
X0048070Y0099278D01*
X0048709Y0097734D01*
X0049891Y0096552D01*
X0051434Y0095913D01*
X0053105Y0095913D01*
X0054649Y0096552D01*
X0055830Y0097734D01*
X0056470Y0099278D01*
X0056470Y0100948D01*
X0055830Y0102492D01*
X0054649Y0103674D01*
X0053105Y0104313D01*
X0051125Y0104185D02*
X0047207Y0104185D01*
X0047207Y0102986D02*
X0049204Y0102986D01*
X0048418Y0101788D02*
X0047207Y0101788D01*
X0047207Y0100589D02*
X0048070Y0100589D01*
X0048070Y0099391D02*
X0047207Y0099391D01*
X0047207Y0098192D02*
X0048519Y0098192D01*
X0049449Y0096994D02*
X0047207Y0096994D01*
X0047207Y0095795D02*
X0063051Y0095795D01*
X0062230Y0096994D02*
X0061303Y0096994D01*
X0058636Y0096994D02*
X0055090Y0096994D01*
X0056020Y0098192D02*
X0057670Y0098192D01*
X0057670Y0099391D02*
X0056470Y0099391D01*
X0056470Y0100589D02*
X0058394Y0100589D01*
X0059983Y0101788D02*
X0056122Y0101788D01*
X0055336Y0102986D02*
X0061182Y0102986D01*
X0063153Y0102986D02*
X0153344Y0102986D01*
X0153617Y0102713D02*
X0155522Y0102713D01*
X0156870Y0104060D01*
X0156870Y0105966D01*
X0155522Y0107313D01*
X0153617Y0107313D01*
X0152270Y0105966D01*
X0152270Y0104060D01*
X0153617Y0102713D01*
X0152270Y0104185D02*
X0089094Y0104185D01*
X0090293Y0105383D02*
X0152270Y0105383D01*
X0152886Y0106582D02*
X0090370Y0106582D01*
X0098946Y0100589D02*
X0098994Y0100589D01*
X0099270Y0096994D02*
X0099836Y0096994D01*
X0090123Y0086207D02*
X0066028Y0086207D01*
X0061920Y0083810D02*
X0053420Y0083810D01*
X0053570Y0085009D02*
X0061470Y0085009D01*
X0061511Y0086207D02*
X0053228Y0086207D01*
X0052096Y0082547D02*
X0050191Y0082547D01*
X0048844Y0081200D01*
X0048844Y0079294D01*
X0050191Y0077947D01*
X0052096Y0077947D01*
X0053444Y0079294D01*
X0053444Y0081200D01*
X0052096Y0082547D01*
X0053230Y0081413D02*
X0074428Y0081413D01*
X0075082Y0080215D02*
X0067027Y0080215D01*
X0067617Y0079625D02*
X0066270Y0080972D01*
X0064364Y0080972D01*
X0063017Y0079625D01*
X0063017Y0077719D01*
X0063520Y0077216D01*
X0063070Y0076766D01*
X0063070Y0074860D01*
X0064417Y0073513D01*
X0066322Y0073513D01*
X0066870Y0074060D01*
X0067317Y0073613D01*
X0069222Y0073613D01*
X0070570Y0074960D01*
X0070570Y0076866D01*
X0069222Y0078213D01*
X0067617Y0078213D01*
X0067617Y0079625D01*
X0067617Y0079016D02*
X0076188Y0079016D01*
X0075615Y0077818D02*
X0069618Y0077818D01*
X0070570Y0076619D02*
X0075615Y0076619D01*
X0076733Y0075421D02*
X0070570Y0075421D01*
X0069832Y0074222D02*
X0076906Y0074222D01*
X0076963Y0074279D02*
X0075615Y0072932D01*
X0075615Y0071026D01*
X0076963Y0069679D01*
X0078868Y0069679D01*
X0080215Y0071026D01*
X0080215Y0072932D01*
X0078868Y0074279D01*
X0076963Y0074279D01*
X0075707Y0073024D02*
X0057381Y0073024D01*
X0057381Y0072995D02*
X0056761Y0072375D01*
X0057070Y0072066D01*
X0057070Y0070160D01*
X0055722Y0068813D01*
X0055722Y0068813D01*
X0056670Y0067866D01*
X0056670Y0065960D01*
X0055322Y0064613D01*
X0053837Y0064613D01*
X0053837Y0064334D01*
X0052490Y0062986D01*
X0050585Y0062986D01*
X0049237Y0064334D01*
X0049237Y0066239D01*
X0050585Y0067586D01*
X0052070Y0067586D01*
X0052070Y0067866D01*
X0053417Y0069213D01*
X0053417Y0069213D01*
X0052470Y0070160D01*
X0052470Y0072066D01*
X0053090Y0072686D01*
X0052781Y0072995D01*
X0052781Y0074900D01*
X0054128Y0076248D01*
X0056033Y0076248D01*
X0057381Y0074900D01*
X0057381Y0072995D01*
X0057070Y0071825D02*
X0075615Y0071825D01*
X0076015Y0070627D02*
X0057070Y0070627D01*
X0056338Y0069428D02*
X0084470Y0069428D01*
X0084224Y0070060D02*
X0085571Y0071408D01*
X0085571Y0073313D01*
X0084224Y0074660D01*
X0082319Y0074660D01*
X0080971Y0073313D01*
X0080971Y0071408D01*
X0082319Y0070060D01*
X0084224Y0070060D01*
X0084790Y0070627D02*
X0085531Y0070627D01*
X0085571Y0071825D02*
X0089005Y0071825D01*
X0088770Y0073024D02*
X0085571Y0073024D01*
X0084662Y0074222D02*
X0089026Y0074222D01*
X0091209Y0075421D02*
X0079098Y0075421D01*
X0078925Y0074222D02*
X0081881Y0074222D01*
X0080971Y0073024D02*
X0080124Y0073024D01*
X0080215Y0071825D02*
X0080971Y0071825D01*
X0081752Y0070627D02*
X0079816Y0070627D01*
X0080215Y0076619D02*
X0090070Y0076619D01*
X0090070Y0077818D02*
X0080215Y0077818D01*
X0079643Y0079016D02*
X0090620Y0079016D01*
X0084470Y0068230D02*
X0056306Y0068230D01*
X0056670Y0067031D02*
X0085099Y0067031D01*
X0085852Y0058642D02*
X0071277Y0058642D01*
X0079152Y0049053D02*
X0052170Y0049053D01*
X0052170Y0047855D02*
X0079717Y0047855D01*
X0067617Y0043061D02*
X0120399Y0043061D01*
X0120740Y0043402D02*
X0119981Y0042642D01*
X0119570Y0041650D01*
X0119570Y0040576D01*
X0119981Y0039584D01*
X0120740Y0038824D01*
X0121733Y0038413D01*
X0122807Y0038413D01*
X0123799Y0038824D01*
X0124559Y0039584D01*
X0124970Y0040576D01*
X0124970Y0041650D01*
X0124559Y0042642D01*
X0123799Y0043402D01*
X0122807Y0043813D01*
X0121733Y0043813D01*
X0120740Y0043402D01*
X0119658Y0041862D02*
X0067193Y0041862D01*
X0063909Y0035292D02*
X0062917Y0035703D01*
X0061843Y0035703D01*
X0060851Y0035292D01*
X0060091Y0034532D01*
X0059680Y0033540D01*
X0059680Y0032466D01*
X0060091Y0031473D01*
X0060851Y0030714D01*
X0061843Y0030303D01*
X0062917Y0030303D01*
X0063909Y0030714D01*
X0064669Y0031473D01*
X0065080Y0032466D01*
X0065080Y0033540D01*
X0064669Y0034532D01*
X0063909Y0035292D01*
X0064530Y0034671D02*
X0073559Y0034671D01*
X0073077Y0033473D02*
X0065080Y0033473D01*
X0065001Y0032274D02*
X0072870Y0032274D01*
X0073154Y0031076D02*
X0064271Y0031076D01*
X0060489Y0031076D02*
X0052460Y0031076D01*
X0052093Y0032274D02*
X0059759Y0032274D01*
X0059680Y0033473D02*
X0052263Y0033473D01*
X0051941Y0034671D02*
X0060230Y0034671D01*
X0057570Y0039465D02*
X0120099Y0039465D01*
X0119570Y0040664D02*
X0056572Y0040664D01*
X0049480Y0031076D02*
X0047207Y0031076D01*
X0047207Y0029877D02*
X0048670Y0029877D01*
X0048670Y0028679D02*
X0047207Y0028679D01*
X0047207Y0027480D02*
X0049550Y0027480D01*
X0050452Y0025083D02*
X0084987Y0025083D01*
X0086186Y0026282D02*
X0047207Y0026282D01*
X0050688Y0021488D02*
X0050742Y0021488D01*
X0050820Y0009503D02*
X0052107Y0009503D01*
X0054033Y0009503D02*
X0080007Y0009503D01*
X0078808Y0008304D02*
X0055231Y0008304D01*
X0055370Y0007106D02*
X0062910Y0007106D01*
X0061970Y0005907D02*
X0055016Y0005907D01*
X0065630Y0007106D02*
X0078670Y0007106D01*
X0079023Y0005907D02*
X0066570Y0005907D01*
X0081933Y0009503D02*
X0091507Y0009503D01*
X0091817Y0009813D02*
X0090470Y0008466D01*
X0090470Y0006560D01*
X0091817Y0005213D01*
X0093722Y0005213D01*
X0095070Y0006560D01*
X0095070Y0008466D01*
X0093722Y0009813D01*
X0091817Y0009813D01*
X0090470Y0008304D02*
X0083131Y0008304D01*
X0083270Y0007106D02*
X0090470Y0007106D01*
X0091123Y0005907D02*
X0082916Y0005907D01*
X0094416Y0005907D02*
X0102723Y0005907D01*
X0102170Y0007106D02*
X0095070Y0007106D01*
X0095070Y0008304D02*
X0102170Y0008304D01*
X0103307Y0009503D02*
X0094033Y0009503D01*
X0102144Y0020289D02*
X0120275Y0020289D01*
X0119606Y0021488D02*
X0102470Y0021488D01*
X0102248Y0022686D02*
X0119585Y0022686D01*
X0120223Y0023885D02*
X0101316Y0023885D01*
X0106770Y0007106D02*
X0127710Y0007106D01*
X0126770Y0005907D02*
X0106216Y0005907D01*
X0124441Y0039465D02*
X0136665Y0039465D01*
X0135470Y0040664D02*
X0124970Y0040664D01*
X0124882Y0041862D02*
X0135470Y0041862D01*
X0135965Y0043061D02*
X0124140Y0043061D01*
X0138744Y0046656D02*
X0092395Y0046656D01*
X0093671Y0047855D02*
X0138570Y0047855D01*
X0138944Y0049053D02*
X0093970Y0049053D01*
X0104255Y0083810D02*
X0132670Y0083810D01*
X0130924Y0085009D02*
X0104444Y0085009D01*
X0115405Y0095795D02*
X0118535Y0095795D01*
X0117370Y0096994D02*
X0116570Y0096994D01*
X0116570Y0098192D02*
X0117370Y0098192D01*
X0117895Y0099391D02*
X0116045Y0099391D01*
X0123010Y0118567D02*
X0177171Y0118567D01*
X0176870Y0117369D02*
X0171567Y0117369D01*
X0171322Y0117613D02*
X0169417Y0117613D01*
X0168070Y0116266D01*
X0168070Y0114360D01*
X0169417Y0113013D01*
X0171322Y0113013D01*
X0172670Y0114360D01*
X0172670Y0116266D01*
X0171322Y0117613D01*
X0172670Y0116170D02*
X0177060Y0116170D01*
X0181065Y0114972D02*
X0172670Y0114972D01*
X0172083Y0113773D02*
X0181065Y0113773D01*
X0181065Y0112575D02*
X0153837Y0112575D01*
X0153837Y0113773D02*
X0168657Y0113773D01*
X0168070Y0114972D02*
X0152743Y0114972D01*
X0150332Y0114972D02*
X0136670Y0114972D01*
X0136565Y0116170D02*
X0168070Y0116170D01*
X0169173Y0117369D02*
X0135367Y0117369D01*
X0136283Y0113773D02*
X0149237Y0113773D01*
X0153242Y0111376D02*
X0157367Y0111376D01*
X0156253Y0106582D02*
X0181065Y0106582D01*
X0181065Y0105383D02*
X0156870Y0105383D01*
X0156870Y0104185D02*
X0157262Y0104185D01*
X0156718Y0102986D02*
X0155796Y0102986D01*
X0161711Y0110178D02*
X0181065Y0110178D01*
X0181065Y0111376D02*
X0161456Y0111376D01*
X0181065Y0119766D02*
X0123687Y0119766D01*
X0123719Y0120964D02*
X0181065Y0120964D01*
X0181065Y0122163D02*
X0123089Y0122163D01*
X0101265Y0123361D02*
X0099074Y0123361D01*
X0099870Y0122163D02*
X0100170Y0122163D01*
X0100170Y0120964D02*
X0099870Y0120964D01*
X0099070Y0119766D02*
X0100764Y0119766D01*
X0088970Y0122163D02*
X0067223Y0122163D01*
X0066164Y0123361D02*
X0087169Y0123361D01*
X0085970Y0124560D02*
X0061658Y0124560D01*
X0062857Y0123361D02*
X0063683Y0123361D01*
X0062623Y0120964D02*
X0062437Y0120964D01*
X0063254Y0119766D02*
X0047207Y0119766D01*
X0047207Y0120964D02*
X0058749Y0120964D01*
X0058293Y0122163D02*
X0047207Y0122163D01*
X0047207Y0123361D02*
X0058328Y0123361D01*
X0059527Y0124560D02*
X0047207Y0124560D01*
X0047207Y0125758D02*
X0085970Y0125758D01*
X0086461Y0126957D02*
X0047207Y0126957D01*
X0076039Y0094597D02*
X0080345Y0094597D01*
X0079552Y0093398D02*
X0076670Y0093398D01*
X0076670Y0092200D02*
X0079552Y0092200D01*
X0080450Y0091001D02*
X0075611Y0091001D01*
X0063607Y0080215D02*
X0053444Y0080215D01*
X0053166Y0079016D02*
X0063017Y0079016D01*
X0063017Y0077818D02*
X0061018Y0077818D01*
X0061470Y0077366D02*
X0060122Y0078713D01*
X0058217Y0078713D01*
X0056870Y0077366D01*
X0056870Y0075460D01*
X0058217Y0074113D01*
X0060122Y0074113D01*
X0061470Y0075460D01*
X0061470Y0077366D01*
X0061470Y0076619D02*
X0063070Y0076619D01*
X0063070Y0075421D02*
X0061430Y0075421D01*
X0060232Y0074222D02*
X0063708Y0074222D01*
X0058108Y0074222D02*
X0057381Y0074222D01*
X0056909Y0075421D02*
X0056860Y0075421D01*
X0056870Y0076619D02*
X0047207Y0076619D01*
X0047207Y0075421D02*
X0053301Y0075421D01*
X0052781Y0074222D02*
X0049913Y0074222D01*
X0050470Y0073024D02*
X0052781Y0073024D01*
X0052470Y0071825D02*
X0050470Y0071825D01*
X0049336Y0070627D02*
X0052470Y0070627D01*
X0053202Y0069428D02*
X0047207Y0069428D01*
X0047207Y0068230D02*
X0052434Y0068230D01*
X0050030Y0067031D02*
X0047207Y0067031D01*
X0047207Y0065833D02*
X0049237Y0065833D01*
X0049237Y0064634D02*
X0047207Y0064634D01*
X0047207Y0063436D02*
X0050135Y0063436D01*
X0047207Y0062237D02*
X0056393Y0062237D01*
X0056270Y0063436D02*
X0052940Y0063436D01*
X0055344Y0064634D02*
X0056638Y0064634D01*
X0056542Y0065833D02*
X0145300Y0065833D01*
X0057592Y0061039D02*
X0047207Y0061039D01*
X0047207Y0059840D02*
X0055744Y0059840D01*
X0054870Y0058642D02*
X0047207Y0058642D01*
X0047207Y0057443D02*
X0054870Y0057443D01*
X0055686Y0056245D02*
X0047207Y0056245D01*
X0047207Y0055046D02*
X0056150Y0055046D01*
X0052594Y0053847D02*
X0047207Y0053847D01*
X0047207Y0052649D02*
X0051600Y0052649D01*
X0047207Y0077818D02*
X0057322Y0077818D01*
X0049122Y0079016D02*
X0047207Y0079016D01*
X0047207Y0080215D02*
X0048844Y0080215D01*
X0049058Y0081413D02*
X0047207Y0081413D01*
D15*
X0051270Y0121113D02*
X0051270Y0165113D01*
X0055270Y0169113D01*
X0087270Y0169113D01*
X0090309Y0172152D01*
X0090270Y0172192D01*
X0090270Y0175313D01*
X0095309Y0180352D01*
X0095309Y0187152D01*
D16*
X0062270Y0009713D03*
D17*
X0058570Y0212013D02*
X0056970Y0213613D01*
X0058570Y0212013D02*
X0071370Y0212013D01*
X0072170Y0212813D01*
X0085470Y0212813D01*
M02*
