G75*
%MOIN*%
%OFA0B0*%
%FSLAX25Y25*%
%IPPOS*%
%LPD*%
%AMOC8*
5,1,8,0,0,1.08239X$1,22.5*
%
%ADD10C,0.00800*%
%ADD11C,0.00600*%
%ADD12R,0.02953X0.17913*%
%ADD13R,0.17913X0.02953*%
%ADD14C,0.01181*%
%ADD15R,0.01181X0.03642*%
%ADD16R,0.03642X0.01181*%
%ADD17C,0.01378*%
%ADD18R,0.01378X0.04724*%
%ADD19R,0.02362X0.02362*%
%ADD20C,0.01102*%
%ADD21C,0.00669*%
%ADD22R,0.01181X0.01181*%
%ADD23R,0.00984X0.02657*%
%ADD24R,0.02657X0.00984*%
%ADD25R,0.03150X0.03150*%
%ADD26C,0.00984*%
%ADD27C,0.02362*%
%ADD28R,0.03543X0.02756*%
%ADD29R,0.00984X0.00984*%
%ADD30R,0.02756X0.03543*%
%ADD31R,0.05118X0.08661*%
%ADD32R,0.01575X0.00787*%
%ADD33R,0.00787X0.01575*%
%ADD34R,0.11417X0.11417*%
%ADD35C,0.02400*%
%ADD36C,0.01600*%
%ADD37C,0.02200*%
%ADD38C,0.01200*%
%ADD39C,0.02400*%
%ADD40C,0.01000*%
%ADD41C,0.03000*%
%ADD42OC8,0.06000*%
%ADD43C,0.00500*%
%ADD44C,0.03400*%
D10*
X0045586Y0090552D02*
X0047988Y0090552D01*
X0047187Y0091353D01*
X0047988Y0092154D01*
X0045586Y0092154D01*
X0046387Y0093899D02*
X0046387Y0094700D01*
X0046787Y0095100D01*
X0047988Y0095100D01*
X0047988Y0093899D01*
X0047588Y0093499D01*
X0047187Y0093899D01*
X0047187Y0095100D01*
X0047187Y0096445D02*
X0046387Y0097246D01*
X0046387Y0097646D01*
X0046387Y0096445D02*
X0047988Y0096445D01*
X0047988Y0098901D02*
X0047988Y0100102D01*
X0047588Y0100502D01*
X0046787Y0100502D01*
X0046387Y0100102D01*
X0046387Y0098901D01*
X0048789Y0098901D01*
X0047988Y0104794D02*
X0046387Y0104794D01*
X0047187Y0104794D02*
X0046387Y0105595D01*
X0046387Y0105995D01*
X0046787Y0107249D02*
X0046387Y0107650D01*
X0046387Y0108450D01*
X0046787Y0108851D01*
X0047187Y0108851D01*
X0047187Y0107249D01*
X0046787Y0107249D02*
X0047588Y0107249D01*
X0047988Y0107650D01*
X0047988Y0108450D01*
X0046387Y0110196D02*
X0047988Y0110996D01*
X0046387Y0111797D01*
X0046387Y0116089D02*
X0045586Y0116890D01*
X0046387Y0117690D01*
X0047988Y0117690D01*
X0046787Y0117690D02*
X0046787Y0116089D01*
X0046387Y0116089D02*
X0047988Y0116089D01*
X0048789Y0119035D02*
X0047988Y0119836D01*
X0047988Y0119436D01*
X0047588Y0119436D01*
X0047588Y0119836D01*
X0047988Y0119836D01*
X0045586Y0123946D02*
X0045586Y0125548D01*
X0045586Y0124747D02*
X0047988Y0124747D01*
X0047588Y0126893D02*
X0046787Y0126893D01*
X0046387Y0127293D01*
X0046387Y0128094D01*
X0046787Y0128494D01*
X0047588Y0128494D01*
X0047988Y0128094D01*
X0047988Y0127293D01*
X0047588Y0126893D01*
X0047988Y0129839D02*
X0047988Y0131040D01*
X0047588Y0131441D01*
X0046787Y0131441D01*
X0046387Y0131040D01*
X0046387Y0129839D01*
X0048789Y0129839D01*
X0147998Y0083613D02*
X0150951Y0083613D01*
X0150951Y0088967D01*
D11*
X0046370Y0010413D02*
X0046070Y0010713D01*
X0046370Y0010413D02*
X0046971Y0010413D01*
X0047271Y0010713D01*
X0047271Y0011013D01*
X0046971Y0011314D01*
X0046370Y0011314D01*
X0046070Y0011614D01*
X0046070Y0011914D01*
X0046370Y0012215D01*
X0046971Y0012215D01*
X0047271Y0011914D01*
X0048280Y0011914D02*
X0048280Y0011614D01*
X0048580Y0011314D01*
X0049180Y0011314D01*
X0049481Y0011013D01*
X0049481Y0010713D01*
X0049180Y0010413D01*
X0048580Y0010413D01*
X0048280Y0010713D01*
X0048280Y0011914D02*
X0048580Y0012215D01*
X0049180Y0012215D01*
X0049481Y0011914D01*
X0050490Y0011914D02*
X0050490Y0011614D01*
X0050790Y0011314D01*
X0051390Y0011314D01*
X0051691Y0011013D01*
X0051691Y0010713D01*
X0051390Y0010413D01*
X0050790Y0010413D01*
X0050490Y0010713D01*
X0050490Y0011914D02*
X0050790Y0012215D01*
X0051390Y0012215D01*
X0051691Y0011914D01*
X0052699Y0012215D02*
X0052699Y0010413D01*
X0052699Y0011013D02*
X0053600Y0011013D01*
X0053900Y0011314D01*
X0053900Y0011914D01*
X0053600Y0012215D01*
X0052699Y0012215D01*
X0054909Y0012215D02*
X0054909Y0010413D01*
X0056110Y0010413D01*
X0057720Y0010413D02*
X0057720Y0011314D01*
X0058320Y0011914D01*
X0058320Y0012215D01*
X0057720Y0011314D02*
X0057119Y0011914D01*
X0057119Y0012215D01*
X0056890Y0093413D02*
X0057191Y0093713D01*
X0057191Y0094914D01*
X0056890Y0095215D01*
X0056290Y0095215D01*
X0055990Y0094914D01*
X0055990Y0093713D01*
X0056290Y0093413D01*
X0056890Y0093413D01*
X0058199Y0093713D02*
X0058199Y0094914D01*
X0058500Y0095215D01*
X0059100Y0095215D01*
X0059400Y0094914D01*
X0059400Y0093713D01*
X0059100Y0093413D01*
X0058500Y0093413D01*
X0058199Y0093713D01*
X0060409Y0093713D02*
X0060710Y0093413D01*
X0061310Y0093413D01*
X0061610Y0093713D01*
X0061610Y0094013D01*
X0061310Y0094314D01*
X0060710Y0094314D01*
X0060409Y0094614D01*
X0060409Y0094914D01*
X0060710Y0095215D01*
X0061310Y0095215D01*
X0061610Y0094914D01*
X0062619Y0095215D02*
X0063820Y0095215D01*
X0063220Y0095215D02*
X0063220Y0093413D01*
X0064829Y0093413D02*
X0065430Y0093413D01*
X0065129Y0093413D02*
X0065129Y0095215D01*
X0064829Y0095215D02*
X0065430Y0095215D01*
X0066302Y0095215D02*
X0067503Y0093413D01*
X0067503Y0095215D01*
X0066302Y0095215D02*
X0066302Y0093413D01*
X0054981Y0093713D02*
X0054680Y0093413D01*
X0053780Y0093413D01*
X0053780Y0095215D01*
X0054680Y0095215D01*
X0054981Y0094914D01*
X0054981Y0094614D01*
X0054680Y0094314D01*
X0053780Y0094314D01*
X0054680Y0094314D02*
X0054981Y0094013D01*
X0054981Y0093713D01*
X0052771Y0094013D02*
X0052771Y0095215D01*
X0051570Y0095215D02*
X0051570Y0094013D01*
X0052170Y0093413D01*
X0052771Y0094013D01*
X0173070Y0106013D02*
X0173670Y0105413D01*
X0174271Y0106013D01*
X0174271Y0107215D01*
X0175280Y0107215D02*
X0175280Y0105413D01*
X0176180Y0105413D01*
X0176481Y0105713D01*
X0176481Y0106013D01*
X0176180Y0106314D01*
X0175280Y0106314D01*
X0176180Y0106314D02*
X0176481Y0106614D01*
X0176481Y0106914D01*
X0176180Y0107215D01*
X0175280Y0107215D01*
X0173070Y0107215D02*
X0173070Y0106013D01*
X0177490Y0106314D02*
X0178691Y0106314D01*
X0178691Y0106614D02*
X0178691Y0105413D01*
X0178691Y0106614D02*
X0178090Y0107215D01*
X0177490Y0106614D01*
X0177490Y0105413D01*
X0179699Y0107215D02*
X0180900Y0107215D01*
X0180300Y0107215D02*
X0180300Y0105413D01*
X0182510Y0105413D02*
X0182510Y0107215D01*
X0183110Y0107215D02*
X0181909Y0107215D01*
X0175670Y0049034D02*
X0174468Y0049034D01*
X0174168Y0048734D01*
X0174168Y0047833D01*
X0175970Y0047833D01*
X0175970Y0048734D01*
X0175670Y0049034D01*
X0175970Y0046824D02*
X0174168Y0046824D01*
X0174168Y0045623D02*
X0175970Y0046824D01*
X0175970Y0045623D02*
X0174168Y0045623D01*
X0174468Y0044614D02*
X0174168Y0044314D01*
X0174168Y0043713D01*
X0174468Y0043413D01*
X0175670Y0043413D01*
X0175970Y0043713D01*
X0175970Y0044314D01*
X0175670Y0044614D01*
X0175069Y0044614D01*
X0175069Y0044013D01*
D12*
X0138861Y0059439D03*
X0134515Y0038259D03*
X0116996Y0038259D03*
X0104608Y0038651D03*
X0087089Y0038651D03*
X0094470Y0019087D03*
X0111989Y0019087D03*
X0116911Y0019283D03*
X0134430Y0019283D03*
X0121341Y0059439D03*
X0117501Y0059637D03*
X0099982Y0059637D03*
X0098232Y0080976D03*
X0115752Y0080976D03*
X0107915Y0102354D03*
X0125435Y0102354D03*
D13*
X0129628Y0091033D03*
X0129628Y0073513D03*
D14*
X0058930Y0046164D03*
X0058930Y0042227D03*
X0055781Y0042227D03*
X0052631Y0042227D03*
X0052631Y0046164D03*
X0055781Y0046164D03*
X0058930Y0038290D03*
X0052631Y0038290D03*
X0054132Y0024613D03*
X0050982Y0024613D03*
X0050982Y0020676D03*
X0054132Y0020676D03*
X0057282Y0020676D03*
X0057282Y0024613D03*
X0057282Y0016739D03*
X0054132Y0016739D03*
X0050982Y0016739D03*
D15*
X0081762Y0076408D03*
X0083730Y0076408D03*
X0085699Y0076408D03*
X0087667Y0076408D03*
X0089636Y0076408D03*
X0089734Y0087235D03*
X0087766Y0087235D03*
X0085797Y0087235D03*
X0083829Y0087235D03*
X0081860Y0087235D03*
D16*
X0080581Y0083790D03*
X0080581Y0081822D03*
X0080581Y0079853D03*
X0090915Y0079853D03*
X0090915Y0081822D03*
X0090915Y0083790D03*
D17*
X0062045Y0103830D02*
X0062045Y0107176D01*
X0059486Y0107176D02*
X0059486Y0103830D01*
X0059486Y0109735D02*
X0059486Y0113081D01*
X0056927Y0113081D02*
X0056927Y0109735D01*
X0062045Y0109735D02*
X0062045Y0113081D01*
D18*
X0056927Y0105503D03*
D19*
X0147175Y0034377D03*
X0151112Y0030833D03*
X0147175Y0027290D03*
X0151112Y0023747D03*
X0147175Y0020204D03*
X0151112Y0016660D03*
X0147175Y0013117D03*
X0150719Y0008196D03*
X0154262Y0012133D03*
X0157805Y0008196D03*
X0161349Y0012133D03*
X0164892Y0008196D03*
X0168435Y0013117D03*
X0164498Y0016660D03*
X0168435Y0020204D03*
X0164498Y0023747D03*
X0168435Y0027290D03*
X0164498Y0030833D03*
X0168435Y0034377D03*
X0164892Y0039298D03*
X0161349Y0035361D03*
X0157805Y0039298D03*
X0154262Y0035361D03*
X0150719Y0039298D03*
X0171978Y0039298D03*
X0179065Y0039298D03*
X0179065Y0008196D03*
X0171978Y0008196D03*
D20*
X0150951Y0077648D02*
X0150951Y0078948D01*
X0148982Y0078948D02*
X0148982Y0077648D01*
X0147014Y0077648D02*
X0147014Y0078948D01*
X0145045Y0078948D02*
X0145045Y0077648D01*
X0143294Y0080660D02*
X0141994Y0080660D01*
X0141994Y0082629D02*
X0143294Y0082629D01*
X0143294Y0084597D02*
X0141994Y0084597D01*
X0141994Y0086566D02*
X0143294Y0086566D01*
X0145045Y0088317D02*
X0145045Y0089617D01*
X0147014Y0089617D02*
X0147014Y0088317D01*
X0148982Y0088317D02*
X0148982Y0089617D01*
X0150951Y0089617D02*
X0150951Y0088317D01*
X0152663Y0086566D02*
X0153963Y0086566D01*
X0153963Y0084597D02*
X0152663Y0084597D01*
X0152663Y0082629D02*
X0153963Y0082629D01*
X0153963Y0080660D02*
X0152663Y0080660D01*
D21*
X0151010Y0086625D02*
X0144986Y0086625D01*
X0151010Y0086625D02*
X0151010Y0080601D01*
X0144986Y0080601D01*
X0144986Y0086625D01*
X0144986Y0081269D02*
X0151010Y0081269D01*
X0151010Y0081937D02*
X0144986Y0081937D01*
X0144986Y0082605D02*
X0151010Y0082605D01*
X0151010Y0083273D02*
X0144986Y0083273D01*
X0144986Y0083941D02*
X0151010Y0083941D01*
X0151010Y0084609D02*
X0144986Y0084609D01*
X0144986Y0085277D02*
X0151010Y0085277D01*
X0151010Y0085945D02*
X0144986Y0085945D01*
X0144986Y0086613D02*
X0151010Y0086613D01*
D22*
X0152919Y0088613D03*
X0142959Y0088613D03*
X0142959Y0078652D03*
X0152919Y0078652D03*
D23*
X0084502Y0068692D03*
X0082534Y0068692D03*
X0080565Y0068692D03*
X0078597Y0068692D03*
X0076628Y0068692D03*
X0074660Y0068692D03*
X0072691Y0068692D03*
X0072691Y0058849D03*
X0074660Y0058849D03*
X0076628Y0058849D03*
X0078597Y0058849D03*
X0080565Y0058849D03*
X0082534Y0058849D03*
X0084502Y0058849D03*
D24*
X0086530Y0061802D03*
X0086530Y0063770D03*
X0086530Y0065739D03*
X0070624Y0065739D03*
X0070624Y0063770D03*
X0070624Y0061802D03*
D25*
X0079037Y0115169D03*
X0079037Y0120521D03*
X0079037Y0125573D03*
X0084943Y0125573D03*
X0084943Y0120521D03*
X0084943Y0115169D03*
X0125215Y0117420D03*
X0131120Y0117420D03*
D26*
X0058522Y0032908D03*
X0058522Y0030940D03*
X0056553Y0030940D03*
X0056553Y0032908D03*
X0054585Y0032908D03*
X0054585Y0030940D03*
X0052616Y0030940D03*
X0052616Y0032908D03*
D27*
X0061742Y0052467D03*
X0061805Y0058373D03*
X0061734Y0063987D03*
X0061805Y0075227D03*
X0061742Y0083070D03*
X0047388Y0083050D03*
X0047238Y0075467D03*
X0047238Y0069893D03*
X0047238Y0064074D03*
X0047238Y0058499D03*
X0047238Y0052924D03*
X0055301Y0005294D03*
X0067160Y0005467D03*
X0078923Y0005176D03*
X0090734Y0005452D03*
X0102356Y0005286D03*
X0114262Y0005286D03*
X0126120Y0005207D03*
X0141742Y0119396D03*
X0149679Y0119396D03*
X0157616Y0119396D03*
X0165364Y0119333D03*
X0173301Y0119333D03*
X0181238Y0119333D03*
D28*
X0161380Y0097877D03*
X0161380Y0092759D03*
X0156349Y0092759D03*
X0156349Y0097877D03*
X0172397Y0066945D03*
X0172397Y0061827D03*
X0172467Y0057515D03*
X0172467Y0052396D03*
X0141537Y0043070D03*
X0141537Y0037952D03*
X0141459Y0030609D03*
X0141459Y0025491D03*
X0095030Y0055129D03*
X0095030Y0060247D03*
X0091380Y0064814D03*
X0091380Y0069932D03*
X0088955Y0096165D03*
X0088955Y0101283D03*
X0081955Y0101283D03*
X0081955Y0096165D03*
X0056451Y0117019D03*
X0056451Y0122137D03*
X0051419Y0122137D03*
X0051419Y0117019D03*
X0061270Y0166554D03*
X0061270Y0171672D03*
X0067270Y0171672D03*
X0067270Y0166554D03*
X0073270Y0166554D03*
X0073270Y0171672D03*
X0079270Y0171672D03*
X0079270Y0166554D03*
X0085270Y0166554D03*
X0085270Y0171672D03*
X0091270Y0171672D03*
X0091270Y0166554D03*
X0095270Y0178554D03*
X0095270Y0183672D03*
X0101270Y0183672D03*
X0101270Y0178554D03*
X0095270Y0204554D03*
X0095270Y0209672D03*
X0089270Y0209672D03*
X0089270Y0204554D03*
X0083270Y0204554D03*
X0083270Y0209672D03*
X0077270Y0209672D03*
X0077270Y0204554D03*
X0071270Y0204554D03*
X0071270Y0209672D03*
X0065270Y0209672D03*
X0065270Y0204554D03*
X0119270Y0204554D03*
X0119270Y0209672D03*
D29*
X0176766Y0061688D03*
X0178734Y0061688D03*
X0176766Y0059719D03*
X0176766Y0057751D03*
X0178734Y0057751D03*
D30*
X0129829Y0165113D03*
X0124711Y0165113D03*
X0122711Y0179113D03*
X0127829Y0179113D03*
X0116429Y0179113D03*
X0111311Y0179113D03*
X0074049Y0125585D03*
X0068931Y0125585D03*
X0068931Y0120396D03*
X0068931Y0115207D03*
X0074049Y0115207D03*
X0074049Y0120396D03*
X0055829Y0173113D03*
X0050711Y0173113D03*
X0050711Y0179113D03*
X0055829Y0179113D03*
X0055829Y0185113D03*
X0050711Y0185113D03*
X0050711Y0191113D03*
X0055829Y0191113D03*
X0055829Y0197113D03*
X0050711Y0197113D03*
X0050711Y0203113D03*
X0055829Y0203113D03*
D31*
X0111270Y0189113D03*
X0127805Y0189113D03*
D32*
X0084553Y0188129D03*
X0084553Y0190097D03*
X0084553Y0192066D03*
X0084553Y0194034D03*
X0084553Y0186160D03*
X0084553Y0184192D03*
X0069986Y0184192D03*
X0069986Y0186160D03*
X0069986Y0188129D03*
X0069986Y0190097D03*
X0069986Y0192066D03*
X0069986Y0194034D03*
D33*
X0072349Y0196396D03*
X0074317Y0196396D03*
X0076286Y0196396D03*
X0078254Y0196396D03*
X0080223Y0196396D03*
X0082191Y0196396D03*
X0082191Y0181830D03*
X0080223Y0181830D03*
X0078254Y0181830D03*
X0076286Y0181830D03*
X0074317Y0181830D03*
X0072349Y0181830D03*
D34*
X0077270Y0189113D03*
D35*
X0095270Y0187113D02*
X0095270Y0183672D01*
X0101270Y0183672D01*
X0101270Y0178554D02*
X0095270Y0178554D01*
X0095270Y0174513D01*
X0121029Y0123160D02*
X0121029Y0120404D01*
X0121029Y0123160D02*
X0131120Y0123160D01*
X0131120Y0117420D01*
X0125215Y0117420D02*
X0125215Y0102354D01*
X0125435Y0102354D01*
X0129628Y0091033D02*
X0129628Y0080976D01*
X0115752Y0080976D01*
X0107915Y0080976D02*
X0107915Y0102354D01*
X0088955Y0101283D02*
X0081955Y0101283D01*
X0081955Y0096165D02*
X0088955Y0096165D01*
X0098232Y0080976D02*
X0107915Y0080976D01*
X0099982Y0059637D02*
X0099982Y0038651D01*
X0087089Y0038651D01*
X0104608Y0038651D02*
X0116996Y0038651D01*
X0116996Y0038259D01*
X0134515Y0038259D02*
X0134515Y0019283D01*
X0134430Y0019283D01*
X0141459Y0030609D02*
X0141537Y0030609D01*
X0116911Y0019283D02*
X0116911Y0019087D01*
X0111989Y0019087D01*
X0121341Y0059439D02*
X0121341Y0059637D01*
X0117501Y0059637D01*
X0129628Y0059439D02*
X0129628Y0073513D01*
X0129628Y0059439D02*
X0138861Y0059439D01*
X0156349Y0092759D02*
X0161380Y0092759D01*
X0161380Y0097877D02*
X0156349Y0097877D01*
X0156349Y0102688D01*
X0159018Y0102688D01*
X0172397Y0061827D02*
X0172467Y0061827D01*
X0172467Y0059813D01*
X0172467Y0057515D01*
X0056451Y0117019D02*
X0051419Y0117019D01*
X0051419Y0122137D02*
X0056451Y0122137D01*
D36*
X0060593Y0122137D01*
X0060593Y0122373D01*
X0064923Y0121349D02*
X0064923Y0115207D01*
X0068931Y0115207D01*
X0068931Y0120396D01*
X0068931Y0125585D01*
X0074049Y0125585D02*
X0079037Y0125585D01*
X0079037Y0125573D01*
X0079037Y0120521D02*
X0079037Y0120396D01*
X0074049Y0120396D01*
X0074049Y0115207D02*
X0079037Y0115207D01*
X0079037Y0115169D01*
X0088985Y0101313D02*
X0088955Y0101283D01*
X0088985Y0101313D02*
X0093070Y0101313D01*
X0094396Y0099987D01*
X0094396Y0091357D01*
X0062167Y0100719D02*
X0062045Y0100719D01*
X0062045Y0105503D01*
X0062561Y0047570D02*
X0058930Y0047570D01*
X0058930Y0046164D01*
X0062561Y0047570D02*
X0062561Y0036546D01*
X0065711Y0036546D01*
X0065711Y0027097D01*
X0062380Y0033003D02*
X0058522Y0033003D01*
X0141270Y0034113D02*
X0141270Y0030609D01*
X0141459Y0030609D01*
X0141270Y0034113D02*
X0141270Y0037952D01*
X0141537Y0037952D01*
X0141537Y0043070D02*
X0159270Y0043070D01*
X0159270Y0043113D01*
X0159805Y0043133D02*
X0159805Y0039298D01*
X0157805Y0039298D01*
X0164892Y0039298D02*
X0164892Y0043633D01*
X0164923Y0043633D01*
X0172404Y0059719D02*
X0173570Y0059719D01*
X0176766Y0059719D01*
X0172404Y0059774D02*
X0172404Y0059719D01*
X0147175Y0034377D02*
X0147175Y0031428D01*
X0145632Y0031428D01*
X0147175Y0034152D02*
X0147175Y0034377D01*
X0141427Y0025522D02*
X0141427Y0021979D01*
X0141695Y0021979D01*
X0141459Y0025491D02*
X0141427Y0025522D01*
X0157805Y0008196D02*
X0161349Y0008196D01*
X0161349Y0012133D01*
X0164892Y0008196D02*
X0164892Y0016267D01*
X0164498Y0016660D01*
X0165530Y0092345D02*
X0161380Y0092345D01*
X0161380Y0092759D01*
X0119270Y0175113D02*
X0119270Y0179113D01*
X0116429Y0179113D01*
X0122711Y0179113D01*
X0127829Y0179113D02*
X0127829Y0189089D01*
X0127805Y0189113D01*
X0111311Y0189072D02*
X0111311Y0179113D01*
X0111311Y0189072D02*
X0111270Y0189113D01*
D37*
X0119270Y0175113D03*
X0121870Y0167913D03*
X0091670Y0189513D03*
X0086370Y0182313D03*
X0085470Y0212813D03*
X0074670Y0214813D03*
X0070570Y0214013D03*
X0056970Y0213613D03*
X0050570Y0206713D03*
X0047870Y0200313D03*
X0053270Y0188113D03*
X0053270Y0182113D03*
X0088270Y0125513D03*
X0091270Y0123113D03*
X0093970Y0118813D03*
X0096770Y0118813D03*
X0097570Y0121613D03*
X0102470Y0121313D03*
X0111870Y0119313D03*
X0112582Y0114351D03*
X0114270Y0097913D03*
X0119670Y0097913D03*
X0111770Y0088613D03*
X0102144Y0084952D03*
X0094470Y0082413D03*
X0092370Y0077513D03*
X0094057Y0073554D03*
X0091070Y0073013D03*
X0086770Y0068613D03*
X0083271Y0072360D03*
X0077915Y0071979D03*
X0077915Y0077491D03*
X0076728Y0081822D03*
X0068270Y0075913D03*
X0065370Y0075813D03*
X0065317Y0078672D03*
X0059170Y0076413D03*
X0055081Y0073948D03*
X0054770Y0071113D03*
X0054370Y0066913D03*
X0051537Y0065286D03*
X0050170Y0069913D03*
X0048170Y0072713D03*
X0051144Y0080247D03*
X0051270Y0084913D03*
X0059970Y0098913D03*
X0062167Y0100719D03*
X0064530Y0097570D03*
X0064530Y0088908D03*
X0063770Y0085213D03*
X0074370Y0093013D03*
X0081852Y0092852D03*
X0083821Y0090677D03*
X0091270Y0091213D03*
X0094396Y0091357D03*
X0092070Y0087513D03*
X0096970Y0096413D03*
X0097070Y0099213D03*
X0100870Y0099213D03*
X0088070Y0106413D03*
X0088070Y0109213D03*
X0085270Y0109213D03*
X0090270Y0116013D03*
X0088470Y0118213D03*
X0064923Y0121349D03*
X0060593Y0122373D03*
X0051537Y0111349D03*
X0058570Y0063313D03*
X0060199Y0060956D03*
X0057170Y0058013D03*
X0057170Y0052813D03*
X0053900Y0051900D03*
X0049870Y0048413D03*
X0048388Y0045601D03*
X0048388Y0042452D03*
X0048388Y0039302D03*
X0049670Y0036613D03*
X0049963Y0033396D03*
X0047600Y0033396D03*
X0050970Y0029313D03*
X0048670Y0023613D03*
X0048388Y0020798D03*
X0048388Y0016861D03*
X0052770Y0022713D03*
X0060986Y0029459D03*
X0059805Y0035759D03*
X0055270Y0038713D03*
X0054270Y0044213D03*
X0057070Y0044213D03*
X0065317Y0043239D03*
X0070170Y0051713D03*
X0070041Y0056625D03*
X0067770Y0060413D03*
X0064530Y0062924D03*
X0075770Y0035713D03*
X0075170Y0032313D03*
X0078770Y0031613D03*
X0079370Y0035913D03*
X0082215Y0036152D03*
X0087270Y0024113D03*
X0092770Y0007513D03*
X0104470Y0007413D03*
X0080970Y0007213D03*
X0070370Y0014913D03*
X0064570Y0015413D03*
X0064270Y0005213D03*
X0053070Y0007213D03*
X0088952Y0052688D03*
X0088152Y0058600D03*
X0132640Y0078672D03*
X0134970Y0084613D03*
X0132640Y0086546D03*
X0135370Y0087813D03*
X0137570Y0086013D03*
X0140570Y0088613D03*
X0143070Y0090913D03*
X0151144Y0092845D03*
X0159170Y0089613D03*
X0156270Y0084213D03*
X0158270Y0082113D03*
X0158970Y0078613D03*
X0156081Y0078672D03*
X0153670Y0076313D03*
X0147600Y0065286D03*
X0151070Y0062713D03*
X0147600Y0052688D03*
X0137770Y0041613D03*
X0141270Y0034113D03*
X0145632Y0031428D03*
X0144970Y0024713D03*
X0141695Y0021979D03*
X0150070Y0012213D03*
X0147770Y0008213D03*
X0155470Y0025313D03*
X0155770Y0030613D03*
X0161570Y0023713D03*
X0165470Y0027313D03*
X0167570Y0030913D03*
X0171370Y0034313D03*
X0164923Y0043633D03*
X0164530Y0049932D03*
X0159412Y0049932D03*
X0165070Y0065313D03*
X0168870Y0066913D03*
X0165070Y0070513D03*
X0176734Y0065286D03*
X0180470Y0065113D03*
X0181065Y0061743D03*
X0176734Y0054656D03*
X0181459Y0083003D03*
X0167286Y0094814D03*
X0165530Y0092345D03*
X0165317Y0102294D03*
X0159018Y0102688D03*
X0154570Y0105013D03*
X0159412Y0110168D03*
X0151537Y0112924D03*
X0134370Y0115113D03*
X0170370Y0115313D03*
X0179170Y0117313D03*
X0181459Y0099932D03*
X0167670Y0010213D03*
X0166593Y0005050D03*
X0129070Y0005213D03*
X0115370Y0209613D03*
D38*
X0051419Y0117019D02*
X0051419Y0111349D01*
X0051537Y0111349D01*
X0051537Y0105503D01*
X0056927Y0105503D01*
X0078309Y0092852D02*
X0078309Y0083790D01*
X0080581Y0083790D01*
X0081860Y0087235D02*
X0083829Y0087235D01*
X0083821Y0087235D01*
X0083821Y0090677D01*
X0081852Y0092852D02*
X0078309Y0092852D01*
X0081852Y0092852D02*
X0081852Y0096165D01*
X0081955Y0096165D01*
X0080581Y0079853D02*
X0077915Y0079853D01*
X0077915Y0077491D01*
X0081762Y0076408D02*
X0081762Y0072360D01*
X0083271Y0072360D01*
X0077915Y0071979D02*
X0076628Y0071979D01*
X0076628Y0068692D01*
X0076734Y0061743D02*
X0074660Y0061743D01*
X0074660Y0058849D01*
X0072691Y0058849D02*
X0072691Y0052688D01*
X0080565Y0052688D01*
X0080565Y0058849D01*
X0078703Y0058849D02*
X0078597Y0058849D01*
X0078703Y0058849D02*
X0078703Y0061743D01*
X0076734Y0061743D01*
X0078703Y0061743D02*
X0086530Y0061743D01*
X0088152Y0061743D01*
X0088152Y0058600D01*
X0091380Y0055129D02*
X0091380Y0064814D01*
X0091380Y0069932D02*
X0094057Y0069932D01*
X0095270Y0069932D01*
X0095270Y0061113D01*
X0095030Y0055129D02*
X0091380Y0055129D01*
X0088952Y0052688D02*
X0095030Y0052688D01*
X0095030Y0055129D01*
X0088952Y0052688D02*
X0080565Y0052688D01*
X0086530Y0061743D02*
X0086530Y0061802D01*
X0094057Y0069932D02*
X0094057Y0073554D01*
X0058930Y0042227D02*
X0058930Y0038290D01*
X0058930Y0035759D01*
X0059805Y0035759D01*
X0058522Y0033003D02*
X0058522Y0032908D01*
X0058522Y0030940D02*
X0058522Y0029459D01*
X0060986Y0029459D01*
X0050982Y0020676D02*
X0048388Y0020676D01*
X0048388Y0020798D01*
X0048388Y0016861D02*
X0048388Y0016739D01*
X0050982Y0016739D01*
X0137770Y0025113D02*
X0137770Y0004113D01*
X0157770Y0004113D01*
X0157770Y0008213D01*
X0157770Y0008613D01*
X0161349Y0012133D02*
X0161349Y0019979D01*
X0161380Y0020011D01*
X0168242Y0020011D01*
X0168435Y0020204D01*
X0164923Y0008196D02*
X0164923Y0005050D01*
X0166593Y0005050D01*
X0164923Y0008196D02*
X0164892Y0008196D01*
X0141270Y0025113D02*
X0137770Y0025113D01*
X0137770Y0025613D02*
X0141270Y0025613D01*
X0141270Y0025113D01*
X0137770Y0025613D02*
X0137770Y0041613D01*
X0137770Y0043133D01*
X0141570Y0043133D01*
X0159805Y0043133D01*
X0176734Y0054656D02*
X0176766Y0054656D01*
X0176766Y0057751D01*
X0176766Y0061688D02*
X0176766Y0065255D01*
X0176734Y0065286D01*
X0178734Y0061743D02*
X0178734Y0061688D01*
X0178734Y0061743D02*
X0181065Y0061743D01*
X0156349Y0086546D02*
X0156349Y0092759D01*
X0153506Y0088613D02*
X0153506Y0086613D01*
X0153506Y0086546D01*
X0156349Y0086546D01*
X0153506Y0088613D02*
X0152919Y0088613D01*
X0150951Y0088967D02*
X0150951Y0092845D01*
X0151144Y0092845D01*
X0147998Y0083613D02*
X0147014Y0082629D01*
X0147014Y0078298D01*
D39*
X0067470Y0014113D03*
X0061755Y0014124D03*
D40*
X0050982Y0024613D02*
X0050982Y0026148D01*
X0051931Y0027097D01*
X0054585Y0027097D01*
X0054585Y0030940D01*
X0054585Y0032908D02*
X0052616Y0032908D01*
X0050624Y0032908D01*
X0050624Y0032646D01*
X0050634Y0032609D01*
X0046813Y0032609D01*
X0046813Y0034971D01*
X0048200Y0034971D01*
X0048758Y0034413D01*
X0050581Y0034413D01*
X0051139Y0034971D01*
X0052644Y0034971D01*
X0052715Y0034900D01*
X0052616Y0034900D01*
X0052354Y0034900D01*
X0051847Y0034765D01*
X0051393Y0034502D01*
X0051022Y0034131D01*
X0050760Y0033677D01*
X0050624Y0033171D01*
X0050624Y0032908D01*
X0052593Y0032908D01*
X0052616Y0032908D01*
X0052616Y0032908D01*
X0052616Y0032908D01*
X0054585Y0032908D01*
X0054585Y0032908D01*
X0052616Y0033258D02*
X0052616Y0033259D01*
X0052616Y0034900D01*
X0052616Y0033258D01*
X0052616Y0034064D02*
X0052616Y0034064D01*
X0050983Y0034064D02*
X0046813Y0034064D01*
X0046813Y0033065D02*
X0050624Y0033065D01*
X0052631Y0038290D02*
X0052631Y0040381D01*
X0052631Y0042227D01*
X0050541Y0042227D01*
X0050541Y0041952D01*
X0050683Y0041420D01*
X0050958Y0040944D01*
X0051348Y0040554D01*
X0051824Y0040279D01*
X0051901Y0040259D01*
X0051824Y0040238D01*
X0051348Y0039963D01*
X0050958Y0039574D01*
X0050683Y0039097D01*
X0050602Y0038793D01*
X0050581Y0038813D01*
X0048758Y0038813D01*
X0048066Y0038121D01*
X0046813Y0038121D01*
X0046813Y0046782D01*
X0048389Y0046782D01*
X0048958Y0046213D01*
X0050541Y0046213D01*
X0050541Y0046164D01*
X0050541Y0045889D01*
X0050683Y0045357D01*
X0050958Y0044881D01*
X0051348Y0044491D01*
X0051824Y0044216D01*
X0051901Y0044196D01*
X0051824Y0044175D01*
X0051348Y0043900D01*
X0050958Y0043511D01*
X0050683Y0043034D01*
X0050541Y0042502D01*
X0050541Y0042227D01*
X0052631Y0042227D01*
X0052631Y0042227D01*
X0052631Y0042227D01*
X0052631Y0038290D01*
X0052631Y0038290D01*
X0052631Y0039056D02*
X0052631Y0039056D01*
X0052631Y0040055D02*
X0052631Y0040055D01*
X0052631Y0041053D02*
X0052631Y0041053D01*
X0052631Y0042052D02*
X0052631Y0042052D01*
X0050895Y0041053D02*
X0046813Y0041053D01*
X0046813Y0040055D02*
X0051507Y0040055D01*
X0050672Y0039056D02*
X0046813Y0039056D01*
X0046813Y0042052D02*
X0050541Y0042052D01*
X0050693Y0043050D02*
X0046813Y0043050D01*
X0046813Y0044049D02*
X0051606Y0044049D01*
X0050862Y0045047D02*
X0046813Y0045047D01*
X0046813Y0046046D02*
X0050541Y0046046D01*
X0050541Y0046164D02*
X0052631Y0046164D01*
X0052631Y0046164D01*
X0050541Y0046164D01*
X0056553Y0030940D02*
X0056553Y0027097D01*
X0056656Y0027097D01*
X0057049Y0027097D01*
X0065711Y0027097D01*
X0074372Y0061743D02*
X0076734Y0061743D01*
X0075160Y0063318D02*
X0074372Y0063318D01*
X0074372Y0061743D01*
X0075160Y0063318D02*
X0075160Y0066467D01*
X0074660Y0066467D01*
X0074660Y0068692D01*
X0084502Y0068692D02*
X0086770Y0068692D01*
X0086770Y0068613D01*
X0152919Y0078672D02*
X0152970Y0078672D01*
X0156081Y0078672D01*
X0091270Y0171672D02*
X0087829Y0175113D01*
X0087270Y0175113D01*
X0082191Y0180192D01*
X0082191Y0181830D01*
X0080223Y0181830D02*
X0080223Y0178160D01*
X0083270Y0175113D01*
X0083270Y0173672D01*
X0085270Y0171672D01*
X0079270Y0171672D02*
X0079270Y0175113D01*
X0078254Y0176129D01*
X0078254Y0181830D01*
X0076286Y0181830D02*
X0076286Y0176129D01*
X0075270Y0175113D01*
X0075270Y0173672D01*
X0073270Y0171672D01*
X0073270Y0177113D02*
X0069270Y0177113D01*
X0067270Y0175113D01*
X0067270Y0171672D01*
X0063270Y0173672D02*
X0063270Y0175113D01*
X0067270Y0179113D01*
X0071270Y0179113D01*
X0072349Y0180192D01*
X0072349Y0181830D01*
X0074317Y0181830D02*
X0074317Y0178160D01*
X0073270Y0177113D01*
X0069986Y0184192D02*
X0068349Y0184192D01*
X0059270Y0175113D01*
X0057829Y0175113D01*
X0055829Y0173113D01*
X0061270Y0171672D02*
X0063270Y0173672D01*
X0059270Y0179113D02*
X0055829Y0179113D01*
X0059270Y0179113D02*
X0066317Y0186160D01*
X0069986Y0186160D01*
X0069986Y0188129D02*
X0064286Y0188129D01*
X0061270Y0185113D01*
X0055829Y0185113D01*
X0055829Y0191113D02*
X0059270Y0191113D01*
X0060286Y0190097D01*
X0069986Y0190097D01*
X0069986Y0192066D02*
X0066117Y0192066D01*
X0061070Y0197113D01*
X0055870Y0197113D01*
X0055829Y0197113D01*
X0055270Y0197113D01*
X0055829Y0203113D02*
X0059270Y0203113D01*
X0068349Y0194034D01*
X0069986Y0194034D01*
X0072349Y0196396D02*
X0072349Y0198034D01*
X0071270Y0199113D01*
X0067270Y0199113D01*
X0065270Y0201113D01*
X0065270Y0204554D01*
X0071270Y0204554D02*
X0071270Y0201113D01*
X0073270Y0201113D01*
X0074317Y0200066D01*
X0074317Y0196396D01*
X0076286Y0196396D02*
X0076286Y0203570D01*
X0077270Y0204554D01*
X0079270Y0201113D02*
X0081270Y0201113D01*
X0083270Y0203113D01*
X0083270Y0204554D01*
X0079270Y0201113D02*
X0078254Y0200097D01*
X0078254Y0196396D01*
X0080223Y0196396D02*
X0080223Y0198066D01*
X0081270Y0199113D01*
X0087270Y0199113D01*
X0089270Y0201113D01*
X0089270Y0204554D01*
X0095270Y0204554D02*
X0095270Y0201113D01*
X0090553Y0196396D01*
X0082191Y0196396D01*
X0084553Y0194034D02*
X0104191Y0194034D01*
X0106270Y0196113D01*
X0120805Y0196113D01*
X0127805Y0189113D01*
X0111270Y0189113D02*
X0107270Y0189113D01*
X0104317Y0192066D01*
X0084553Y0192066D01*
X0084553Y0190097D02*
X0091086Y0190097D01*
X0091670Y0189513D01*
X0089270Y0187113D02*
X0088254Y0188129D01*
X0084553Y0188129D01*
X0084553Y0190097D02*
X0080254Y0190097D01*
X0079270Y0189113D01*
X0089270Y0187113D02*
X0095270Y0187113D01*
X0095309Y0187152D01*
D41*
X0095309Y0187152D03*
X0095270Y0174513D03*
X0121029Y0120404D03*
X0126128Y0061956D03*
X0134270Y0056113D03*
X0141270Y0047613D03*
X0122270Y0041113D03*
X0112561Y0030641D03*
X0122270Y0022113D03*
X0135002Y0008200D03*
X0140770Y0016113D03*
X0112167Y0044026D03*
X0099770Y0035113D03*
X0091620Y0042770D03*
X0091270Y0049113D03*
X0086652Y0055444D03*
X0081852Y0049538D03*
X0062380Y0033003D03*
X0086120Y0010904D03*
X0099770Y0021613D03*
X0112770Y0058113D03*
X0108687Y0061349D03*
D42*
X0052270Y0100113D03*
X0048270Y0006113D03*
X0180270Y0046113D03*
X0180270Y0112113D03*
D43*
X0175270Y0113313D02*
X0170270Y0108313D01*
X0170270Y0085613D01*
X0157970Y0073313D01*
X0149470Y0073313D01*
X0145070Y0077713D01*
X0145070Y0078213D01*
X0145045Y0078298D01*
X0148982Y0078298D02*
X0149070Y0078213D01*
X0149070Y0077613D01*
X0152370Y0074313D01*
X0157470Y0074313D01*
X0169270Y0086113D01*
X0169270Y0095613D01*
X0168370Y0096513D01*
X0168370Y0120613D01*
X0166670Y0122313D01*
X0157770Y0122313D01*
X0154870Y0119413D01*
X0149770Y0119413D01*
X0149679Y0119396D01*
X0146870Y0119413D02*
X0150770Y0123313D01*
X0172070Y0123313D01*
X0175270Y0120113D01*
X0175270Y0113313D01*
X0170370Y0115313D02*
X0173270Y0118213D01*
X0173270Y0119313D01*
X0173301Y0119333D01*
X0167370Y0120113D02*
X0167370Y0118513D01*
X0161070Y0112213D01*
X0158670Y0112213D01*
X0149070Y0102613D01*
X0149070Y0089013D01*
X0148982Y0088967D01*
X0147070Y0089013D02*
X0147014Y0088967D01*
X0147070Y0089013D02*
X0147070Y0102113D01*
X0164270Y0119313D01*
X0165270Y0119313D01*
X0165364Y0119333D01*
X0164570Y0121313D02*
X0166170Y0121313D01*
X0167370Y0120113D01*
X0164570Y0121313D02*
X0162670Y0119413D01*
X0157670Y0119413D01*
X0157616Y0119396D01*
X0146870Y0119413D02*
X0141770Y0119413D01*
X0141742Y0119396D01*
X0143070Y0090913D02*
X0144970Y0089013D01*
X0145045Y0088967D01*
X0142959Y0088613D02*
X0140570Y0088613D01*
X0139770Y0086613D02*
X0138370Y0088013D01*
X0135570Y0088013D01*
X0135370Y0087813D01*
X0137570Y0086013D02*
X0138870Y0086013D01*
X0140270Y0084613D01*
X0142570Y0084613D01*
X0142644Y0084597D01*
X0142570Y0082713D02*
X0142644Y0082629D01*
X0142570Y0082713D02*
X0138070Y0082713D01*
X0136170Y0084613D01*
X0134970Y0084613D01*
X0139770Y0086613D02*
X0142570Y0086613D01*
X0142644Y0086566D01*
X0150951Y0078298D02*
X0150970Y0078213D01*
X0152870Y0076313D01*
X0153670Y0076313D01*
X0152919Y0078652D02*
X0152970Y0078713D01*
X0152970Y0078672D01*
X0153313Y0080660D02*
X0153370Y0080713D01*
X0156870Y0080713D01*
X0158970Y0078613D01*
X0158270Y0082113D02*
X0155570Y0082113D01*
X0155070Y0082613D01*
X0153370Y0082613D01*
X0153313Y0082629D01*
X0153670Y0084213D02*
X0153370Y0084513D01*
X0153313Y0084597D01*
X0153670Y0084213D02*
X0156270Y0084213D01*
X0153506Y0086613D02*
X0153370Y0086613D01*
X0153313Y0086566D01*
X0168870Y0066913D02*
X0172370Y0066913D01*
X0172397Y0066945D01*
X0172467Y0059813D02*
X0173570Y0059813D01*
X0173570Y0059719D01*
X0178734Y0057751D02*
X0178770Y0057813D01*
X0179970Y0057813D01*
X0183070Y0060913D01*
X0183070Y0062513D01*
X0180470Y0065113D01*
X0172467Y0052396D02*
X0172370Y0052313D01*
X0169970Y0049913D01*
X0169770Y0050013D01*
X0167270Y0050013D01*
X0154570Y0062713D01*
X0151070Y0062713D01*
X0137470Y0048013D02*
X0140270Y0045213D01*
X0159970Y0045213D01*
X0161370Y0043813D01*
X0161370Y0038613D01*
X0160070Y0037313D01*
X0158570Y0037313D01*
X0156270Y0035013D01*
X0156270Y0033913D01*
X0153270Y0030913D01*
X0151170Y0030913D01*
X0151112Y0030833D01*
X0154470Y0030613D02*
X0155770Y0030613D01*
X0154470Y0030613D02*
X0147270Y0023413D01*
X0147270Y0020213D01*
X0147175Y0020204D01*
X0151170Y0018213D02*
X0151170Y0016713D01*
X0151112Y0016660D01*
X0151170Y0018213D02*
X0162470Y0029513D01*
X0162470Y0033013D01*
X0169970Y0040513D01*
X0169970Y0049913D01*
X0168435Y0034377D02*
X0168470Y0034313D01*
X0171370Y0034313D01*
X0167570Y0030913D02*
X0164570Y0030913D01*
X0164498Y0030833D01*
X0165470Y0027313D02*
X0168370Y0027313D01*
X0168435Y0027290D01*
X0164498Y0023747D02*
X0164470Y0023713D01*
X0161570Y0023713D01*
X0155470Y0025313D02*
X0153970Y0023813D01*
X0151170Y0023813D01*
X0151112Y0023747D01*
X0147170Y0026913D02*
X0144970Y0024713D01*
X0147170Y0026913D02*
X0147170Y0027213D01*
X0147175Y0027290D01*
X0147175Y0013117D02*
X0147270Y0013113D01*
X0149170Y0013113D01*
X0150070Y0012213D01*
X0150670Y0008213D02*
X0147770Y0008213D01*
X0150670Y0008213D02*
X0150719Y0008196D01*
X0157770Y0008213D02*
X0157870Y0008213D01*
X0157805Y0008196D01*
X0167670Y0010213D02*
X0167670Y0012413D01*
X0168370Y0013113D01*
X0168435Y0013117D01*
X0141537Y0043070D02*
X0141570Y0043113D01*
X0141570Y0043133D01*
X0137470Y0048013D02*
X0132770Y0048013D01*
X0132170Y0047413D01*
X0132170Y0023013D01*
X0114470Y0005313D01*
X0114270Y0005313D01*
X0114262Y0005286D01*
X0104470Y0007413D02*
X0102370Y0005313D01*
X0102356Y0005286D01*
X0092770Y0007513D02*
X0090770Y0005513D01*
X0090734Y0005452D01*
X0080970Y0007213D02*
X0080770Y0007313D01*
X0065970Y0022113D01*
X0056770Y0022113D01*
X0055370Y0020713D01*
X0054370Y0020713D01*
X0054132Y0020676D01*
X0054170Y0020613D01*
X0054170Y0016813D01*
X0054132Y0016739D01*
X0057282Y0016739D02*
X0057370Y0016713D01*
X0063270Y0016713D01*
X0064570Y0015413D01*
X0064670Y0020613D02*
X0070370Y0014913D01*
X0064670Y0020613D02*
X0057370Y0020613D01*
X0057282Y0020676D01*
X0057282Y0024613D02*
X0067470Y0024613D01*
X0075170Y0032313D01*
X0075770Y0035713D02*
X0075770Y0036613D01*
X0061870Y0050513D01*
X0060870Y0050513D01*
X0059770Y0051613D01*
X0059770Y0056313D01*
X0061770Y0058313D01*
X0061805Y0058373D01*
X0061770Y0054413D02*
X0067770Y0060413D01*
X0068970Y0063813D02*
X0070570Y0063813D01*
X0070624Y0063770D01*
X0068970Y0063813D02*
X0058420Y0074363D01*
X0055170Y0071113D01*
X0054770Y0071113D01*
X0058420Y0074363D02*
X0057170Y0075613D01*
X0057170Y0077213D01*
X0061670Y0081713D01*
X0061670Y0083013D01*
X0061742Y0083070D01*
X0061070Y0085213D02*
X0063770Y0085213D01*
X0061070Y0085213D02*
X0058770Y0082913D01*
X0050470Y0082913D01*
X0050370Y0083013D01*
X0047470Y0083013D01*
X0047388Y0083050D01*
X0047238Y0075467D02*
X0047270Y0075413D01*
X0048170Y0074513D01*
X0048170Y0072713D01*
X0047270Y0069913D02*
X0047238Y0069893D01*
X0047270Y0069913D02*
X0050170Y0069913D01*
X0051537Y0065286D02*
X0051470Y0065213D01*
X0050370Y0064113D01*
X0047270Y0064113D01*
X0047238Y0064074D01*
X0047238Y0058499D02*
X0047270Y0058413D01*
X0047670Y0058013D01*
X0057170Y0058013D01*
X0058570Y0063313D02*
X0059170Y0063913D01*
X0061670Y0063913D01*
X0061734Y0063987D01*
X0068570Y0068713D02*
X0062070Y0075213D01*
X0061805Y0075227D01*
X0061770Y0075313D01*
X0060670Y0076413D01*
X0059170Y0076413D01*
X0068570Y0068713D02*
X0072670Y0068713D01*
X0072691Y0068692D01*
X0061770Y0054413D02*
X0061770Y0052513D01*
X0061742Y0052467D01*
X0058930Y0047570D02*
X0058170Y0047913D01*
X0055070Y0047913D01*
X0050070Y0052913D01*
X0047270Y0052913D01*
X0047238Y0052924D01*
X0049870Y0048413D02*
X0052370Y0048413D01*
X0054570Y0046213D01*
X0055770Y0046213D01*
X0055781Y0046164D01*
X0054270Y0044213D02*
X0055770Y0042713D01*
X0055770Y0042313D01*
X0055781Y0042227D01*
X0052770Y0036613D02*
X0049670Y0036613D01*
X0052770Y0036613D02*
X0056470Y0032913D01*
X0056553Y0032908D01*
X0052616Y0030940D02*
X0052570Y0030913D01*
X0050970Y0029313D01*
X0050982Y0024613D02*
X0050570Y0024413D01*
X0049770Y0023613D01*
X0048670Y0023613D01*
X0052770Y0022713D02*
X0054070Y0024013D01*
X0054070Y0024613D01*
X0054132Y0024613D01*
X0053070Y0007213D02*
X0054970Y0005313D01*
X0055270Y0005313D01*
X0055301Y0005294D01*
X0064270Y0005213D02*
X0066870Y0005213D01*
X0067070Y0005413D01*
X0067160Y0005467D01*
X0078923Y0005176D02*
X0078970Y0005213D01*
X0080970Y0007213D01*
X0094470Y0019087D02*
X0094470Y0019113D01*
X0097270Y0019113D01*
X0099770Y0021613D01*
X0126120Y0005207D02*
X0126170Y0005213D01*
X0129070Y0005213D01*
X0095030Y0060247D02*
X0095070Y0060313D01*
X0095070Y0060613D01*
X0095270Y0061113D01*
X0091070Y0073013D02*
X0089470Y0073013D01*
X0087670Y0074813D01*
X0087670Y0076313D01*
X0087667Y0076408D01*
X0090915Y0079853D02*
X0090970Y0079813D01*
X0092370Y0078413D01*
X0092370Y0077513D01*
X0090915Y0081822D02*
X0090970Y0081913D01*
X0091470Y0082413D01*
X0094470Y0082413D01*
X0092070Y0084913D02*
X0090970Y0083813D01*
X0090915Y0083790D01*
X0092070Y0084913D02*
X0092070Y0087513D01*
X0074370Y0093013D02*
X0074370Y0102813D01*
X0062570Y0114613D01*
X0058970Y0114613D01*
X0056970Y0112613D01*
X0056970Y0111413D01*
X0056927Y0111408D01*
X0059486Y0105503D02*
X0059570Y0105413D01*
X0059570Y0099313D01*
X0059970Y0098913D01*
X0082570Y0123113D02*
X0082570Y0126313D01*
X0080770Y0128113D01*
X0060270Y0128113D01*
X0058770Y0129613D01*
X0058770Y0158013D01*
X0067270Y0166513D01*
X0067270Y0166554D01*
X0053270Y0182113D02*
X0050770Y0184613D01*
X0050770Y0185113D01*
X0050711Y0185113D01*
X0053270Y0188113D02*
X0050770Y0190613D01*
X0050770Y0191113D01*
X0050711Y0191113D01*
X0047870Y0200313D02*
X0050670Y0203113D01*
X0050711Y0203113D01*
X0050570Y0206713D02*
X0066570Y0206713D01*
X0069470Y0209613D01*
X0071270Y0209613D01*
X0071270Y0209672D01*
X0070570Y0214013D02*
X0066270Y0209713D01*
X0065270Y0209713D01*
X0065270Y0209672D01*
X0074670Y0214813D02*
X0077270Y0212213D01*
X0077270Y0209672D01*
X0085470Y0212813D02*
X0088570Y0209713D01*
X0089270Y0209713D01*
X0089270Y0209672D01*
X0079270Y0189113D02*
X0077270Y0189113D01*
X0084553Y0186160D02*
X0084570Y0186113D01*
X0088470Y0186113D01*
X0093870Y0180713D01*
X0105470Y0180713D01*
X0113070Y0173113D01*
X0126070Y0173113D01*
X0131170Y0178213D01*
X0131170Y0193713D01*
X0120370Y0204513D01*
X0119270Y0204513D01*
X0119270Y0204554D01*
X0119270Y0209613D02*
X0115370Y0209613D01*
X0119270Y0209613D02*
X0119270Y0209672D01*
X0086370Y0182313D02*
X0084570Y0184113D01*
X0084553Y0184192D01*
X0121870Y0167913D02*
X0124670Y0165113D01*
X0124711Y0165113D01*
X0100170Y0123613D02*
X0095970Y0123613D01*
X0092970Y0120613D01*
X0084970Y0120613D01*
X0084943Y0120521D01*
X0084870Y0120813D01*
X0082570Y0123113D01*
X0084970Y0125513D02*
X0084943Y0125573D01*
X0084970Y0125513D02*
X0088270Y0125513D01*
X0097570Y0121613D02*
X0098770Y0120413D01*
X0098770Y0118013D01*
X0094770Y0114013D01*
X0089470Y0114013D01*
X0088370Y0115113D01*
X0084970Y0115113D01*
X0084943Y0115169D01*
X0100170Y0123613D02*
X0102470Y0121313D01*
X0179170Y0117313D02*
X0181170Y0119313D01*
X0181238Y0119333D01*
D44*
X0062270Y0009713D03*
M02*
