G75*
%MOIN*%
%OFA0B0*%
%FSLAX25Y25*%
%IPPOS*%
%LPD*%
%AMOC8*
5,1,8,0,0,1.08239X$1,22.5*
%
%ADD10C,0.02200*%
%ADD11C,0.02400*%
%ADD12C,0.03000*%
%ADD13C,0.06000*%
%ADD14C,0.00500*%
%ADD15C,0.03400*%
D10*
X0048388Y0016861D03*
X0048388Y0020798D03*
X0048670Y0023613D03*
X0052770Y0022713D03*
X0050970Y0029313D03*
X0049963Y0033396D03*
X0047600Y0033396D03*
X0049670Y0036613D03*
X0048388Y0039302D03*
X0048388Y0042452D03*
X0048388Y0045601D03*
X0049870Y0048413D03*
X0053900Y0051900D03*
X0057170Y0052813D03*
X0057170Y0058013D03*
X0060199Y0060956D03*
X0058570Y0063313D03*
X0054370Y0066913D03*
X0051537Y0065286D03*
X0050170Y0069913D03*
X0048170Y0072713D03*
X0051144Y0080247D03*
X0051270Y0084913D03*
X0059170Y0076413D03*
X0055081Y0073948D03*
X0054770Y0071113D03*
X0065370Y0075813D03*
X0065317Y0078672D03*
X0068270Y0075913D03*
X0076728Y0081822D03*
X0077915Y0077491D03*
X0077915Y0071979D03*
X0083271Y0072360D03*
X0086770Y0068613D03*
X0091070Y0073013D03*
X0094057Y0073554D03*
X0092370Y0077513D03*
X0094470Y0082413D03*
X0092070Y0087513D03*
X0091270Y0091213D03*
X0094396Y0091357D03*
X0096970Y0096413D03*
X0097070Y0099213D03*
X0100870Y0099213D03*
X0111770Y0088613D03*
X0114270Y0097913D03*
X0119670Y0097913D03*
X0132640Y0086546D03*
X0134970Y0084613D03*
X0135370Y0087813D03*
X0137570Y0086013D03*
X0140570Y0088613D03*
X0143070Y0090913D03*
X0151144Y0092845D03*
X0159170Y0089613D03*
X0156270Y0084213D03*
X0158270Y0082113D03*
X0158970Y0078613D03*
X0156081Y0078672D03*
X0153670Y0076313D03*
X0147600Y0065286D03*
X0151070Y0062713D03*
X0147600Y0052688D03*
X0137770Y0041613D03*
X0141270Y0034113D03*
X0145632Y0031428D03*
X0144970Y0024713D03*
X0141695Y0021979D03*
X0150070Y0012213D03*
X0147770Y0008213D03*
X0155470Y0025313D03*
X0155770Y0030613D03*
X0161570Y0023713D03*
X0165470Y0027313D03*
X0167570Y0030913D03*
X0171370Y0034313D03*
X0164923Y0043633D03*
X0164530Y0049932D03*
X0159412Y0049932D03*
X0165070Y0065313D03*
X0168870Y0066913D03*
X0165070Y0070513D03*
X0176734Y0065286D03*
X0180470Y0065113D03*
X0181065Y0061743D03*
X0176734Y0054656D03*
X0181459Y0083003D03*
X0167286Y0094814D03*
X0165530Y0092345D03*
X0165317Y0102294D03*
X0159018Y0102688D03*
X0154570Y0105013D03*
X0159412Y0110168D03*
X0151537Y0112924D03*
X0134370Y0115113D03*
X0112582Y0114351D03*
X0111870Y0119313D03*
X0102470Y0121313D03*
X0097570Y0121613D03*
X0096770Y0118813D03*
X0093970Y0118813D03*
X0090270Y0116013D03*
X0088470Y0118213D03*
X0091270Y0123113D03*
X0088270Y0125513D03*
X0088070Y0109213D03*
X0088070Y0106413D03*
X0085270Y0109213D03*
X0081852Y0092852D03*
X0083821Y0090677D03*
X0074370Y0093013D03*
X0064530Y0088908D03*
X0063770Y0085213D03*
X0064530Y0097570D03*
X0062167Y0100719D03*
X0059970Y0098913D03*
X0051537Y0111349D03*
X0060593Y0122373D03*
X0064923Y0121349D03*
X0102144Y0084952D03*
X0088152Y0058600D03*
X0088952Y0052688D03*
X0082215Y0036152D03*
X0079370Y0035913D03*
X0075770Y0035713D03*
X0075170Y0032313D03*
X0078770Y0031613D03*
X0087270Y0024113D03*
X0092770Y0007513D03*
X0104470Y0007413D03*
X0080970Y0007213D03*
X0070370Y0014913D03*
X0064570Y0015413D03*
X0064270Y0005213D03*
X0053070Y0007213D03*
X0060986Y0029459D03*
X0059805Y0035759D03*
X0055270Y0038713D03*
X0054270Y0044213D03*
X0057070Y0044213D03*
X0065317Y0043239D03*
X0070170Y0051713D03*
X0070041Y0056625D03*
X0067770Y0060413D03*
X0064530Y0062924D03*
X0129070Y0005213D03*
X0166593Y0005050D03*
X0167670Y0010213D03*
X0132640Y0078672D03*
X0170370Y0115313D03*
X0179170Y0117313D03*
X0181459Y0099932D03*
X0121870Y0167913D03*
X0119270Y0175113D03*
X0091670Y0189513D03*
X0086370Y0182313D03*
X0085470Y0212813D03*
X0074670Y0214813D03*
X0070570Y0214013D03*
X0056970Y0213613D03*
X0050570Y0206713D03*
X0047870Y0200313D03*
X0053270Y0188113D03*
X0053270Y0182113D03*
X0115370Y0209613D03*
D11*
X0067470Y0014113D03*
X0061755Y0014124D03*
D12*
X0062380Y0033003D03*
X0081852Y0049538D03*
X0086652Y0055444D03*
X0091270Y0049113D03*
X0091620Y0042770D03*
X0099770Y0035113D03*
X0099770Y0021613D03*
X0112561Y0030641D03*
X0122270Y0022113D03*
X0135002Y0008200D03*
X0140770Y0016113D03*
X0122270Y0041113D03*
X0112167Y0044026D03*
X0112770Y0058113D03*
X0108687Y0061349D03*
X0126128Y0061956D03*
X0134270Y0056113D03*
X0141270Y0047613D03*
X0086120Y0010904D03*
X0121029Y0120404D03*
X0095270Y0174513D03*
X0095309Y0187152D03*
D13*
X0052270Y0100113D03*
X0048270Y0006113D03*
X0180270Y0046113D03*
X0180270Y0112113D03*
D14*
X0046170Y0078113D02*
X0046170Y0038713D01*
X0048270Y0036613D01*
X0049670Y0036613D01*
X0052270Y0041713D02*
X0055270Y0038713D01*
X0052270Y0041713D02*
X0052270Y0048813D01*
X0049570Y0051513D01*
X0049570Y0066113D01*
X0052170Y0068713D01*
X0052170Y0073813D01*
X0053170Y0074813D01*
X0053170Y0081813D01*
X0088470Y0117113D01*
X0088470Y0118213D01*
X0086470Y0119013D02*
X0088570Y0121113D01*
X0094270Y0121113D01*
X0096770Y0123613D01*
X0100170Y0123613D01*
X0102470Y0121313D01*
X0105270Y0118813D02*
X0131170Y0092913D01*
X0138570Y0092913D01*
X0138570Y0087813D01*
X0139570Y0086813D01*
X0139570Y0057913D01*
X0147770Y0049713D01*
X0147770Y0008213D01*
X0167570Y0030913D02*
X0167570Y0035513D01*
X0143070Y0060013D01*
X0143070Y0090913D01*
X0147570Y0092913D02*
X0156270Y0084213D01*
X0156670Y0082113D02*
X0158270Y0082113D01*
X0156670Y0082113D02*
X0151070Y0076513D01*
X0151070Y0062713D01*
X0158970Y0078613D02*
X0160270Y0079913D01*
X0160270Y0082913D01*
X0159170Y0084013D01*
X0159170Y0089613D01*
X0147570Y0092913D02*
X0138570Y0092913D01*
X0105270Y0118813D02*
X0096770Y0118813D01*
X0093970Y0118813D02*
X0093970Y0116913D01*
X0088270Y0111213D01*
X0084070Y0111213D01*
X0057070Y0084213D01*
X0057070Y0064613D01*
X0056570Y0064113D01*
X0056570Y0058613D01*
X0057170Y0058013D01*
X0058570Y0063313D02*
X0072370Y0077113D01*
X0072370Y0096313D01*
X0085270Y0109213D01*
X0088070Y0109213D02*
X0094970Y0102313D01*
X0094970Y0093613D01*
X0096470Y0092113D01*
X0096470Y0069713D01*
X0075770Y0049013D01*
X0075770Y0035713D01*
X0057070Y0044213D02*
X0057070Y0046913D01*
X0081270Y0071113D01*
X0081270Y0073213D01*
X0090470Y0082413D01*
X0094470Y0082413D01*
X0092070Y0087513D02*
X0088070Y0091513D01*
X0088070Y0106413D01*
X0086470Y0116713D02*
X0086470Y0119013D01*
X0086470Y0116713D02*
X0052670Y0082913D01*
X0050970Y0082913D01*
X0046170Y0078113D01*
X0061370Y0125513D02*
X0088270Y0125513D01*
X0061370Y0125513D02*
X0050570Y0136313D01*
X0050570Y0206713D01*
D15*
X0062270Y0009713D03*
M02*
