G75*
%MOIN*%
%OFA0B0*%
%FSLAX25Y25*%
%IPPOS*%
%LPD*%
%AMOC8*
5,1,8,0,0,1.08239X$1,22.5*
%
%ADD10R,0.07493X0.16942*%
%ADD11R,0.05524X0.05524*%
%ADD12C,0.01981*%
%ADD13R,0.02375X0.01981*%
%ADD14R,0.01981X0.02375*%
%ADD15R,0.02769X0.03162*%
%ADD16R,0.03162X0.02769*%
%ADD17C,0.01883*%
%ADD18R,0.03162X0.01686*%
%ADD19R,0.03162X0.01981*%
%ADD20R,0.01981X0.03162*%
%ADD21C,0.02572*%
%ADD22R,0.04146X0.02572*%
%ADD23R,0.07099X0.10643*%
%ADD24R,0.05918X0.09461*%
%ADD25R,0.03556X0.04343*%
%ADD26R,0.04343X0.03556*%
%ADD27C,0.03162*%
%ADD28R,0.03162X0.03950*%
%ADD29R,0.05131X0.04737*%
%ADD30R,0.02375X0.01587*%
%ADD31R,0.01587X0.02375*%
%ADD32R,0.12217X0.12217*%
%ADD33R,0.06312X0.14186*%
%ADD34R,0.04343X0.14186*%
%ADD35C,0.03800*%
%ADD36OC8,0.06800*%
%ADD37C,0.04200*%
D10*
X0097407Y0062024D03*
X0105407Y0042024D03*
X0105407Y0022024D03*
X0127907Y0022024D03*
X0127907Y0042024D03*
X0119907Y0062024D03*
X0142407Y0062024D03*
X0150407Y0042024D03*
X0150407Y0022024D03*
D11*
X0135052Y0016315D03*
X0135052Y0036315D03*
X0127052Y0056315D03*
X0112552Y0036315D03*
X0112552Y0016315D03*
X0090052Y0016315D03*
X0090052Y0036315D03*
X0082052Y0056315D03*
X0104552Y0056315D03*
D12*
X0149534Y0067444D03*
X0151502Y0067444D03*
X0153471Y0067444D03*
X0153471Y0069412D03*
X0153471Y0071381D03*
X0151502Y0071381D03*
X0149534Y0071381D03*
X0149534Y0069412D03*
D13*
X0126541Y0078641D03*
X0126541Y0080609D03*
X0126541Y0082578D03*
X0126541Y0084546D03*
X0126541Y0086515D03*
X0116305Y0086515D03*
X0116305Y0084546D03*
X0116305Y0082578D03*
X0116305Y0080609D03*
X0116305Y0078641D03*
X0065199Y0071408D03*
X0065199Y0068259D03*
X0057325Y0068259D03*
X0057325Y0071408D03*
D14*
X0058900Y0073770D03*
X0061262Y0073770D03*
X0063624Y0073770D03*
X0063624Y0065896D03*
X0061262Y0065896D03*
X0058900Y0065896D03*
X0119455Y0077459D03*
X0121423Y0077459D03*
X0123392Y0077459D03*
X0123392Y0087696D03*
X0121423Y0087696D03*
X0119455Y0087696D03*
D15*
X0163301Y0082940D03*
D16*
X0163498Y0077231D03*
X0169404Y0077231D03*
X0175309Y0077231D03*
X0175309Y0088648D03*
X0169404Y0088648D03*
X0163498Y0088648D03*
D17*
X0153388Y0061074D03*
X0153388Y0059105D03*
X0153388Y0057137D03*
X0153388Y0055168D03*
X0149451Y0055168D03*
X0149451Y0057137D03*
X0149451Y0059105D03*
X0149451Y0061074D03*
D18*
X0067187Y0058259D03*
X0067187Y0056684D03*
X0067187Y0055109D03*
X0067187Y0053534D03*
X0067187Y0051959D03*
X0060100Y0051959D03*
X0060100Y0053534D03*
X0060100Y0055109D03*
X0060100Y0056684D03*
X0060100Y0058259D03*
D19*
X0067459Y0089019D03*
X0067459Y0090987D03*
X0067459Y0092956D03*
X0077301Y0092956D03*
X0077301Y0090987D03*
X0077301Y0089019D03*
D20*
X0076317Y0086066D03*
X0074349Y0086066D03*
X0072380Y0086066D03*
X0070412Y0086066D03*
X0068443Y0086066D03*
X0068443Y0095908D03*
X0070412Y0095908D03*
X0072380Y0095908D03*
X0074349Y0095908D03*
X0076317Y0095908D03*
D21*
X0138987Y0096404D02*
X0140561Y0096404D01*
X0140561Y0100341D02*
X0138987Y0100341D01*
X0138987Y0104278D02*
X0140561Y0104278D01*
X0150404Y0100341D02*
X0151978Y0100341D01*
X0151978Y0096404D02*
X0150404Y0096404D01*
D22*
X0151191Y0104278D03*
D23*
X0145482Y0100341D03*
D24*
X0131849Y0107889D03*
X0115314Y0107889D03*
D25*
X0114262Y0093578D03*
X0119380Y0093578D03*
X0159427Y0058656D03*
X0159396Y0053924D03*
X0164514Y0053924D03*
X0164545Y0058656D03*
X0075427Y0101932D03*
X0070309Y0101932D03*
X0060435Y0084727D03*
X0060404Y0080270D03*
X0055286Y0080270D03*
X0055317Y0084727D03*
X0068396Y0043318D03*
X0073514Y0043318D03*
X0072514Y0023349D03*
X0072514Y0018349D03*
X0067396Y0018349D03*
X0067396Y0023349D03*
D26*
X0061834Y0023357D03*
X0061834Y0018239D03*
X0079742Y0039853D03*
X0084136Y0039853D03*
X0084136Y0044971D03*
X0079742Y0044971D03*
X0082955Y0031483D03*
X0082955Y0026365D03*
X0082955Y0021483D03*
X0082955Y0016365D03*
X0053978Y0055625D03*
X0049317Y0055625D03*
X0049317Y0060743D03*
X0053978Y0060743D03*
X0051270Y0088554D03*
X0051270Y0093672D03*
X0057270Y0095672D03*
X0057270Y0090554D03*
X0075955Y0116365D03*
X0075955Y0121483D03*
X0083455Y0121483D03*
X0083455Y0116365D03*
X0124070Y0097872D03*
X0124070Y0092754D03*
X0129670Y0092754D03*
X0129670Y0097872D03*
X0147585Y0110294D03*
X0147585Y0115412D03*
X0155341Y0115373D03*
X0155341Y0110255D03*
X0171317Y0099806D03*
X0176128Y0099806D03*
X0176128Y0094688D03*
X0171317Y0094688D03*
X0160923Y0070483D03*
X0160923Y0065365D03*
D27*
X0168470Y0034313D03*
X0164670Y0030913D03*
X0164470Y0023713D03*
X0161270Y0013113D03*
X0150670Y0008313D03*
X0111923Y0077300D03*
X0117481Y0121913D03*
X0133270Y0123113D03*
X0100153Y0123113D03*
X0055270Y0033113D03*
X0055270Y0027113D03*
X0055270Y0009113D03*
D28*
X0066215Y0029003D03*
X0069955Y0029003D03*
X0073695Y0029003D03*
X0073695Y0038845D03*
X0069955Y0038845D03*
X0066215Y0038845D03*
D29*
X0066821Y0047924D03*
X0073514Y0047924D03*
D30*
X0090711Y0104066D03*
X0090711Y0106034D03*
X0090711Y0108003D03*
X0090711Y0109971D03*
X0090711Y0111940D03*
X0090711Y0113908D03*
X0105278Y0113908D03*
X0105278Y0111940D03*
X0105278Y0109971D03*
X0105278Y0108003D03*
X0105278Y0106034D03*
X0105278Y0104066D03*
D31*
X0102915Y0101704D03*
X0100947Y0101704D03*
X0098978Y0101704D03*
X0097010Y0101704D03*
X0095041Y0101704D03*
X0093073Y0101704D03*
X0093073Y0116270D03*
X0095041Y0116270D03*
X0097010Y0116270D03*
X0098978Y0116270D03*
X0100947Y0116270D03*
X0102915Y0116270D03*
D32*
X0097994Y0108987D03*
D33*
X0129679Y0196466D03*
X0119837Y0205521D03*
X0109994Y0205521D03*
X0100152Y0205521D03*
X0090309Y0205521D03*
X0080467Y0205521D03*
X0070624Y0205521D03*
X0060782Y0205521D03*
D34*
X0054089Y0205521D03*
D35*
X0095309Y0187152D03*
X0095270Y0174513D03*
X0121029Y0120404D03*
X0126128Y0061956D03*
X0134270Y0056113D03*
X0141270Y0047613D03*
X0122270Y0041113D03*
X0112561Y0030641D03*
X0122270Y0022113D03*
X0135002Y0008200D03*
X0140770Y0016113D03*
X0112167Y0044026D03*
X0099770Y0035113D03*
X0091620Y0042770D03*
X0091270Y0049113D03*
X0086652Y0055444D03*
X0081852Y0049538D03*
X0062380Y0033003D03*
X0086120Y0010904D03*
X0099770Y0021613D03*
X0112770Y0058113D03*
X0108687Y0061349D03*
D36*
X0048270Y0006113D03*
X0052270Y0100113D03*
X0180270Y0112113D03*
X0180270Y0046113D03*
D37*
X0062270Y0009713D03*
M02*
