G75*
%MOIN*%
%OFA0B0*%
%FSLAX25Y25*%
%IPPOS*%
%LPD*%
%AMOC8*
5,1,8,0,0,1.08239X$1,22.5*
%
%ADD10C,0.02200*%
%ADD11C,0.02400*%
%ADD12C,0.03000*%
%ADD13C,0.06000*%
%ADD14C,0.03400*%
%ADD15C,0.01600*%
D10*
X0048388Y0016861D03*
X0048388Y0020798D03*
X0048670Y0023613D03*
X0052770Y0022713D03*
X0050970Y0029313D03*
X0049963Y0033396D03*
X0047600Y0033396D03*
X0049670Y0036613D03*
X0048388Y0039302D03*
X0048388Y0042452D03*
X0048388Y0045601D03*
X0049870Y0048413D03*
X0053900Y0051900D03*
X0057170Y0052813D03*
X0057170Y0058013D03*
X0060199Y0060956D03*
X0058570Y0063313D03*
X0054370Y0066913D03*
X0051537Y0065286D03*
X0050170Y0069913D03*
X0048170Y0072713D03*
X0051144Y0080247D03*
X0051270Y0084913D03*
X0059170Y0076413D03*
X0055081Y0073948D03*
X0054770Y0071113D03*
X0065370Y0075813D03*
X0065317Y0078672D03*
X0068270Y0075913D03*
X0076728Y0081822D03*
X0077915Y0077491D03*
X0077915Y0071979D03*
X0083271Y0072360D03*
X0086770Y0068613D03*
X0091070Y0073013D03*
X0094057Y0073554D03*
X0092370Y0077513D03*
X0094470Y0082413D03*
X0092070Y0087513D03*
X0091270Y0091213D03*
X0094396Y0091357D03*
X0096970Y0096413D03*
X0097070Y0099213D03*
X0100870Y0099213D03*
X0111770Y0088613D03*
X0114270Y0097913D03*
X0119670Y0097913D03*
X0132640Y0086546D03*
X0134970Y0084613D03*
X0135370Y0087813D03*
X0137570Y0086013D03*
X0140570Y0088613D03*
X0143070Y0090913D03*
X0151144Y0092845D03*
X0159170Y0089613D03*
X0156270Y0084213D03*
X0158270Y0082113D03*
X0158970Y0078613D03*
X0156081Y0078672D03*
X0153670Y0076313D03*
X0147600Y0065286D03*
X0151070Y0062713D03*
X0147600Y0052688D03*
X0137770Y0041613D03*
X0141270Y0034113D03*
X0145632Y0031428D03*
X0144970Y0024713D03*
X0141695Y0021979D03*
X0150070Y0012213D03*
X0147770Y0008213D03*
X0155470Y0025313D03*
X0155770Y0030613D03*
X0161570Y0023713D03*
X0165470Y0027313D03*
X0167570Y0030913D03*
X0171370Y0034313D03*
X0164923Y0043633D03*
X0164530Y0049932D03*
X0159412Y0049932D03*
X0165070Y0065313D03*
X0168870Y0066913D03*
X0165070Y0070513D03*
X0176734Y0065286D03*
X0180470Y0065113D03*
X0181065Y0061743D03*
X0176734Y0054656D03*
X0181459Y0083003D03*
X0167286Y0094814D03*
X0165530Y0092345D03*
X0165317Y0102294D03*
X0159018Y0102688D03*
X0154570Y0105013D03*
X0159412Y0110168D03*
X0151537Y0112924D03*
X0134370Y0115113D03*
X0112582Y0114351D03*
X0111870Y0119313D03*
X0102470Y0121313D03*
X0097570Y0121613D03*
X0096770Y0118813D03*
X0093970Y0118813D03*
X0090270Y0116013D03*
X0088470Y0118213D03*
X0091270Y0123113D03*
X0088270Y0125513D03*
X0088070Y0109213D03*
X0088070Y0106413D03*
X0085270Y0109213D03*
X0081852Y0092852D03*
X0083821Y0090677D03*
X0074370Y0093013D03*
X0064530Y0088908D03*
X0063770Y0085213D03*
X0064530Y0097570D03*
X0062167Y0100719D03*
X0059970Y0098913D03*
X0051537Y0111349D03*
X0060593Y0122373D03*
X0064923Y0121349D03*
X0102144Y0084952D03*
X0088152Y0058600D03*
X0088952Y0052688D03*
X0082215Y0036152D03*
X0079370Y0035913D03*
X0075770Y0035713D03*
X0075170Y0032313D03*
X0078770Y0031613D03*
X0087270Y0024113D03*
X0092770Y0007513D03*
X0104470Y0007413D03*
X0080970Y0007213D03*
X0070370Y0014913D03*
X0064570Y0015413D03*
X0064270Y0005213D03*
X0053070Y0007213D03*
X0060986Y0029459D03*
X0059805Y0035759D03*
X0055270Y0038713D03*
X0054270Y0044213D03*
X0057070Y0044213D03*
X0065317Y0043239D03*
X0070170Y0051713D03*
X0070041Y0056625D03*
X0067770Y0060413D03*
X0064530Y0062924D03*
X0129070Y0005213D03*
X0166593Y0005050D03*
X0167670Y0010213D03*
X0132640Y0078672D03*
X0170370Y0115313D03*
X0179170Y0117313D03*
X0181459Y0099932D03*
X0121870Y0167913D03*
X0119270Y0175113D03*
X0091670Y0189513D03*
X0086370Y0182313D03*
X0085470Y0212813D03*
X0074670Y0214813D03*
X0070570Y0214013D03*
X0056970Y0213613D03*
X0050570Y0206713D03*
X0047870Y0200313D03*
X0053270Y0188113D03*
X0053270Y0182113D03*
X0115370Y0209613D03*
D11*
X0067470Y0014113D03*
X0061755Y0014124D03*
D12*
X0062380Y0033003D03*
X0081852Y0049538D03*
X0086652Y0055444D03*
X0091270Y0049113D03*
X0091620Y0042770D03*
X0099770Y0035113D03*
X0099770Y0021613D03*
X0112561Y0030641D03*
X0122270Y0022113D03*
X0135002Y0008200D03*
X0140770Y0016113D03*
X0122270Y0041113D03*
X0112167Y0044026D03*
X0112770Y0058113D03*
X0108687Y0061349D03*
X0126128Y0061956D03*
X0134270Y0056113D03*
X0141270Y0047613D03*
X0086120Y0010904D03*
X0121029Y0120404D03*
X0095270Y0174513D03*
X0095309Y0187152D03*
D13*
X0052270Y0100113D03*
X0048270Y0006113D03*
X0180270Y0046113D03*
X0180270Y0112113D03*
D14*
X0062270Y0009713D03*
D15*
X0047207Y0005050D02*
X0047207Y0014644D01*
X0047891Y0014361D01*
X0048885Y0014361D01*
X0049804Y0014742D01*
X0050507Y0015445D01*
X0050888Y0016364D01*
X0050888Y0017358D01*
X0050507Y0018277D01*
X0049955Y0018830D01*
X0050507Y0019382D01*
X0050888Y0020301D01*
X0050888Y0021059D01*
X0051354Y0020594D01*
X0052272Y0020213D01*
X0053267Y0020213D01*
X0054186Y0020594D01*
X0054889Y0021297D01*
X0055270Y0022216D01*
X0055270Y0023210D01*
X0054889Y0024129D01*
X0054186Y0024832D01*
X0053267Y0025213D01*
X0052272Y0025213D01*
X0051354Y0024832D01*
X0051012Y0024491D01*
X0050789Y0025029D01*
X0050086Y0025732D01*
X0049167Y0026113D01*
X0048172Y0026113D01*
X0047254Y0025732D01*
X0047207Y0025686D01*
X0047207Y0030896D01*
X0048098Y0030896D01*
X0048782Y0031180D01*
X0049149Y0031028D01*
X0048850Y0030729D01*
X0048470Y0029810D01*
X0048470Y0028816D01*
X0048850Y0027897D01*
X0049554Y0027194D01*
X0050472Y0026813D01*
X0051467Y0026813D01*
X0052386Y0027194D01*
X0053089Y0027897D01*
X0053470Y0028816D01*
X0053470Y0029810D01*
X0053089Y0030729D01*
X0052386Y0031432D01*
X0051784Y0031682D01*
X0052082Y0031980D01*
X0052463Y0032899D01*
X0052463Y0033894D01*
X0052082Y0034813D01*
X0051743Y0035151D01*
X0051789Y0035197D01*
X0052170Y0036116D01*
X0052170Y0037110D01*
X0051789Y0038029D01*
X0051086Y0038732D01*
X0050888Y0038814D01*
X0050888Y0039799D01*
X0050507Y0040718D01*
X0050349Y0040877D01*
X0050507Y0041035D01*
X0050888Y0041954D01*
X0050888Y0042949D01*
X0050507Y0043868D01*
X0050349Y0044026D01*
X0050507Y0044185D01*
X0050888Y0045104D01*
X0050888Y0046098D01*
X0050877Y0046124D01*
X0051286Y0046294D01*
X0051989Y0046997D01*
X0052370Y0047916D01*
X0052370Y0048910D01*
X0051989Y0049829D01*
X0051286Y0050532D01*
X0050367Y0050913D01*
X0049372Y0050913D01*
X0048454Y0050532D01*
X0047750Y0049829D01*
X0047370Y0048910D01*
X0047370Y0047916D01*
X0047380Y0047890D01*
X0047207Y0047818D01*
X0047207Y0070406D01*
X0047670Y0070214D01*
X0047670Y0069416D01*
X0048050Y0068497D01*
X0048754Y0067794D01*
X0049672Y0067413D01*
X0050139Y0067413D01*
X0050121Y0067406D01*
X0049418Y0066702D01*
X0049037Y0065784D01*
X0049037Y0064789D01*
X0049418Y0063870D01*
X0050121Y0063167D01*
X0051040Y0062786D01*
X0052035Y0062786D01*
X0052954Y0063167D01*
X0053657Y0063870D01*
X0054037Y0064789D01*
X0054037Y0065784D01*
X0053657Y0066702D01*
X0052954Y0067406D01*
X0052035Y0067786D01*
X0051568Y0067786D01*
X0051586Y0067794D01*
X0052289Y0068497D01*
X0052670Y0069416D01*
X0052670Y0069677D01*
X0053354Y0068994D01*
X0054272Y0068613D01*
X0055267Y0068613D01*
X0056186Y0068994D01*
X0056889Y0069697D01*
X0057270Y0070616D01*
X0057270Y0071610D01*
X0056980Y0072311D01*
X0057200Y0072531D01*
X0057581Y0073450D01*
X0057581Y0074445D01*
X0057566Y0074482D01*
X0057754Y0074294D01*
X0058672Y0073913D01*
X0059667Y0073913D01*
X0060586Y0074294D01*
X0061289Y0074997D01*
X0061670Y0075916D01*
X0061670Y0076910D01*
X0061289Y0077829D01*
X0060586Y0078532D01*
X0059667Y0078913D01*
X0058672Y0078913D01*
X0057754Y0078532D01*
X0057050Y0077829D01*
X0056670Y0076910D01*
X0056670Y0075916D01*
X0056685Y0075879D01*
X0056497Y0076067D01*
X0055578Y0076448D01*
X0054584Y0076448D01*
X0053665Y0076067D01*
X0052961Y0075364D01*
X0052581Y0074445D01*
X0052581Y0073450D01*
X0052871Y0072750D01*
X0052650Y0072529D01*
X0052270Y0071610D01*
X0052270Y0071348D01*
X0051586Y0072032D01*
X0050670Y0072412D01*
X0050670Y0073210D01*
X0050289Y0074129D01*
X0049586Y0074832D01*
X0048667Y0075213D01*
X0047672Y0075213D01*
X0047207Y0075020D01*
X0047207Y0127160D01*
X0086381Y0127160D01*
X0086150Y0126929D01*
X0085770Y0126010D01*
X0085770Y0125016D01*
X0086150Y0124097D01*
X0086854Y0123394D01*
X0087772Y0123013D01*
X0088767Y0123013D01*
X0088770Y0123014D01*
X0088770Y0122616D01*
X0089150Y0121697D01*
X0089854Y0120994D01*
X0090772Y0120613D01*
X0091767Y0120613D01*
X0092686Y0120994D01*
X0093389Y0121697D01*
X0093770Y0122616D01*
X0093770Y0123610D01*
X0093389Y0124529D01*
X0092686Y0125232D01*
X0091767Y0125613D01*
X0090772Y0125613D01*
X0090770Y0125612D01*
X0090770Y0126010D01*
X0090389Y0126929D01*
X0090158Y0127160D01*
X0181065Y0127160D01*
X0181065Y0118953D01*
X0180586Y0119432D01*
X0179667Y0119813D01*
X0178672Y0119813D01*
X0177754Y0119432D01*
X0177050Y0118729D01*
X0176670Y0117810D01*
X0176670Y0116816D01*
X0177050Y0115897D01*
X0177441Y0115506D01*
X0176540Y0114605D01*
X0175870Y0112988D01*
X0175870Y0111238D01*
X0176540Y0109621D01*
X0177777Y0108383D01*
X0179395Y0107713D01*
X0181065Y0107713D01*
X0181065Y0102432D01*
X0180961Y0102432D01*
X0180043Y0102051D01*
X0179339Y0101348D01*
X0178959Y0100429D01*
X0178959Y0099435D01*
X0179339Y0098516D01*
X0180043Y0097812D01*
X0180961Y0097432D01*
X0181065Y0097432D01*
X0181065Y0085503D01*
X0180961Y0085503D01*
X0180043Y0085122D01*
X0179339Y0084419D01*
X0178959Y0083500D01*
X0178959Y0082505D01*
X0179339Y0081587D01*
X0180043Y0080883D01*
X0180961Y0080503D01*
X0181065Y0080503D01*
X0181065Y0067572D01*
X0180967Y0067613D01*
X0179972Y0067613D01*
X0179054Y0067232D01*
X0178350Y0066529D01*
X0177970Y0065610D01*
X0177970Y0064616D01*
X0178350Y0063697D01*
X0178929Y0063118D01*
X0178565Y0062240D01*
X0178565Y0061246D01*
X0178946Y0060327D01*
X0179649Y0059624D01*
X0180568Y0059243D01*
X0181065Y0059243D01*
X0181065Y0050513D01*
X0179395Y0050513D01*
X0177777Y0049843D01*
X0176540Y0048605D01*
X0175870Y0046988D01*
X0175870Y0045238D01*
X0176208Y0044420D01*
X0169254Y0044420D01*
X0169254Y0035733D01*
X0169250Y0035729D01*
X0168870Y0034810D01*
X0168870Y0033816D01*
X0169250Y0032897D01*
X0169254Y0032893D01*
X0169254Y0032764D01*
X0168986Y0033032D01*
X0168067Y0033413D01*
X0167072Y0033413D01*
X0166154Y0033032D01*
X0165450Y0032329D01*
X0165070Y0031410D01*
X0165070Y0030416D01*
X0165319Y0029813D01*
X0164972Y0029813D01*
X0164054Y0029432D01*
X0163350Y0028729D01*
X0162970Y0027810D01*
X0162970Y0026816D01*
X0163350Y0025897D01*
X0164054Y0025194D01*
X0164972Y0024813D01*
X0165967Y0024813D01*
X0166886Y0025194D01*
X0167589Y0025897D01*
X0167970Y0026816D01*
X0167970Y0027810D01*
X0167720Y0028413D01*
X0168067Y0028413D01*
X0168986Y0028794D01*
X0169254Y0029062D01*
X0169254Y0012164D01*
X0169086Y0012332D01*
X0168167Y0012713D01*
X0167172Y0012713D01*
X0166254Y0012332D01*
X0165550Y0011629D01*
X0165170Y0010710D01*
X0165170Y0009716D01*
X0165550Y0008797D01*
X0166254Y0008094D01*
X0167172Y0007713D01*
X0168167Y0007713D01*
X0169086Y0008094D01*
X0169254Y0008262D01*
X0169254Y0005050D01*
X0169093Y0005050D01*
X0169093Y0005547D01*
X0168712Y0006466D01*
X0168009Y0007169D01*
X0167090Y0007550D01*
X0166095Y0007550D01*
X0165176Y0007169D01*
X0164473Y0006466D01*
X0164093Y0005547D01*
X0164093Y0005050D01*
X0131570Y0005050D01*
X0131570Y0005710D01*
X0131189Y0006629D01*
X0130486Y0007332D01*
X0129567Y0007713D01*
X0128572Y0007713D01*
X0127654Y0007332D01*
X0126950Y0006629D01*
X0126570Y0005710D01*
X0126570Y0005050D01*
X0105298Y0005050D01*
X0105886Y0005294D01*
X0106589Y0005997D01*
X0106970Y0006916D01*
X0106970Y0007910D01*
X0106589Y0008829D01*
X0105886Y0009532D01*
X0104967Y0009913D01*
X0103972Y0009913D01*
X0103054Y0009532D01*
X0102350Y0008829D01*
X0101970Y0007910D01*
X0101970Y0006916D01*
X0102350Y0005997D01*
X0103054Y0005294D01*
X0103642Y0005050D01*
X0082281Y0005050D01*
X0082386Y0005094D01*
X0083089Y0005797D01*
X0083470Y0006716D01*
X0083470Y0007710D01*
X0083089Y0008629D01*
X0082386Y0009332D01*
X0081467Y0009713D01*
X0080472Y0009713D01*
X0079554Y0009332D01*
X0078850Y0008629D01*
X0078470Y0007710D01*
X0078470Y0006716D01*
X0078850Y0005797D01*
X0079554Y0005094D01*
X0079659Y0005050D01*
X0066770Y0005050D01*
X0066770Y0005710D01*
X0066389Y0006629D01*
X0065686Y0007332D01*
X0064767Y0007713D01*
X0064654Y0007713D01*
X0064898Y0007957D01*
X0065370Y0009096D01*
X0065370Y0010330D01*
X0064898Y0011469D01*
X0064026Y0012341D01*
X0063759Y0012451D01*
X0063959Y0012651D01*
X0064068Y0012915D01*
X0064072Y0012913D01*
X0065067Y0012913D01*
X0065140Y0012943D01*
X0065266Y0012640D01*
X0065997Y0011909D01*
X0066953Y0011513D01*
X0067987Y0011513D01*
X0068943Y0011909D01*
X0069571Y0012538D01*
X0069872Y0012413D01*
X0070867Y0012413D01*
X0071786Y0012794D01*
X0072489Y0013497D01*
X0072870Y0014416D01*
X0072870Y0015410D01*
X0072489Y0016329D01*
X0071786Y0017032D01*
X0070867Y0017413D01*
X0069872Y0017413D01*
X0068954Y0017032D01*
X0068445Y0016523D01*
X0067987Y0016713D01*
X0066953Y0016713D01*
X0066769Y0016637D01*
X0066689Y0016829D01*
X0065986Y0017532D01*
X0065067Y0017913D01*
X0064072Y0017913D01*
X0063154Y0017532D01*
X0062450Y0016829D01*
X0062387Y0016676D01*
X0062272Y0016724D01*
X0061238Y0016724D01*
X0060282Y0016328D01*
X0059551Y0015597D01*
X0059155Y0014641D01*
X0059155Y0013607D01*
X0059551Y0012651D01*
X0060187Y0012015D01*
X0059642Y0011469D01*
X0059170Y0010330D01*
X0059170Y0009096D01*
X0059642Y0007957D01*
X0060514Y0007085D01*
X0061653Y0006613D01*
X0062144Y0006613D01*
X0061770Y0005710D01*
X0061770Y0005050D01*
X0054381Y0005050D01*
X0054486Y0005094D01*
X0055189Y0005797D01*
X0055570Y0006716D01*
X0055570Y0007710D01*
X0055189Y0008629D01*
X0054486Y0009332D01*
X0053567Y0009713D01*
X0052572Y0009713D01*
X0051654Y0009332D01*
X0050950Y0008629D01*
X0050570Y0007710D01*
X0050570Y0006716D01*
X0050950Y0005797D01*
X0051654Y0005094D01*
X0051759Y0005050D01*
X0047207Y0005050D01*
X0047207Y0005909D02*
X0050904Y0005909D01*
X0050570Y0007507D02*
X0047207Y0007507D01*
X0047207Y0009106D02*
X0051427Y0009106D01*
X0054713Y0009106D02*
X0059170Y0009106D01*
X0059325Y0010704D02*
X0047207Y0010704D01*
X0047207Y0012303D02*
X0059899Y0012303D01*
X0059155Y0013901D02*
X0047207Y0013901D01*
X0050530Y0015500D02*
X0059510Y0015500D01*
X0062719Y0017098D02*
X0050888Y0017098D01*
X0050088Y0018697D02*
X0139429Y0018697D01*
X0139127Y0018571D02*
X0138311Y0017756D01*
X0137870Y0016690D01*
X0137870Y0015536D01*
X0138311Y0014470D01*
X0139127Y0013654D01*
X0140193Y0013213D01*
X0141347Y0013213D01*
X0142412Y0013654D01*
X0143228Y0014470D01*
X0143670Y0015536D01*
X0143670Y0016690D01*
X0143228Y0017756D01*
X0142412Y0018571D01*
X0141347Y0019013D01*
X0140193Y0019013D01*
X0139127Y0018571D01*
X0138039Y0017098D02*
X0071627Y0017098D01*
X0072833Y0015500D02*
X0137885Y0015500D01*
X0138880Y0013901D02*
X0072657Y0013901D01*
X0069336Y0012303D02*
X0083560Y0012303D01*
X0083662Y0012547D02*
X0083220Y0011481D01*
X0083220Y0010327D01*
X0083662Y0009262D01*
X0084477Y0008446D01*
X0085543Y0008004D01*
X0086697Y0008004D01*
X0087763Y0008446D01*
X0088579Y0009262D01*
X0089020Y0010327D01*
X0089020Y0011481D01*
X0088579Y0012547D01*
X0087763Y0013363D01*
X0086697Y0013804D01*
X0085543Y0013804D01*
X0084477Y0013363D01*
X0083662Y0012547D01*
X0083220Y0010704D02*
X0065215Y0010704D01*
X0065370Y0009106D02*
X0079327Y0009106D01*
X0078470Y0007507D02*
X0065264Y0007507D01*
X0066688Y0005909D02*
X0078804Y0005909D01*
X0083135Y0005909D02*
X0102439Y0005909D01*
X0101970Y0007507D02*
X0083470Y0007507D01*
X0083818Y0009106D02*
X0082613Y0009106D01*
X0088423Y0009106D02*
X0102627Y0009106D01*
X0106313Y0009106D02*
X0132238Y0009106D01*
X0132102Y0008776D02*
X0132544Y0009842D01*
X0133359Y0010658D01*
X0134425Y0011100D01*
X0135579Y0011100D01*
X0136645Y0010658D01*
X0137461Y0009842D01*
X0137902Y0008776D01*
X0137902Y0007623D01*
X0137461Y0006557D01*
X0136645Y0005741D01*
X0135579Y0005300D01*
X0134425Y0005300D01*
X0133359Y0005741D01*
X0132544Y0006557D01*
X0132102Y0007623D01*
X0132102Y0008776D01*
X0132150Y0007507D02*
X0130064Y0007507D01*
X0128075Y0007507D02*
X0106970Y0007507D01*
X0106501Y0005909D02*
X0126652Y0005909D01*
X0131488Y0005909D02*
X0133192Y0005909D01*
X0136812Y0005909D02*
X0146800Y0005909D01*
X0146354Y0006094D02*
X0147272Y0005713D01*
X0148267Y0005713D01*
X0149186Y0006094D01*
X0149889Y0006797D01*
X0150270Y0007716D01*
X0150270Y0008710D01*
X0149889Y0009629D01*
X0149805Y0009713D01*
X0150567Y0009713D01*
X0151486Y0010094D01*
X0152189Y0010797D01*
X0152570Y0011716D01*
X0152570Y0012710D01*
X0152189Y0013629D01*
X0151486Y0014332D01*
X0150567Y0014713D01*
X0149572Y0014713D01*
X0148654Y0014332D01*
X0147950Y0013629D01*
X0147570Y0012710D01*
X0147570Y0011716D01*
X0147950Y0010797D01*
X0148034Y0010713D01*
X0147272Y0010713D01*
X0146354Y0010332D01*
X0145650Y0009629D01*
X0145270Y0008710D01*
X0145270Y0007716D01*
X0145650Y0006797D01*
X0146354Y0006094D01*
X0145356Y0007507D02*
X0137854Y0007507D01*
X0137766Y0009106D02*
X0145434Y0009106D01*
X0147251Y0010704D02*
X0136534Y0010704D01*
X0133470Y0010704D02*
X0089020Y0010704D01*
X0088680Y0012303D02*
X0147570Y0012303D01*
X0148222Y0013901D02*
X0142659Y0013901D01*
X0143655Y0015500D02*
X0169254Y0015500D01*
X0169254Y0017098D02*
X0143501Y0017098D01*
X0142110Y0018697D02*
X0169254Y0018697D01*
X0169254Y0020295D02*
X0124553Y0020295D01*
X0124728Y0020470D02*
X0125170Y0021536D01*
X0125170Y0022690D01*
X0124728Y0023756D01*
X0123912Y0024571D01*
X0122847Y0025013D01*
X0121693Y0025013D01*
X0120627Y0024571D01*
X0119811Y0023756D01*
X0119370Y0022690D01*
X0119370Y0021536D01*
X0119811Y0020470D01*
X0120627Y0019654D01*
X0121693Y0019213D01*
X0122847Y0019213D01*
X0123912Y0019654D01*
X0124728Y0020470D01*
X0125170Y0021894D02*
X0159854Y0021894D01*
X0160154Y0021594D02*
X0161072Y0021213D01*
X0162067Y0021213D01*
X0162986Y0021594D01*
X0163689Y0022297D01*
X0164070Y0023216D01*
X0164070Y0024210D01*
X0163689Y0025129D01*
X0162986Y0025832D01*
X0162067Y0026213D01*
X0161072Y0026213D01*
X0160154Y0025832D01*
X0159450Y0025129D01*
X0159070Y0024210D01*
X0159070Y0023216D01*
X0159450Y0022297D01*
X0160154Y0021594D01*
X0159070Y0023492D02*
X0157184Y0023492D01*
X0156886Y0023194D02*
X0157589Y0023897D01*
X0157970Y0024816D01*
X0157970Y0025810D01*
X0157589Y0026729D01*
X0156886Y0027432D01*
X0155967Y0027813D01*
X0154972Y0027813D01*
X0154054Y0027432D01*
X0153350Y0026729D01*
X0152970Y0025810D01*
X0152970Y0024816D01*
X0153350Y0023897D01*
X0154054Y0023194D01*
X0154972Y0022813D01*
X0155967Y0022813D01*
X0156886Y0023194D01*
X0157970Y0025091D02*
X0159434Y0025091D01*
X0157606Y0026689D02*
X0163022Y0026689D01*
X0163168Y0028288D02*
X0156689Y0028288D01*
X0156267Y0028113D02*
X0157186Y0028494D01*
X0157889Y0029197D01*
X0158270Y0030116D01*
X0158270Y0031110D01*
X0157889Y0032029D01*
X0157186Y0032732D01*
X0156267Y0033113D01*
X0155272Y0033113D01*
X0154354Y0032732D01*
X0153650Y0032029D01*
X0153270Y0031110D01*
X0153270Y0030116D01*
X0153650Y0029197D01*
X0154354Y0028494D01*
X0155272Y0028113D01*
X0156267Y0028113D01*
X0154851Y0028288D02*
X0114309Y0028288D01*
X0114204Y0028182D02*
X0115020Y0028998D01*
X0115461Y0030064D01*
X0115461Y0031217D01*
X0115020Y0032283D01*
X0114204Y0033099D01*
X0113138Y0033541D01*
X0111984Y0033541D01*
X0110918Y0033099D01*
X0110103Y0032283D01*
X0109661Y0031217D01*
X0109661Y0030064D01*
X0110103Y0028998D01*
X0110918Y0028182D01*
X0111984Y0027741D01*
X0113138Y0027741D01*
X0114204Y0028182D01*
X0115388Y0029886D02*
X0143638Y0029886D01*
X0143513Y0030012D02*
X0144216Y0029309D01*
X0145135Y0028928D01*
X0146129Y0028928D01*
X0147048Y0029309D01*
X0147751Y0030012D01*
X0148132Y0030931D01*
X0148132Y0031925D01*
X0147751Y0032844D01*
X0147048Y0033547D01*
X0146129Y0033928D01*
X0145135Y0033928D01*
X0144216Y0033547D01*
X0143513Y0032844D01*
X0143132Y0031925D01*
X0143132Y0030931D01*
X0143513Y0030012D01*
X0143132Y0031485D02*
X0115350Y0031485D01*
X0114220Y0033083D02*
X0138990Y0033083D01*
X0139150Y0032697D02*
X0138770Y0033616D01*
X0138770Y0034610D01*
X0139150Y0035529D01*
X0139854Y0036232D01*
X0140772Y0036613D01*
X0141767Y0036613D01*
X0142686Y0036232D01*
X0143389Y0035529D01*
X0143770Y0034610D01*
X0143770Y0033616D01*
X0143389Y0032697D01*
X0142686Y0031994D01*
X0141767Y0031613D01*
X0140772Y0031613D01*
X0139854Y0031994D01*
X0139150Y0032697D01*
X0138799Y0034682D02*
X0102670Y0034682D01*
X0102670Y0034536D02*
X0102228Y0033470D01*
X0101412Y0032654D01*
X0100347Y0032213D01*
X0099193Y0032213D01*
X0098127Y0032654D01*
X0097311Y0033470D01*
X0096870Y0034536D01*
X0096870Y0035690D01*
X0097311Y0036756D01*
X0098127Y0037571D01*
X0099193Y0038013D01*
X0100347Y0038013D01*
X0101412Y0037571D01*
X0102228Y0036756D01*
X0102670Y0035690D01*
X0102670Y0034536D01*
X0101841Y0033083D02*
X0110903Y0033083D01*
X0109772Y0031485D02*
X0077533Y0031485D01*
X0077670Y0031816D02*
X0077289Y0030897D01*
X0076586Y0030194D01*
X0075667Y0029813D01*
X0074672Y0029813D01*
X0073754Y0030194D01*
X0073050Y0030897D01*
X0072670Y0031816D01*
X0072670Y0032810D01*
X0073050Y0033729D01*
X0073641Y0034320D01*
X0073270Y0035216D01*
X0073270Y0036210D01*
X0073650Y0037129D01*
X0074354Y0037832D01*
X0075272Y0038213D01*
X0076267Y0038213D01*
X0077186Y0037832D01*
X0077470Y0037549D01*
X0077954Y0038032D01*
X0078872Y0038413D01*
X0079867Y0038413D01*
X0080626Y0038099D01*
X0080799Y0038272D01*
X0081717Y0038652D01*
X0082712Y0038652D01*
X0083631Y0038272D01*
X0084334Y0037568D01*
X0084715Y0036650D01*
X0084715Y0035655D01*
X0084334Y0034736D01*
X0083631Y0034033D01*
X0082712Y0033652D01*
X0081717Y0033652D01*
X0080959Y0033967D01*
X0080786Y0033794D01*
X0079867Y0033413D01*
X0078872Y0033413D01*
X0077954Y0033794D01*
X0077670Y0034077D01*
X0077299Y0033706D01*
X0077670Y0032810D01*
X0077670Y0031816D01*
X0077557Y0033083D02*
X0097698Y0033083D01*
X0096870Y0034682D02*
X0084280Y0034682D01*
X0084715Y0036280D02*
X0097114Y0036280D01*
X0098869Y0037879D02*
X0084024Y0037879D01*
X0089162Y0041128D02*
X0089977Y0040312D01*
X0091043Y0039870D01*
X0092197Y0039870D01*
X0093263Y0040312D01*
X0094079Y0041128D01*
X0094520Y0042194D01*
X0094520Y0043347D01*
X0094079Y0044413D01*
X0093263Y0045229D01*
X0092197Y0045670D01*
X0091043Y0045670D01*
X0089977Y0045229D01*
X0089162Y0044413D01*
X0088720Y0043347D01*
X0088720Y0042194D01*
X0089162Y0041128D01*
X0089214Y0041076D02*
X0066627Y0041076D01*
X0066733Y0041120D02*
X0067436Y0041823D01*
X0067817Y0042742D01*
X0067817Y0043736D01*
X0067436Y0044655D01*
X0066733Y0045358D01*
X0065814Y0045739D01*
X0064820Y0045739D01*
X0063901Y0045358D01*
X0063198Y0044655D01*
X0062817Y0043736D01*
X0062817Y0042742D01*
X0063198Y0041823D01*
X0063901Y0041120D01*
X0064820Y0040739D01*
X0065814Y0040739D01*
X0066733Y0041120D01*
X0067789Y0042674D02*
X0088720Y0042674D01*
X0089104Y0044273D02*
X0067595Y0044273D01*
X0064007Y0041076D02*
X0056098Y0041076D01*
X0055767Y0041213D02*
X0054772Y0041213D01*
X0053854Y0040832D01*
X0053150Y0040129D01*
X0052770Y0039210D01*
X0052770Y0038216D01*
X0053150Y0037297D01*
X0053854Y0036594D01*
X0054772Y0036213D01*
X0055767Y0036213D01*
X0056686Y0036594D01*
X0057389Y0037297D01*
X0057770Y0038216D01*
X0057770Y0039210D01*
X0057389Y0040129D01*
X0056686Y0040832D01*
X0055767Y0041213D01*
X0055670Y0042087D02*
X0054767Y0041713D01*
X0053772Y0041713D01*
X0052854Y0042094D01*
X0052150Y0042797D01*
X0051770Y0043716D01*
X0051770Y0044710D01*
X0052150Y0045629D01*
X0052854Y0046332D01*
X0053772Y0046713D01*
X0054767Y0046713D01*
X0055670Y0046339D01*
X0056572Y0046713D01*
X0057567Y0046713D01*
X0058486Y0046332D01*
X0059189Y0045629D01*
X0059570Y0044710D01*
X0059570Y0043716D01*
X0059189Y0042797D01*
X0058486Y0042094D01*
X0057567Y0041713D01*
X0056572Y0041713D01*
X0055670Y0042087D01*
X0054441Y0041076D02*
X0050524Y0041076D01*
X0050888Y0042674D02*
X0052273Y0042674D01*
X0051770Y0044273D02*
X0050544Y0044273D01*
X0050888Y0045871D02*
X0052393Y0045871D01*
X0052185Y0047470D02*
X0079820Y0047470D01*
X0080210Y0047080D02*
X0081276Y0046638D01*
X0082429Y0046638D01*
X0083495Y0047080D01*
X0084311Y0047895D01*
X0084752Y0048961D01*
X0084752Y0050115D01*
X0084311Y0051181D01*
X0083495Y0051997D01*
X0082429Y0052438D01*
X0081276Y0052438D01*
X0080210Y0051997D01*
X0079394Y0051181D01*
X0078952Y0050115D01*
X0078952Y0048961D01*
X0079394Y0047895D01*
X0080210Y0047080D01*
X0078952Y0049068D02*
X0052304Y0049068D01*
X0050961Y0050667D02*
X0055818Y0050667D01*
X0055754Y0050694D02*
X0056672Y0050313D01*
X0057667Y0050313D01*
X0058586Y0050694D01*
X0059289Y0051397D01*
X0059670Y0052316D01*
X0059670Y0053310D01*
X0059289Y0054229D01*
X0058586Y0054932D01*
X0057667Y0055313D01*
X0056672Y0055313D01*
X0055754Y0054932D01*
X0055050Y0054229D01*
X0054670Y0053310D01*
X0054670Y0052316D01*
X0055050Y0051397D01*
X0055754Y0050694D01*
X0054691Y0052265D02*
X0047207Y0052265D01*
X0047207Y0050667D02*
X0048778Y0050667D01*
X0047435Y0049068D02*
X0047207Y0049068D01*
X0047207Y0053864D02*
X0054899Y0053864D01*
X0055754Y0055894D02*
X0056672Y0055513D01*
X0057667Y0055513D01*
X0058586Y0055894D01*
X0059289Y0056597D01*
X0059670Y0057516D01*
X0059670Y0058469D01*
X0059702Y0058456D01*
X0060696Y0058456D01*
X0061615Y0058836D01*
X0062318Y0059539D01*
X0062699Y0060458D01*
X0062699Y0061219D01*
X0063113Y0060805D01*
X0064032Y0060424D01*
X0065027Y0060424D01*
X0065270Y0060525D01*
X0065270Y0059916D01*
X0065650Y0058997D01*
X0066354Y0058294D01*
X0067272Y0057913D01*
X0068267Y0057913D01*
X0069186Y0058294D01*
X0069889Y0058997D01*
X0070270Y0059916D01*
X0070270Y0060910D01*
X0069889Y0061829D01*
X0069186Y0062532D01*
X0068267Y0062913D01*
X0067272Y0062913D01*
X0067030Y0062812D01*
X0067030Y0063421D01*
X0066649Y0064340D01*
X0065946Y0065043D01*
X0065027Y0065424D01*
X0064032Y0065424D01*
X0063113Y0065043D01*
X0062410Y0064340D01*
X0062030Y0063421D01*
X0062030Y0062660D01*
X0061615Y0063075D01*
X0061070Y0063301D01*
X0061070Y0063810D01*
X0060689Y0064729D01*
X0059986Y0065432D01*
X0059067Y0065813D01*
X0058072Y0065813D01*
X0057154Y0065432D01*
X0056450Y0064729D01*
X0056070Y0063810D01*
X0056070Y0062816D01*
X0056450Y0061897D01*
X0057154Y0061194D01*
X0057699Y0060968D01*
X0057699Y0060500D01*
X0057667Y0060513D01*
X0056672Y0060513D01*
X0055754Y0060132D01*
X0055050Y0059429D01*
X0054670Y0058510D01*
X0054670Y0057516D01*
X0055050Y0056597D01*
X0055754Y0055894D01*
X0054858Y0057061D02*
X0047207Y0057061D01*
X0047207Y0058659D02*
X0054732Y0058659D01*
X0056057Y0060258D02*
X0047207Y0060258D01*
X0047207Y0061856D02*
X0056491Y0061856D01*
X0056070Y0063455D02*
X0053242Y0063455D01*
X0054037Y0065053D02*
X0056775Y0065053D01*
X0053678Y0066652D02*
X0085195Y0066652D01*
X0085354Y0066494D02*
X0086272Y0066113D01*
X0087267Y0066113D01*
X0088186Y0066494D01*
X0088889Y0067197D01*
X0089270Y0068116D01*
X0089270Y0069110D01*
X0088889Y0070029D01*
X0088186Y0070732D01*
X0087267Y0071113D01*
X0086272Y0071113D01*
X0085354Y0070732D01*
X0084650Y0070029D01*
X0084270Y0069110D01*
X0084270Y0068116D01*
X0084650Y0067197D01*
X0085354Y0066494D01*
X0084270Y0068250D02*
X0052043Y0068250D01*
X0049397Y0066652D02*
X0047207Y0066652D01*
X0047207Y0068250D02*
X0048297Y0068250D01*
X0047670Y0069849D02*
X0047207Y0069849D01*
X0050670Y0073046D02*
X0052748Y0073046D01*
X0052663Y0074645D02*
X0049774Y0074645D01*
X0047207Y0076243D02*
X0054090Y0076243D01*
X0056072Y0076243D02*
X0056670Y0076243D01*
X0057063Y0077842D02*
X0051870Y0077842D01*
X0051641Y0077747D02*
X0052560Y0078127D01*
X0053263Y0078831D01*
X0053644Y0079750D01*
X0053644Y0080744D01*
X0053263Y0081663D01*
X0052560Y0082366D01*
X0052107Y0082554D01*
X0052686Y0082794D01*
X0053389Y0083497D01*
X0053770Y0084416D01*
X0053770Y0085410D01*
X0053389Y0086329D01*
X0052686Y0087032D01*
X0051767Y0087413D01*
X0050772Y0087413D01*
X0049854Y0087032D01*
X0049150Y0086329D01*
X0048770Y0085410D01*
X0048770Y0084416D01*
X0049150Y0083497D01*
X0049854Y0082794D01*
X0050307Y0082606D01*
X0049728Y0082366D01*
X0049024Y0081663D01*
X0048644Y0080744D01*
X0048644Y0079750D01*
X0049024Y0078831D01*
X0049728Y0078127D01*
X0050646Y0077747D01*
X0051641Y0077747D01*
X0050418Y0077842D02*
X0047207Y0077842D01*
X0047207Y0079440D02*
X0048772Y0079440D01*
X0048766Y0081039D02*
X0047207Y0081039D01*
X0047207Y0082637D02*
X0050232Y0082637D01*
X0052308Y0082637D02*
X0074360Y0082637D01*
X0074228Y0082319D02*
X0074228Y0081324D01*
X0074609Y0080406D01*
X0075312Y0079702D01*
X0076217Y0079328D01*
X0075796Y0078907D01*
X0075415Y0077988D01*
X0075415Y0076994D01*
X0075796Y0076075D01*
X0076499Y0075372D01*
X0077418Y0074991D01*
X0078413Y0074991D01*
X0079332Y0075372D01*
X0080035Y0076075D01*
X0080415Y0076994D01*
X0080415Y0077988D01*
X0080035Y0078907D01*
X0079332Y0079610D01*
X0078427Y0079985D01*
X0078847Y0080406D01*
X0079228Y0081324D01*
X0079228Y0082319D01*
X0078847Y0083238D01*
X0078144Y0083941D01*
X0077225Y0084322D01*
X0076231Y0084322D01*
X0075312Y0083941D01*
X0074609Y0083238D01*
X0074228Y0082319D01*
X0074346Y0081039D02*
X0053522Y0081039D01*
X0053516Y0079440D02*
X0075945Y0079440D01*
X0075415Y0077842D02*
X0069877Y0077842D01*
X0069686Y0078032D02*
X0068767Y0078413D01*
X0067772Y0078413D01*
X0066854Y0078032D01*
X0066763Y0077942D01*
X0065867Y0078313D01*
X0064872Y0078313D01*
X0063954Y0077932D01*
X0063250Y0077229D01*
X0062870Y0076310D01*
X0062870Y0075316D01*
X0063250Y0074397D01*
X0063954Y0073694D01*
X0064872Y0073313D01*
X0065867Y0073313D01*
X0066786Y0073694D01*
X0066876Y0073784D01*
X0067772Y0073413D01*
X0068767Y0073413D01*
X0069686Y0073794D01*
X0070389Y0074497D01*
X0070770Y0075416D01*
X0070770Y0076410D01*
X0070389Y0077329D01*
X0069686Y0078032D01*
X0070770Y0076243D02*
X0075726Y0076243D01*
X0080105Y0076243D02*
X0090190Y0076243D01*
X0090250Y0076097D02*
X0090834Y0075513D01*
X0090572Y0075513D01*
X0089654Y0075132D01*
X0088950Y0074429D01*
X0088570Y0073510D01*
X0088570Y0072516D01*
X0088950Y0071597D01*
X0089654Y0070894D01*
X0090572Y0070513D01*
X0091567Y0070513D01*
X0092486Y0070894D01*
X0092914Y0071322D01*
X0093560Y0071054D01*
X0094554Y0071054D01*
X0095473Y0071435D01*
X0096177Y0072138D01*
X0096557Y0073057D01*
X0096557Y0074051D01*
X0096177Y0074970D01*
X0095473Y0075673D01*
X0094554Y0076054D01*
X0094446Y0076054D01*
X0094489Y0076097D01*
X0094870Y0077016D01*
X0094870Y0078010D01*
X0094489Y0078929D01*
X0093786Y0079632D01*
X0092867Y0080013D01*
X0091872Y0080013D01*
X0090954Y0079632D01*
X0090250Y0078929D01*
X0089870Y0078010D01*
X0089870Y0077016D01*
X0090250Y0076097D01*
X0089870Y0077842D02*
X0080415Y0077842D01*
X0079502Y0079440D02*
X0090761Y0079440D01*
X0092350Y0080997D02*
X0091970Y0081916D01*
X0091970Y0082910D01*
X0092350Y0083829D01*
X0093054Y0084532D01*
X0093972Y0084913D01*
X0094967Y0084913D01*
X0095886Y0084532D01*
X0096589Y0083829D01*
X0096970Y0082910D01*
X0096970Y0081916D01*
X0096589Y0080997D01*
X0095886Y0080294D01*
X0094967Y0079913D01*
X0093972Y0079913D01*
X0093054Y0080294D01*
X0092350Y0080997D01*
X0092333Y0081039D02*
X0079110Y0081039D01*
X0079096Y0082637D02*
X0091970Y0082637D01*
X0092757Y0084236D02*
X0077433Y0084236D01*
X0076023Y0084236D02*
X0066071Y0084236D01*
X0065889Y0083797D02*
X0066270Y0084716D01*
X0066270Y0085710D01*
X0065889Y0086629D01*
X0065186Y0087332D01*
X0064267Y0087713D01*
X0063272Y0087713D01*
X0062354Y0087332D01*
X0061650Y0086629D01*
X0061270Y0085710D01*
X0061270Y0084716D01*
X0061650Y0083797D01*
X0062354Y0083094D01*
X0063272Y0082713D01*
X0064267Y0082713D01*
X0065186Y0083094D01*
X0065889Y0083797D01*
X0066218Y0085834D02*
X0090213Y0085834D01*
X0089950Y0086097D02*
X0090654Y0085394D01*
X0091572Y0085013D01*
X0092567Y0085013D01*
X0093486Y0085394D01*
X0094189Y0086097D01*
X0094570Y0087016D01*
X0094570Y0088010D01*
X0094219Y0088857D01*
X0094893Y0088857D01*
X0095812Y0089238D01*
X0096515Y0089941D01*
X0096896Y0090860D01*
X0096896Y0091854D01*
X0096515Y0092773D01*
X0095812Y0093476D01*
X0094893Y0093857D01*
X0093898Y0093857D01*
X0092980Y0093476D01*
X0092761Y0093258D01*
X0092686Y0093332D01*
X0091767Y0093713D01*
X0090772Y0093713D01*
X0089854Y0093332D01*
X0089150Y0092629D01*
X0088770Y0091710D01*
X0088770Y0090716D01*
X0089150Y0089797D01*
X0089854Y0089094D01*
X0090038Y0089017D01*
X0089950Y0088929D01*
X0089570Y0088010D01*
X0089570Y0087016D01*
X0089950Y0086097D01*
X0089570Y0087433D02*
X0064944Y0087433D01*
X0062596Y0087433D02*
X0047207Y0087433D01*
X0047207Y0089031D02*
X0081931Y0089031D01*
X0081702Y0089261D02*
X0082405Y0088557D01*
X0083324Y0088177D01*
X0084318Y0088177D01*
X0085237Y0088557D01*
X0085940Y0089261D01*
X0086321Y0090179D01*
X0086321Y0091174D01*
X0085940Y0092093D01*
X0085237Y0092796D01*
X0084318Y0093177D01*
X0083324Y0093177D01*
X0082405Y0092796D01*
X0081702Y0092093D01*
X0081321Y0091174D01*
X0081321Y0090179D01*
X0081702Y0089261D01*
X0081321Y0090630D02*
X0075149Y0090630D01*
X0074867Y0090513D02*
X0075786Y0090894D01*
X0076489Y0091597D01*
X0076870Y0092516D01*
X0076870Y0093510D01*
X0076489Y0094429D01*
X0075786Y0095132D01*
X0074867Y0095513D01*
X0073872Y0095513D01*
X0072954Y0095132D01*
X0072250Y0094429D01*
X0071870Y0093510D01*
X0071870Y0092516D01*
X0072250Y0091597D01*
X0072954Y0090894D01*
X0073872Y0090513D01*
X0074867Y0090513D01*
X0073591Y0090630D02*
X0047207Y0090630D01*
X0047207Y0092228D02*
X0071989Y0092228D01*
X0072001Y0093827D02*
X0047207Y0093827D01*
X0047207Y0095425D02*
X0073660Y0095425D01*
X0075079Y0095425D02*
X0094673Y0095425D01*
X0094850Y0094997D02*
X0095554Y0094294D01*
X0096472Y0093913D01*
X0097467Y0093913D01*
X0098386Y0094294D01*
X0099089Y0094997D01*
X0099470Y0095916D01*
X0099470Y0096910D01*
X0099352Y0097196D01*
X0099454Y0097094D01*
X0100372Y0096713D01*
X0101367Y0096713D01*
X0102286Y0097094D01*
X0102989Y0097797D01*
X0103370Y0098716D01*
X0103370Y0099710D01*
X0102989Y0100629D01*
X0102286Y0101332D01*
X0101367Y0101713D01*
X0100372Y0101713D01*
X0099454Y0101332D01*
X0098970Y0100849D01*
X0098486Y0101332D01*
X0097567Y0101713D01*
X0096572Y0101713D01*
X0095654Y0101332D01*
X0094950Y0100629D01*
X0094570Y0099710D01*
X0094570Y0098716D01*
X0094912Y0097890D01*
X0094850Y0097829D01*
X0094470Y0096910D01*
X0094470Y0095916D01*
X0094850Y0094997D01*
X0094966Y0093827D02*
X0148844Y0093827D01*
X0149024Y0094261D02*
X0148644Y0093343D01*
X0148644Y0092348D01*
X0149024Y0091429D01*
X0149728Y0090726D01*
X0150646Y0090345D01*
X0151641Y0090345D01*
X0152560Y0090726D01*
X0153263Y0091429D01*
X0153644Y0092348D01*
X0153644Y0093343D01*
X0153263Y0094261D01*
X0152560Y0094965D01*
X0151641Y0095345D01*
X0150646Y0095345D01*
X0149728Y0094965D01*
X0149024Y0094261D01*
X0148693Y0092228D02*
X0145231Y0092228D01*
X0145189Y0092329D02*
X0144486Y0093032D01*
X0143567Y0093413D01*
X0142572Y0093413D01*
X0141654Y0093032D01*
X0140950Y0092329D01*
X0140570Y0091410D01*
X0140570Y0091113D01*
X0140072Y0091113D01*
X0139154Y0090732D01*
X0138450Y0090029D01*
X0138070Y0089110D01*
X0138070Y0088512D01*
X0138067Y0088513D01*
X0137786Y0088513D01*
X0137489Y0089229D01*
X0136786Y0089932D01*
X0135867Y0090313D01*
X0134872Y0090313D01*
X0133954Y0089932D01*
X0133250Y0089229D01*
X0132870Y0088310D01*
X0132870Y0087316D01*
X0133241Y0086420D01*
X0132850Y0086029D01*
X0132470Y0085110D01*
X0132470Y0084116D01*
X0132850Y0083197D01*
X0133554Y0082494D01*
X0134472Y0082113D01*
X0135467Y0082113D01*
X0136386Y0082494D01*
X0137089Y0083197D01*
X0137220Y0083513D01*
X0138067Y0083513D01*
X0138986Y0083894D01*
X0139689Y0084597D01*
X0140070Y0085516D01*
X0140070Y0086114D01*
X0140072Y0086113D01*
X0141067Y0086113D01*
X0141986Y0086494D01*
X0142689Y0087197D01*
X0143070Y0088116D01*
X0143070Y0088413D01*
X0143567Y0088413D01*
X0144486Y0088794D01*
X0145189Y0089497D01*
X0145570Y0090416D01*
X0145570Y0091410D01*
X0145189Y0092329D01*
X0145570Y0090630D02*
X0149960Y0090630D01*
X0152328Y0090630D02*
X0156885Y0090630D01*
X0157050Y0091029D02*
X0156670Y0090110D01*
X0156670Y0089116D01*
X0157050Y0088197D01*
X0157754Y0087494D01*
X0158672Y0087113D01*
X0159667Y0087113D01*
X0160586Y0087494D01*
X0161289Y0088197D01*
X0161670Y0089116D01*
X0161670Y0090110D01*
X0161289Y0091029D01*
X0160586Y0091732D01*
X0159667Y0092113D01*
X0158672Y0092113D01*
X0157754Y0091732D01*
X0157050Y0091029D01*
X0156705Y0089031D02*
X0144723Y0089031D01*
X0142787Y0087433D02*
X0157901Y0087433D01*
X0157686Y0086332D02*
X0156767Y0086713D01*
X0155772Y0086713D01*
X0154854Y0086332D01*
X0154150Y0085629D01*
X0153770Y0084710D01*
X0153770Y0083716D01*
X0154150Y0082797D01*
X0154854Y0082094D01*
X0155770Y0081714D01*
X0155770Y0081616D01*
X0155954Y0081172D01*
X0155584Y0081172D01*
X0154665Y0080791D01*
X0153961Y0080088D01*
X0153581Y0079169D01*
X0153581Y0078813D01*
X0153172Y0078813D01*
X0152254Y0078432D01*
X0151550Y0077729D01*
X0151170Y0076810D01*
X0151170Y0075816D01*
X0151550Y0074897D01*
X0152254Y0074194D01*
X0153172Y0073813D01*
X0154167Y0073813D01*
X0155086Y0074194D01*
X0155789Y0074897D01*
X0156170Y0075816D01*
X0156170Y0076172D01*
X0156578Y0076172D01*
X0157495Y0076552D01*
X0157554Y0076494D01*
X0158472Y0076113D01*
X0159467Y0076113D01*
X0160386Y0076494D01*
X0161089Y0077197D01*
X0161470Y0078116D01*
X0161470Y0079110D01*
X0161089Y0080029D01*
X0160399Y0080720D01*
X0160770Y0081616D01*
X0160770Y0082610D01*
X0160389Y0083529D01*
X0159686Y0084232D01*
X0158770Y0084612D01*
X0158770Y0084710D01*
X0158389Y0085629D01*
X0157686Y0086332D01*
X0158184Y0085834D02*
X0181065Y0085834D01*
X0181065Y0087433D02*
X0160439Y0087433D01*
X0161635Y0089031D02*
X0181065Y0089031D01*
X0181065Y0090630D02*
X0161455Y0090630D01*
X0159678Y0084236D02*
X0179263Y0084236D01*
X0178959Y0082637D02*
X0160759Y0082637D01*
X0160531Y0081039D02*
X0179887Y0081039D01*
X0181065Y0079440D02*
X0161333Y0079440D01*
X0161356Y0077842D02*
X0181065Y0077842D01*
X0181065Y0076243D02*
X0159781Y0076243D01*
X0158159Y0076243D02*
X0156749Y0076243D01*
X0155537Y0074645D02*
X0181065Y0074645D01*
X0181065Y0073046D02*
X0096553Y0073046D01*
X0096311Y0074645D02*
X0151803Y0074645D01*
X0151170Y0076243D02*
X0094550Y0076243D01*
X0094870Y0077842D02*
X0151663Y0077842D01*
X0153693Y0079440D02*
X0093978Y0079440D01*
X0096606Y0081039D02*
X0155261Y0081039D01*
X0154310Y0082637D02*
X0136529Y0082637D01*
X0133410Y0082637D02*
X0103089Y0082637D01*
X0102641Y0082452D02*
X0103560Y0082832D01*
X0104263Y0083535D01*
X0104644Y0084454D01*
X0104644Y0085449D01*
X0104263Y0086368D01*
X0103560Y0087071D01*
X0102641Y0087452D01*
X0101646Y0087452D01*
X0100728Y0087071D01*
X0100024Y0086368D01*
X0099644Y0085449D01*
X0099644Y0084454D01*
X0100024Y0083535D01*
X0100728Y0082832D01*
X0101646Y0082452D01*
X0102641Y0082452D01*
X0101199Y0082637D02*
X0096970Y0082637D01*
X0096183Y0084236D02*
X0099734Y0084236D01*
X0099803Y0085834D02*
X0093926Y0085834D01*
X0094570Y0087433D02*
X0101601Y0087433D01*
X0102687Y0087433D02*
X0109553Y0087433D01*
X0109650Y0087197D02*
X0110354Y0086494D01*
X0111272Y0086113D01*
X0112267Y0086113D01*
X0113186Y0086494D01*
X0113889Y0087197D01*
X0114270Y0088116D01*
X0114270Y0089110D01*
X0113889Y0090029D01*
X0113186Y0090732D01*
X0112267Y0091113D01*
X0111272Y0091113D01*
X0110354Y0090732D01*
X0109650Y0090029D01*
X0109270Y0089110D01*
X0109270Y0088116D01*
X0109650Y0087197D01*
X0109270Y0089031D02*
X0095313Y0089031D01*
X0096800Y0090630D02*
X0110251Y0090630D01*
X0113289Y0090630D02*
X0139051Y0090630D01*
X0138070Y0089031D02*
X0137571Y0089031D01*
X0140070Y0085834D02*
X0154355Y0085834D01*
X0153770Y0084236D02*
X0139328Y0084236D01*
X0133168Y0089031D02*
X0114270Y0089031D01*
X0113987Y0087433D02*
X0132870Y0087433D01*
X0132770Y0085834D02*
X0104484Y0085834D01*
X0104553Y0084236D02*
X0132470Y0084236D01*
X0140909Y0092228D02*
X0096741Y0092228D01*
X0093825Y0093827D02*
X0076739Y0093827D01*
X0076751Y0092228D02*
X0081837Y0092228D01*
X0085805Y0092228D02*
X0088984Y0092228D01*
X0088805Y0090630D02*
X0086321Y0090630D01*
X0085711Y0089031D02*
X0090004Y0089031D01*
X0094517Y0097024D02*
X0061616Y0097024D01*
X0061386Y0096794D02*
X0062089Y0097497D01*
X0062388Y0098219D01*
X0062665Y0098219D01*
X0063584Y0098600D01*
X0064287Y0099303D01*
X0064667Y0100222D01*
X0064667Y0101217D01*
X0064287Y0102135D01*
X0063584Y0102839D01*
X0062665Y0103219D01*
X0061670Y0103219D01*
X0060751Y0102839D01*
X0060048Y0102135D01*
X0059749Y0101413D01*
X0059472Y0101413D01*
X0058554Y0101032D01*
X0057850Y0100329D01*
X0057470Y0099410D01*
X0057470Y0098416D01*
X0057850Y0097497D01*
X0058554Y0096794D01*
X0059472Y0096413D01*
X0060467Y0096413D01*
X0061386Y0096794D01*
X0063606Y0098622D02*
X0094609Y0098622D01*
X0094781Y0100221D02*
X0064667Y0100221D01*
X0064418Y0101819D02*
X0156672Y0101819D01*
X0156518Y0102191D02*
X0156898Y0101272D01*
X0157602Y0100568D01*
X0158521Y0100188D01*
X0159515Y0100188D01*
X0160434Y0100568D01*
X0161137Y0101272D01*
X0161518Y0102191D01*
X0161518Y0103185D01*
X0161137Y0104104D01*
X0160434Y0104807D01*
X0159515Y0105188D01*
X0158521Y0105188D01*
X0157602Y0104807D01*
X0156900Y0104105D01*
X0157070Y0104516D01*
X0157070Y0105510D01*
X0156689Y0106429D01*
X0155986Y0107132D01*
X0155067Y0107513D01*
X0154072Y0107513D01*
X0153154Y0107132D01*
X0152450Y0106429D01*
X0152070Y0105510D01*
X0152070Y0104516D01*
X0152450Y0103597D01*
X0153154Y0102894D01*
X0154072Y0102513D01*
X0155067Y0102513D01*
X0155986Y0102894D01*
X0156688Y0103596D01*
X0156518Y0103185D01*
X0156518Y0102191D01*
X0156510Y0103418D02*
X0156614Y0103418D01*
X0157070Y0105016D02*
X0158106Y0105016D01*
X0159929Y0105016D02*
X0181065Y0105016D01*
X0181065Y0103418D02*
X0167558Y0103418D01*
X0167436Y0103710D02*
X0167817Y0102791D01*
X0167817Y0101797D01*
X0167436Y0100878D01*
X0166733Y0100175D01*
X0165814Y0099794D01*
X0164820Y0099794D01*
X0163901Y0100175D01*
X0163198Y0100878D01*
X0162817Y0101797D01*
X0162817Y0102791D01*
X0163198Y0103710D01*
X0163901Y0104413D01*
X0164820Y0104794D01*
X0165814Y0104794D01*
X0166733Y0104413D01*
X0167436Y0103710D01*
X0167817Y0101819D02*
X0179811Y0101819D01*
X0178959Y0100221D02*
X0166779Y0100221D01*
X0163855Y0100221D02*
X0159595Y0100221D01*
X0158441Y0100221D02*
X0120631Y0100221D01*
X0121086Y0100032D02*
X0120167Y0100413D01*
X0119172Y0100413D01*
X0118254Y0100032D01*
X0117550Y0099329D01*
X0117170Y0098410D01*
X0117170Y0097416D01*
X0117550Y0096497D01*
X0118254Y0095794D01*
X0119172Y0095413D01*
X0120167Y0095413D01*
X0121086Y0095794D01*
X0121789Y0096497D01*
X0122170Y0097416D01*
X0122170Y0098410D01*
X0121789Y0099329D01*
X0121086Y0100032D01*
X0122082Y0098622D02*
X0179295Y0098622D01*
X0181065Y0097024D02*
X0122007Y0097024D01*
X0120196Y0095425D02*
X0181065Y0095425D01*
X0181065Y0093827D02*
X0153443Y0093827D01*
X0153594Y0092228D02*
X0181065Y0092228D01*
X0181065Y0106615D02*
X0156504Y0106615D01*
X0157995Y0108049D02*
X0157292Y0108752D01*
X0156912Y0109671D01*
X0156912Y0110665D01*
X0157292Y0111584D01*
X0157995Y0112287D01*
X0158914Y0112668D01*
X0159909Y0112668D01*
X0160828Y0112287D01*
X0161531Y0111584D01*
X0161911Y0110665D01*
X0161911Y0109671D01*
X0161531Y0108752D01*
X0160828Y0108049D01*
X0159909Y0107668D01*
X0158914Y0107668D01*
X0157995Y0108049D01*
X0157831Y0108213D02*
X0090362Y0108213D01*
X0090196Y0107813D02*
X0090570Y0108716D01*
X0090570Y0109710D01*
X0090189Y0110629D01*
X0089486Y0111332D01*
X0088567Y0111713D01*
X0087572Y0111713D01*
X0086670Y0111339D01*
X0085767Y0111713D01*
X0084772Y0111713D01*
X0083854Y0111332D01*
X0083150Y0110629D01*
X0082770Y0109710D01*
X0082770Y0108716D01*
X0083150Y0107797D01*
X0083854Y0107094D01*
X0084772Y0106713D01*
X0085570Y0106713D01*
X0085570Y0105916D01*
X0085950Y0104997D01*
X0086654Y0104294D01*
X0087572Y0103913D01*
X0088567Y0103913D01*
X0089486Y0104294D01*
X0090189Y0104997D01*
X0090570Y0105916D01*
X0090570Y0106910D01*
X0090196Y0107813D01*
X0090570Y0106615D02*
X0152636Y0106615D01*
X0152070Y0105016D02*
X0090197Y0105016D01*
X0090528Y0109812D02*
X0156912Y0109812D01*
X0157220Y0111410D02*
X0089298Y0111410D01*
X0089772Y0113513D02*
X0090767Y0113513D01*
X0091686Y0113894D01*
X0092389Y0114597D01*
X0092770Y0115516D01*
X0092770Y0116510D01*
X0092723Y0116623D01*
X0093472Y0116313D01*
X0094467Y0116313D01*
X0095370Y0116687D01*
X0096272Y0116313D01*
X0097267Y0116313D01*
X0098186Y0116694D01*
X0098889Y0117397D01*
X0099270Y0118316D01*
X0099270Y0119310D01*
X0099133Y0119641D01*
X0099689Y0120197D01*
X0099970Y0120874D01*
X0099970Y0120816D01*
X0100350Y0119897D01*
X0101054Y0119194D01*
X0101972Y0118813D01*
X0102967Y0118813D01*
X0103886Y0119194D01*
X0104589Y0119897D01*
X0104970Y0120816D01*
X0104970Y0121810D01*
X0104589Y0122729D01*
X0103886Y0123432D01*
X0102967Y0123813D01*
X0101972Y0123813D01*
X0101054Y0123432D01*
X0100350Y0122729D01*
X0100070Y0122052D01*
X0100070Y0122110D01*
X0099689Y0123029D01*
X0098986Y0123732D01*
X0098067Y0124113D01*
X0097072Y0124113D01*
X0096154Y0123732D01*
X0095450Y0123029D01*
X0095070Y0122110D01*
X0095070Y0121116D01*
X0095096Y0121052D01*
X0094467Y0121313D01*
X0093472Y0121313D01*
X0092554Y0120932D01*
X0091850Y0120229D01*
X0091470Y0119310D01*
X0091470Y0118316D01*
X0091517Y0118202D01*
X0090970Y0118429D01*
X0090970Y0118710D01*
X0090589Y0119629D01*
X0089886Y0120332D01*
X0088967Y0120713D01*
X0087972Y0120713D01*
X0087054Y0120332D01*
X0086350Y0119629D01*
X0085970Y0118710D01*
X0085970Y0117716D01*
X0086350Y0116797D01*
X0087054Y0116094D01*
X0087770Y0115797D01*
X0087770Y0115516D01*
X0088150Y0114597D01*
X0088854Y0113894D01*
X0089772Y0113513D01*
X0088146Y0114607D02*
X0047207Y0114607D01*
X0047207Y0113009D02*
X0110431Y0113009D01*
X0110462Y0112935D02*
X0111165Y0112231D01*
X0112084Y0111851D01*
X0113079Y0111851D01*
X0113998Y0112231D01*
X0114701Y0112935D01*
X0115082Y0113853D01*
X0115082Y0114848D01*
X0114701Y0115767D01*
X0113998Y0116470D01*
X0113079Y0116851D01*
X0112458Y0116851D01*
X0113286Y0117194D01*
X0113989Y0117897D01*
X0114370Y0118816D01*
X0114370Y0119810D01*
X0113989Y0120729D01*
X0113286Y0121432D01*
X0112367Y0121813D01*
X0111372Y0121813D01*
X0110454Y0121432D01*
X0109750Y0120729D01*
X0109370Y0119810D01*
X0109370Y0118816D01*
X0109750Y0117897D01*
X0110454Y0117194D01*
X0111372Y0116813D01*
X0111993Y0116813D01*
X0111165Y0116470D01*
X0110462Y0115767D01*
X0110082Y0114848D01*
X0110082Y0113853D01*
X0110462Y0112935D01*
X0110082Y0114607D02*
X0092393Y0114607D01*
X0092770Y0116206D02*
X0110901Y0116206D01*
X0109843Y0117804D02*
X0099058Y0117804D01*
X0099231Y0119403D02*
X0100844Y0119403D01*
X0100297Y0122600D02*
X0099867Y0122600D01*
X0104643Y0122600D02*
X0119123Y0122600D01*
X0119386Y0122863D02*
X0118570Y0122047D01*
X0118129Y0120981D01*
X0118129Y0119827D01*
X0118570Y0118762D01*
X0119386Y0117946D01*
X0120452Y0117504D01*
X0121606Y0117504D01*
X0122672Y0117946D01*
X0123487Y0118762D01*
X0123929Y0119827D01*
X0123929Y0120981D01*
X0123487Y0122047D01*
X0122672Y0122863D01*
X0121606Y0123304D01*
X0120452Y0123304D01*
X0119386Y0122863D01*
X0118137Y0121001D02*
X0113717Y0121001D01*
X0114370Y0119403D02*
X0118305Y0119403D01*
X0119728Y0117804D02*
X0113897Y0117804D01*
X0114262Y0116206D02*
X0132116Y0116206D01*
X0132250Y0116529D02*
X0131870Y0115610D01*
X0131870Y0114616D01*
X0132250Y0113697D01*
X0132954Y0112994D01*
X0133872Y0112613D01*
X0134867Y0112613D01*
X0135786Y0112994D01*
X0136489Y0113697D01*
X0136870Y0114616D01*
X0136870Y0115610D01*
X0136489Y0116529D01*
X0135786Y0117232D01*
X0134867Y0117613D01*
X0133872Y0117613D01*
X0132954Y0117232D01*
X0132250Y0116529D01*
X0131873Y0114607D02*
X0115082Y0114607D01*
X0114732Y0113009D02*
X0132938Y0113009D01*
X0135801Y0113009D02*
X0169400Y0113009D01*
X0168954Y0113194D02*
X0169872Y0112813D01*
X0170867Y0112813D01*
X0171786Y0113194D01*
X0172489Y0113897D01*
X0172870Y0114816D01*
X0172870Y0115810D01*
X0172489Y0116729D01*
X0171786Y0117432D01*
X0170867Y0117813D01*
X0169872Y0117813D01*
X0168954Y0117432D01*
X0168250Y0116729D01*
X0167870Y0115810D01*
X0167870Y0114816D01*
X0168250Y0113897D01*
X0168954Y0113194D01*
X0167956Y0114607D02*
X0136866Y0114607D01*
X0136623Y0116206D02*
X0168034Y0116206D01*
X0169852Y0117804D02*
X0122330Y0117804D01*
X0123753Y0119403D02*
X0177724Y0119403D01*
X0176670Y0117804D02*
X0170888Y0117804D01*
X0172706Y0116206D02*
X0176922Y0116206D01*
X0176542Y0114607D02*
X0172783Y0114607D01*
X0171340Y0113009D02*
X0175878Y0113009D01*
X0175870Y0111410D02*
X0161603Y0111410D01*
X0161911Y0109812D02*
X0176460Y0109812D01*
X0178187Y0108213D02*
X0160992Y0108213D01*
X0161421Y0103418D02*
X0163076Y0103418D01*
X0162817Y0101819D02*
X0161364Y0101819D01*
X0152630Y0103418D02*
X0055188Y0103418D01*
X0054762Y0103843D02*
X0056000Y0102605D01*
X0056670Y0100988D01*
X0056670Y0099238D01*
X0056000Y0097621D01*
X0054762Y0096383D01*
X0053145Y0095713D01*
X0051395Y0095713D01*
X0049777Y0096383D01*
X0048540Y0097621D01*
X0047870Y0099238D01*
X0047870Y0100988D01*
X0048540Y0102605D01*
X0049777Y0103843D01*
X0051395Y0104513D01*
X0053145Y0104513D01*
X0054762Y0103843D01*
X0056326Y0101819D02*
X0059917Y0101819D01*
X0057805Y0100221D02*
X0056670Y0100221D01*
X0056415Y0098622D02*
X0057470Y0098622D01*
X0058324Y0097024D02*
X0055403Y0097024D01*
X0049137Y0097024D02*
X0047207Y0097024D01*
X0047207Y0098622D02*
X0048125Y0098622D01*
X0047870Y0100221D02*
X0047207Y0100221D01*
X0047207Y0101819D02*
X0048214Y0101819D01*
X0047207Y0103418D02*
X0049352Y0103418D01*
X0047207Y0105016D02*
X0085942Y0105016D01*
X0085570Y0106615D02*
X0047207Y0106615D01*
X0047207Y0108213D02*
X0082978Y0108213D01*
X0082812Y0109812D02*
X0047207Y0109812D01*
X0047207Y0111410D02*
X0084042Y0111410D01*
X0086498Y0111410D02*
X0086842Y0111410D01*
X0086941Y0116206D02*
X0047207Y0116206D01*
X0047207Y0117804D02*
X0085970Y0117804D01*
X0086257Y0119403D02*
X0066512Y0119403D01*
X0066339Y0119230D02*
X0067043Y0119933D01*
X0067423Y0120852D01*
X0067423Y0121846D01*
X0067043Y0122765D01*
X0066339Y0123469D01*
X0065421Y0123849D01*
X0064426Y0123849D01*
X0063507Y0123469D01*
X0063039Y0123000D01*
X0062712Y0123789D01*
X0062009Y0124492D01*
X0061090Y0124873D01*
X0060095Y0124873D01*
X0059176Y0124492D01*
X0058473Y0123789D01*
X0058093Y0122870D01*
X0058093Y0121876D01*
X0058473Y0120957D01*
X0059176Y0120253D01*
X0060095Y0119873D01*
X0061090Y0119873D01*
X0062009Y0120253D01*
X0062477Y0120722D01*
X0062804Y0119933D01*
X0063507Y0119230D01*
X0064426Y0118849D01*
X0065421Y0118849D01*
X0066339Y0119230D01*
X0067423Y0121001D02*
X0089846Y0121001D01*
X0090683Y0119403D02*
X0091508Y0119403D01*
X0092694Y0121001D02*
X0092720Y0121001D01*
X0093763Y0122600D02*
X0095273Y0122600D01*
X0093526Y0124198D02*
X0181065Y0124198D01*
X0181065Y0122600D02*
X0122935Y0122600D01*
X0123920Y0121001D02*
X0181065Y0121001D01*
X0181065Y0119403D02*
X0180615Y0119403D01*
X0181065Y0125797D02*
X0090770Y0125797D01*
X0088776Y0122600D02*
X0067111Y0122600D01*
X0063334Y0119403D02*
X0047207Y0119403D01*
X0047207Y0121001D02*
X0058455Y0121001D01*
X0058093Y0122600D02*
X0047207Y0122600D01*
X0047207Y0124198D02*
X0058883Y0124198D01*
X0062303Y0124198D02*
X0086108Y0124198D01*
X0085770Y0125797D02*
X0047207Y0125797D01*
X0047207Y0085834D02*
X0048945Y0085834D01*
X0048844Y0084236D02*
X0047207Y0084236D01*
X0053695Y0084236D02*
X0061469Y0084236D01*
X0061321Y0085834D02*
X0053594Y0085834D01*
X0061277Y0077842D02*
X0063863Y0077842D01*
X0062870Y0076243D02*
X0061670Y0076243D01*
X0060937Y0074645D02*
X0063148Y0074645D01*
X0057413Y0073046D02*
X0088570Y0073046D01*
X0089100Y0071447D02*
X0057270Y0071447D01*
X0056952Y0069849D02*
X0084576Y0069849D01*
X0088964Y0069849D02*
X0181065Y0069849D01*
X0181065Y0071447D02*
X0095486Y0071447D01*
X0089270Y0068250D02*
X0166718Y0068250D01*
X0166750Y0068329D02*
X0166395Y0067470D01*
X0165567Y0067813D01*
X0164572Y0067813D01*
X0163654Y0067432D01*
X0162950Y0066729D01*
X0162570Y0065810D01*
X0162570Y0064816D01*
X0162950Y0063897D01*
X0163654Y0063194D01*
X0164572Y0062813D01*
X0165567Y0062813D01*
X0166486Y0063194D01*
X0167189Y0063897D01*
X0167545Y0064756D01*
X0168372Y0064413D01*
X0169367Y0064413D01*
X0170286Y0064794D01*
X0170989Y0065497D01*
X0171370Y0066416D01*
X0171370Y0067410D01*
X0170989Y0068329D01*
X0170286Y0069032D01*
X0169367Y0069413D01*
X0168372Y0069413D01*
X0167454Y0069032D01*
X0166750Y0068329D01*
X0162918Y0066652D02*
X0149741Y0066652D01*
X0149720Y0066702D02*
X0149017Y0067406D01*
X0148098Y0067786D01*
X0147103Y0067786D01*
X0146184Y0067406D01*
X0145481Y0066702D01*
X0145100Y0065784D01*
X0145100Y0064789D01*
X0145481Y0063870D01*
X0146184Y0063167D01*
X0147103Y0062786D01*
X0148098Y0062786D01*
X0148570Y0062982D01*
X0148570Y0062216D01*
X0148950Y0061297D01*
X0149654Y0060594D01*
X0150572Y0060213D01*
X0151567Y0060213D01*
X0152486Y0060594D01*
X0153189Y0061297D01*
X0153570Y0062216D01*
X0153570Y0063210D01*
X0153189Y0064129D01*
X0152486Y0064832D01*
X0151567Y0065213D01*
X0150572Y0065213D01*
X0150100Y0065017D01*
X0150100Y0065784D01*
X0149720Y0066702D01*
X0150100Y0065053D02*
X0150187Y0065053D01*
X0151952Y0065053D02*
X0162570Y0065053D01*
X0163392Y0063455D02*
X0153468Y0063455D01*
X0153421Y0061856D02*
X0178565Y0061856D01*
X0178592Y0063455D02*
X0166747Y0063455D01*
X0170546Y0065053D02*
X0177970Y0065053D01*
X0178473Y0066652D02*
X0171370Y0066652D01*
X0171022Y0068250D02*
X0181065Y0068250D01*
X0179015Y0060258D02*
X0151675Y0060258D01*
X0150464Y0060258D02*
X0128532Y0060258D01*
X0128587Y0060313D02*
X0129028Y0061379D01*
X0129028Y0062532D01*
X0128587Y0063598D01*
X0127771Y0064414D01*
X0126705Y0064855D01*
X0125551Y0064855D01*
X0124485Y0064414D01*
X0123670Y0063598D01*
X0123228Y0062532D01*
X0123228Y0061379D01*
X0123670Y0060313D01*
X0124485Y0059497D01*
X0125551Y0059056D01*
X0126705Y0059056D01*
X0127771Y0059497D01*
X0128587Y0060313D01*
X0129028Y0061856D02*
X0148719Y0061856D01*
X0145896Y0063455D02*
X0128646Y0063455D01*
X0132627Y0058571D02*
X0131811Y0057756D01*
X0131370Y0056690D01*
X0131370Y0055536D01*
X0131811Y0054470D01*
X0132627Y0053654D01*
X0133693Y0053213D01*
X0134847Y0053213D01*
X0135912Y0053654D01*
X0136728Y0054470D01*
X0137170Y0055536D01*
X0137170Y0056690D01*
X0136728Y0057756D01*
X0135912Y0058571D01*
X0134847Y0059013D01*
X0133693Y0059013D01*
X0132627Y0058571D01*
X0132839Y0058659D02*
X0115670Y0058659D01*
X0115670Y0058690D02*
X0115228Y0059756D01*
X0114412Y0060571D01*
X0113347Y0061013D01*
X0112193Y0061013D01*
X0111582Y0060760D01*
X0111587Y0060772D01*
X0111587Y0061926D01*
X0111146Y0062992D01*
X0110330Y0063808D01*
X0109264Y0064249D01*
X0108110Y0064249D01*
X0107044Y0063808D01*
X0106229Y0062992D01*
X0105787Y0061926D01*
X0105787Y0060772D01*
X0106229Y0059706D01*
X0107044Y0058891D01*
X0108110Y0058449D01*
X0109264Y0058449D01*
X0109875Y0058702D01*
X0109870Y0058690D01*
X0109870Y0057536D01*
X0110311Y0056470D01*
X0111127Y0055654D01*
X0112193Y0055213D01*
X0113347Y0055213D01*
X0114412Y0055654D01*
X0115228Y0056470D01*
X0115670Y0057536D01*
X0115670Y0058690D01*
X0115473Y0057061D02*
X0131523Y0057061D01*
X0131400Y0055462D02*
X0113949Y0055462D01*
X0111591Y0055462D02*
X0089552Y0055462D01*
X0089552Y0056021D02*
X0089391Y0056407D01*
X0089568Y0056480D01*
X0090271Y0057183D01*
X0090652Y0058102D01*
X0090652Y0059097D01*
X0090271Y0060016D01*
X0089568Y0060719D01*
X0088649Y0061100D01*
X0087654Y0061100D01*
X0086736Y0060719D01*
X0086032Y0060016D01*
X0085652Y0059097D01*
X0085652Y0058168D01*
X0085009Y0057902D01*
X0084193Y0057086D01*
X0083752Y0056021D01*
X0083752Y0054867D01*
X0084193Y0053801D01*
X0085009Y0052985D01*
X0086075Y0052544D01*
X0087229Y0052544D01*
X0088294Y0052985D01*
X0089110Y0053801D01*
X0089552Y0054867D01*
X0089552Y0056021D01*
X0090148Y0057061D02*
X0110067Y0057061D01*
X0109870Y0058659D02*
X0109771Y0058659D01*
X0107603Y0058659D02*
X0090652Y0058659D01*
X0090029Y0060258D02*
X0106000Y0060258D01*
X0105787Y0061856D02*
X0069862Y0061856D01*
X0070270Y0060258D02*
X0086274Y0060258D01*
X0085652Y0058659D02*
X0069552Y0058659D01*
X0065988Y0058659D02*
X0061188Y0058659D01*
X0062616Y0060258D02*
X0065270Y0060258D01*
X0067016Y0063455D02*
X0106692Y0063455D01*
X0110683Y0063455D02*
X0123610Y0063455D01*
X0123228Y0061856D02*
X0111587Y0061856D01*
X0114726Y0060258D02*
X0123724Y0060258D01*
X0132418Y0053864D02*
X0089136Y0053864D01*
X0089627Y0051571D02*
X0088811Y0050756D01*
X0088370Y0049690D01*
X0088370Y0048536D01*
X0088811Y0047470D01*
X0089627Y0046654D01*
X0090693Y0046213D01*
X0091847Y0046213D01*
X0092912Y0046654D01*
X0093728Y0047470D01*
X0138370Y0047470D01*
X0138370Y0047036D02*
X0138811Y0045970D01*
X0139627Y0045154D01*
X0140693Y0044713D01*
X0141847Y0044713D01*
X0142912Y0045154D01*
X0143728Y0045970D01*
X0144170Y0047036D01*
X0144170Y0048190D01*
X0143728Y0049256D01*
X0142912Y0050071D01*
X0141847Y0050513D01*
X0140693Y0050513D01*
X0139627Y0050071D01*
X0138811Y0049256D01*
X0138370Y0048190D01*
X0138370Y0047036D01*
X0138910Y0045871D02*
X0114424Y0045871D01*
X0114626Y0045669D02*
X0113810Y0046485D01*
X0112744Y0046926D01*
X0111591Y0046926D01*
X0110525Y0046485D01*
X0109709Y0045669D01*
X0109267Y0044603D01*
X0109267Y0043450D01*
X0109709Y0042384D01*
X0110525Y0041568D01*
X0111591Y0041126D01*
X0112744Y0041126D01*
X0113810Y0041568D01*
X0114626Y0042384D01*
X0115067Y0043450D01*
X0115067Y0044603D01*
X0114626Y0045669D01*
X0115067Y0044273D02*
X0162482Y0044273D01*
X0162423Y0044130D02*
X0162423Y0043135D01*
X0162804Y0042217D01*
X0163507Y0041513D01*
X0164426Y0041133D01*
X0165421Y0041133D01*
X0166339Y0041513D01*
X0167043Y0042217D01*
X0167423Y0043135D01*
X0167423Y0044130D01*
X0167043Y0045049D01*
X0166339Y0045752D01*
X0165421Y0046133D01*
X0164426Y0046133D01*
X0163507Y0045752D01*
X0162804Y0045049D01*
X0162423Y0044130D01*
X0162614Y0042674D02*
X0124762Y0042674D01*
X0124728Y0042756D02*
X0123912Y0043571D01*
X0122847Y0044013D01*
X0121693Y0044013D01*
X0120627Y0043571D01*
X0119811Y0042756D01*
X0119370Y0041690D01*
X0119370Y0040536D01*
X0119811Y0039470D01*
X0120627Y0038654D01*
X0121693Y0038213D01*
X0122847Y0038213D01*
X0123912Y0038654D01*
X0124728Y0039470D01*
X0125170Y0040536D01*
X0125170Y0041690D01*
X0124728Y0042756D01*
X0125170Y0041076D02*
X0169254Y0041076D01*
X0169254Y0042674D02*
X0167232Y0042674D01*
X0167364Y0044273D02*
X0169254Y0044273D01*
X0166052Y0045871D02*
X0175870Y0045871D01*
X0176069Y0047470D02*
X0165118Y0047470D01*
X0165027Y0047432D02*
X0165946Y0047812D01*
X0166649Y0048516D01*
X0167030Y0049435D01*
X0167030Y0050429D01*
X0166649Y0051348D01*
X0165946Y0052051D01*
X0165027Y0052432D01*
X0164032Y0052432D01*
X0163113Y0052051D01*
X0162410Y0051348D01*
X0162030Y0050429D01*
X0162030Y0049435D01*
X0162410Y0048516D01*
X0163113Y0047812D01*
X0164032Y0047432D01*
X0165027Y0047432D01*
X0163941Y0047470D02*
X0144170Y0047470D01*
X0143806Y0049068D02*
X0162181Y0049068D01*
X0162128Y0050667D02*
X0149115Y0050667D01*
X0149017Y0050568D02*
X0149720Y0051272D01*
X0150100Y0052191D01*
X0150100Y0053185D01*
X0149720Y0054104D01*
X0149017Y0054807D01*
X0148098Y0055188D01*
X0147103Y0055188D01*
X0146184Y0054807D01*
X0145481Y0054104D01*
X0145100Y0053185D01*
X0145100Y0052191D01*
X0145481Y0051272D01*
X0146184Y0050568D01*
X0147103Y0050188D01*
X0148098Y0050188D01*
X0149017Y0050568D01*
X0150100Y0052265D02*
X0163630Y0052265D01*
X0165429Y0052265D02*
X0175974Y0052265D01*
X0176237Y0052156D02*
X0177232Y0052156D01*
X0178150Y0052537D01*
X0178854Y0053240D01*
X0179234Y0054159D01*
X0179234Y0055154D01*
X0178854Y0056072D01*
X0178150Y0056776D01*
X0177232Y0057156D01*
X0176237Y0057156D01*
X0175318Y0056776D01*
X0174615Y0056072D01*
X0174234Y0055154D01*
X0174234Y0054159D01*
X0174615Y0053240D01*
X0175318Y0052537D01*
X0176237Y0052156D01*
X0177495Y0052265D02*
X0181065Y0052265D01*
X0181065Y0050667D02*
X0166931Y0050667D01*
X0166878Y0049068D02*
X0177003Y0049068D01*
X0179112Y0053864D02*
X0181065Y0053864D01*
X0181065Y0055462D02*
X0179106Y0055462D01*
X0177462Y0057061D02*
X0181065Y0057061D01*
X0181065Y0058659D02*
X0135700Y0058659D01*
X0137016Y0057061D02*
X0176007Y0057061D01*
X0174362Y0055462D02*
X0137139Y0055462D01*
X0136122Y0053864D02*
X0145382Y0053864D01*
X0145100Y0052265D02*
X0082847Y0052265D01*
X0080858Y0052265D02*
X0072647Y0052265D01*
X0072670Y0052210D02*
X0072289Y0053129D01*
X0071586Y0053832D01*
X0070667Y0054213D01*
X0069672Y0054213D01*
X0068754Y0053832D01*
X0068050Y0053129D01*
X0067670Y0052210D01*
X0067670Y0051216D01*
X0068050Y0050297D01*
X0068754Y0049594D01*
X0069672Y0049213D01*
X0070667Y0049213D01*
X0071586Y0049594D01*
X0072289Y0050297D01*
X0072670Y0051216D01*
X0072670Y0052210D01*
X0072442Y0050667D02*
X0079181Y0050667D01*
X0083885Y0047470D02*
X0088812Y0047470D01*
X0088370Y0049068D02*
X0084752Y0049068D01*
X0084524Y0050667D02*
X0088774Y0050667D01*
X0089627Y0051571D02*
X0090693Y0052013D01*
X0091847Y0052013D01*
X0092912Y0051571D01*
X0093728Y0050756D01*
X0094170Y0049690D01*
X0094170Y0048536D01*
X0093728Y0047470D01*
X0094170Y0049068D02*
X0138734Y0049068D01*
X0143629Y0045871D02*
X0163795Y0045871D01*
X0169254Y0039477D02*
X0124731Y0039477D01*
X0119808Y0039477D02*
X0057659Y0039477D01*
X0057630Y0037879D02*
X0058391Y0037879D01*
X0058389Y0037878D02*
X0057686Y0037175D01*
X0057305Y0036256D01*
X0057305Y0035261D01*
X0057686Y0034343D01*
X0058389Y0033639D01*
X0059308Y0033259D01*
X0060302Y0033259D01*
X0061221Y0033639D01*
X0061925Y0034343D01*
X0062305Y0035261D01*
X0062305Y0036256D01*
X0061925Y0037175D01*
X0061221Y0037878D01*
X0060302Y0038259D01*
X0059308Y0038259D01*
X0058389Y0037878D01*
X0057315Y0036280D02*
X0055929Y0036280D01*
X0054610Y0036280D02*
X0052170Y0036280D01*
X0052136Y0034682D02*
X0057545Y0034682D01*
X0059570Y0031579D02*
X0058867Y0030876D01*
X0058486Y0029957D01*
X0058486Y0028962D01*
X0058867Y0028043D01*
X0059570Y0027340D01*
X0060489Y0026959D01*
X0061484Y0026959D01*
X0062402Y0027340D01*
X0063106Y0028043D01*
X0063486Y0028962D01*
X0063486Y0029957D01*
X0063106Y0030876D01*
X0062402Y0031579D01*
X0061484Y0031959D01*
X0060489Y0031959D01*
X0059570Y0031579D01*
X0059476Y0031485D02*
X0052260Y0031485D01*
X0052463Y0033083D02*
X0072783Y0033083D01*
X0072807Y0031485D02*
X0062497Y0031485D01*
X0063486Y0029886D02*
X0074496Y0029886D01*
X0075844Y0029886D02*
X0109735Y0029886D01*
X0110813Y0028288D02*
X0063207Y0028288D01*
X0058766Y0028288D02*
X0053251Y0028288D01*
X0053438Y0029886D02*
X0058486Y0029886D01*
X0062065Y0034682D02*
X0073491Y0034682D01*
X0073299Y0036280D02*
X0062295Y0036280D01*
X0061220Y0037879D02*
X0074466Y0037879D01*
X0077074Y0037879D02*
X0077800Y0037879D01*
X0085854Y0026232D02*
X0086772Y0026613D01*
X0087767Y0026613D01*
X0088686Y0026232D01*
X0089389Y0025529D01*
X0089770Y0024610D01*
X0089770Y0023616D01*
X0089389Y0022697D01*
X0088686Y0021994D01*
X0087767Y0021613D01*
X0086772Y0021613D01*
X0085854Y0021994D01*
X0085150Y0022697D01*
X0084770Y0023616D01*
X0084770Y0024610D01*
X0085150Y0025529D01*
X0085854Y0026232D01*
X0084969Y0025091D02*
X0053562Y0025091D01*
X0051977Y0025091D02*
X0050728Y0025091D01*
X0048688Y0028288D02*
X0047207Y0028288D01*
X0047207Y0029886D02*
X0048501Y0029886D01*
X0047207Y0026689D02*
X0143410Y0026689D01*
X0143554Y0026832D02*
X0142850Y0026129D01*
X0142470Y0025210D01*
X0142470Y0024216D01*
X0142850Y0023297D01*
X0143554Y0022594D01*
X0144472Y0022213D01*
X0145467Y0022213D01*
X0146386Y0022594D01*
X0147089Y0023297D01*
X0147470Y0024216D01*
X0147470Y0025210D01*
X0147089Y0026129D01*
X0146386Y0026832D01*
X0145467Y0027213D01*
X0144472Y0027213D01*
X0143554Y0026832D01*
X0142470Y0025091D02*
X0089571Y0025091D01*
X0089719Y0023492D02*
X0097548Y0023492D01*
X0097311Y0023256D02*
X0098127Y0024071D01*
X0099193Y0024513D01*
X0100347Y0024513D01*
X0101412Y0024071D01*
X0102228Y0023256D01*
X0102670Y0022190D01*
X0102670Y0021036D01*
X0102228Y0019970D01*
X0101412Y0019154D01*
X0100347Y0018713D01*
X0099193Y0018713D01*
X0098127Y0019154D01*
X0097311Y0019970D01*
X0096870Y0021036D01*
X0096870Y0022190D01*
X0097311Y0023256D01*
X0096870Y0021894D02*
X0088445Y0021894D01*
X0086095Y0021894D02*
X0055136Y0021894D01*
X0055153Y0023492D02*
X0084821Y0023492D01*
X0097177Y0020295D02*
X0053465Y0020295D01*
X0052074Y0020295D02*
X0050886Y0020295D01*
X0055570Y0007507D02*
X0060092Y0007507D01*
X0061852Y0005909D02*
X0055235Y0005909D01*
X0064064Y0012303D02*
X0065603Y0012303D01*
X0066420Y0017098D02*
X0069112Y0017098D01*
X0052909Y0037879D02*
X0051851Y0037879D01*
X0050888Y0039477D02*
X0052880Y0039477D01*
X0059067Y0042674D02*
X0062845Y0042674D01*
X0063039Y0044273D02*
X0059570Y0044273D01*
X0058947Y0045871D02*
X0109911Y0045871D01*
X0109267Y0044273D02*
X0094137Y0044273D01*
X0094520Y0042674D02*
X0109589Y0042674D01*
X0114746Y0042674D02*
X0119778Y0042674D01*
X0119370Y0041076D02*
X0094027Y0041076D01*
X0100671Y0037879D02*
X0169254Y0037879D01*
X0169254Y0036280D02*
X0142570Y0036280D01*
X0143740Y0034682D02*
X0168870Y0034682D01*
X0168863Y0033083D02*
X0169173Y0033083D01*
X0166276Y0033083D02*
X0156339Y0033083D01*
X0155201Y0033083D02*
X0147512Y0033083D01*
X0148132Y0031485D02*
X0153425Y0031485D01*
X0153365Y0029886D02*
X0147626Y0029886D01*
X0146529Y0026689D02*
X0153334Y0026689D01*
X0152970Y0025091D02*
X0147470Y0025091D01*
X0147170Y0023492D02*
X0153755Y0023492D01*
X0158175Y0029886D02*
X0165289Y0029886D01*
X0165101Y0031485D02*
X0158115Y0031485D01*
X0163705Y0025091D02*
X0164302Y0025091D01*
X0164070Y0023492D02*
X0169254Y0023492D01*
X0169254Y0021894D02*
X0163286Y0021894D01*
X0166637Y0025091D02*
X0169254Y0025091D01*
X0169254Y0026689D02*
X0167917Y0026689D01*
X0167772Y0028288D02*
X0169254Y0028288D01*
X0169254Y0013901D02*
X0151917Y0013901D01*
X0152570Y0012303D02*
X0166224Y0012303D01*
X0165170Y0010704D02*
X0152096Y0010704D01*
X0150106Y0009106D02*
X0165423Y0009106D01*
X0165992Y0007507D02*
X0150183Y0007507D01*
X0148739Y0005909D02*
X0164242Y0005909D01*
X0167194Y0007507D02*
X0169254Y0007507D01*
X0169254Y0005909D02*
X0168943Y0005909D01*
X0169116Y0012303D02*
X0169254Y0012303D01*
X0142769Y0023492D02*
X0124837Y0023492D01*
X0119702Y0023492D02*
X0101992Y0023492D01*
X0102670Y0021894D02*
X0119370Y0021894D01*
X0119986Y0020295D02*
X0102363Y0020295D01*
X0102425Y0036280D02*
X0139969Y0036280D01*
X0143549Y0033083D02*
X0143752Y0033083D01*
X0146086Y0050667D02*
X0093765Y0050667D01*
X0084167Y0053864D02*
X0071510Y0053864D01*
X0068830Y0053864D02*
X0059440Y0053864D01*
X0059649Y0052265D02*
X0067693Y0052265D01*
X0067897Y0050667D02*
X0058521Y0050667D01*
X0059481Y0057061D02*
X0084183Y0057061D01*
X0083752Y0055462D02*
X0047207Y0055462D01*
X0047207Y0063455D02*
X0049833Y0063455D01*
X0049037Y0065053D02*
X0047207Y0065053D01*
X0052171Y0071447D02*
X0052270Y0071447D01*
X0060365Y0065053D02*
X0063138Y0065053D01*
X0062044Y0063455D02*
X0061070Y0063455D01*
X0065922Y0065053D02*
X0145100Y0065053D01*
X0145460Y0066652D02*
X0088344Y0066652D01*
X0089166Y0074645D02*
X0070450Y0074645D01*
X0099267Y0095425D02*
X0113743Y0095425D01*
X0113772Y0095413D02*
X0114767Y0095413D01*
X0115686Y0095794D01*
X0116389Y0096497D01*
X0116770Y0097416D01*
X0116770Y0098410D01*
X0116389Y0099329D01*
X0115686Y0100032D01*
X0114767Y0100413D01*
X0113772Y0100413D01*
X0112854Y0100032D01*
X0112150Y0099329D01*
X0111770Y0098410D01*
X0111770Y0097416D01*
X0112150Y0096497D01*
X0112854Y0095794D01*
X0113772Y0095413D01*
X0114796Y0095425D02*
X0119143Y0095425D01*
X0117332Y0097024D02*
X0116607Y0097024D01*
X0116682Y0098622D02*
X0117258Y0098622D01*
X0118708Y0100221D02*
X0115231Y0100221D01*
X0113308Y0100221D02*
X0103158Y0100221D01*
X0103331Y0098622D02*
X0111858Y0098622D01*
X0111932Y0097024D02*
X0102117Y0097024D01*
X0099622Y0097024D02*
X0099423Y0097024D01*
X0104095Y0119403D02*
X0109370Y0119403D01*
X0110023Y0121001D02*
X0104970Y0121001D01*
X0149819Y0053864D02*
X0174357Y0053864D01*
M02*
